<svg xmlns="http://www.w3.org/2000/svg" viewBox="0 0 3415 4167" width="3415" height="4167"><defs><clipPath clipPathUnits="userSpaceOnUse" id="cp1"><path d="M0 0L3415 0L3415 4167L0 4167Z" /></clipPath></defs><style>tspan { white-space:pre }.shp0 { fill: #dae8e8 } .shp1 { fill: #403d33 } .shp2 { fill: #ff9a66 } .shp3 { fill: #e2794b } .shp4 { fill: #95d3ca } .shp5 { fill: #40b3b8 } .shp6 { fill: #ff4217 } .shp7 { fill: #ffffff } </style><g id="Page 1" clip-path="url(#cp1)"><path id="Path 2" fill-rule="evenodd" class="shp0" d="M2174.65 3383.5C2174.79 3383.37 2174.92 3383.23 2175.06 3383.1C2203.17 3390.9 2227.17 3417.46 2223.87 3451.92C2217.58 3518.04 2131.08 3537.02 2090.5 3489.83C2079.68 3483.37 2072.81 3471.1 2075.7 3457.48C2072.94 3437.81 2079.31 3417.52 2091.33 3403.4C2092.85 3404.37 2094.4 3405.31 2095.96 3406.17C2102.54 3409.83 2108.35 3400.85 2102.29 3396.37C2101.63 3395.87 2100.98 3395.35 2100.33 3394.85C2110.25 3387.29 2122.5 3383.33 2135.94 3385.29C2145.98 3380.92 2156.94 3379.85 2167.58 3381.5C2168.46 3384.25 2172.1 3385.79 2174.65 3383.5ZM2145.94 3421.71C2139.88 3423.54 2136.08 3427.21 2134.15 3431.63C2132.77 3432.87 2131.5 3434.25 2130.48 3435.88C2130.06 3435.85 2129.69 3435.81 2129.27 3435.79C2125 3435.62 2121.96 3439.54 2122.75 3443.63C2123.67 3448.54 2125.81 3452.92 2128.69 3456.6C2131.08 3462.65 2135.96 3467.56 2143 3469.13C2146.56 3469.92 2150.21 3469.69 2153.56 3468.67C2161.15 3468.29 2168.5 3464.54 2173.56 3456.23C2185.46 3436.73 2167.19 3415.25 2145.94 3421.71ZM1154.67 3414.42C1167.04 3425.65 1175.56 3440.5 1175.3 3458.21C1175.14 3468.44 1171.65 3477.77 1165.93 3485.17C1149.74 3517.63 1103.66 3524.02 1072.36 3509.71C1033.22 3491.83 1015.33 3444.48 1039.54 3407.06C1046.61 3396.15 1056.26 3388.65 1066.98 3384.4C1067.79 3383.42 1068.72 3382.54 1069.75 3381.77C1071.66 3384.85 1073.56 3387.94 1075.43 3391.04C1079.02 3397 1088.72 3391.85 1084.99 3386C1083.2 3383.21 1081.43 3380.38 1079.66 3377.54C1087.25 3375.83 1095.96 3376.21 1102.1 3376.96C1118.67 3379 1134.47 3387.42 1145.37 3400.08C1147.45 3402.48 1149.31 3405.06 1150.99 3407.75C1150.67 3408.15 1150.35 3408.52 1150.03 3408.9C1147.38 3412.15 1151.46 3415.33 1154.67 3414.42ZM1125.83 3443.1C1122.4 3437 1116.66 3433.46 1110.65 3432.48C1097.05 3426.71 1077.74 3430.63 1076.77 3449.92C1076.03 3464.75 1089.66 3478.9 1104.57 3478.23C1121.54 3477.5 1134.58 3458.65 1125.83 3443.1Z" /><path id="Path 3" class="shp1" d="M1110.65 3432.48C1097.05 3426.71 1077.74 3430.63 1076.77 3449.92C1076.03 3464.75 1089.66 3478.9 1104.57 3478.23C1121.54 3477.5 1134.58 3458.65 1125.83 3443.1C1122.4 3437 1116.66 3433.46 1110.65 3432.48ZM2145.94 3421.71C2139.88 3423.54 2136.08 3427.21 2134.15 3431.63C2132.77 3432.87 2131.5 3434.25 2130.48 3435.88C2130.06 3435.85 2129.69 3435.81 2129.27 3435.79C2125 3435.62 2121.96 3439.54 2122.75 3443.63C2123.67 3448.54 2125.81 3452.92 2128.69 3456.6C2131.08 3462.65 2135.96 3467.56 2143 3469.13C2146.56 3469.92 2150.21 3469.69 2153.56 3468.67C2161.15 3468.29 2168.5 3464.54 2173.56 3456.23C2185.46 3436.73 2167.19 3415.25 2145.94 3421.71ZM1787.35 3304.23L1337.99 3304.6C1338.74 3305.13 1339.52 3305.63 1340.27 3306.15C1336.68 3306.02 1333.09 3305.88 1329.5 3305.85C1327.08 3305.83 1324.62 3305.83 1322.13 3305.83L1323.56 3306.71L1302.78 3306.4C1295.6 3306.85 1288.38 3307.58 1281.33 3308.87C1279.56 3307.96 1277.81 3307 1276.08 3306.02L1183.61 3304.73L925.8 3304.94L939.8 3348L1049.64 3348.31C1055.99 3359.65 1062.93 3370.71 1069.75 3381.77C1071.66 3384.85 1073.56 3387.94 1075.43 3391.04C1079.02 3397 1088.72 3391.85 1084.99 3386C1083.2 3383.21 1081.43 3380.38 1079.66 3377.54C1073.55 3367.79 1067.5 3357.96 1061.12 3348.35L1208.86 3348.79C1188.84 3367.73 1168.34 3386.69 1150.99 3407.75C1150.67 3408.15 1150.35 3408.52 1150.03 3408.9C1147.38 3412.15 1151.46 3415.33 1154.67 3414.42C1155.09 3414.29 1155.49 3414.1 1155.86 3413.83C1181.98 3394.83 1205.37 3370.98 1229.13 3348.83L2051.3 3351.27C2058.79 3372.08 2072.9 3391.5 2091.33 3403.4C2092.85 3404.37 2094.4 3405.31 2095.96 3406.17C2102.54 3409.83 2108.35 3400.85 2102.29 3396.37C2101.63 3395.87 2100.98 3395.35 2100.33 3394.85C2084.23 3382.56 2072.06 3368.79 2064.03 3351.31L2182.98 3351.67C2181.71 3353.73 2180.46 3355.81 2179.19 3357.85C2175.06 3364.56 2169.85 3371.4 2167.58 3378.96C2167.31 3379.85 2167.35 3380.73 2167.58 3381.5C2168.46 3384.25 2172.1 3385.79 2174.65 3383.5C2174.79 3383.37 2174.92 3383.23 2175.06 3383.1C2180.69 3377.83 2184.58 3370.48 2188.77 3364.06C2191.46 3359.94 2194.23 3355.83 2196.9 3351.71L2218.02 3351.77L2214.85 3303.87L2014.57 3304.04C2015.34 3304.06 2016.11 3304.1 2016.89 3304.1C2017 3304.1 2017.12 3304.1 2017.24 3304.1L2017.23 3304.1C2017.11 3304.1 2017 3304.1 2016.89 3304.1C2016.1 3304.1 2015.32 3304.06 2014.54 3304.04L1805.9 3304.21C1800.12 3304.73 1793.87 3305.25 1787.6 3306.15L1787.35 3304.23Z" /><path id="Path 4" class="shp2" d="M1776.06 2583.81C1775.54 2580.67 1774.95 2577.52 1774.37 2574.38C1773.93 2575 1773.38 2575.54 1772.73 2576C1772.91 2576.29 1773.08 2576.6 1773.25 2576.9C1774.26 2578.62 1774.47 2580.35 1774.18 2582C1774.81 2582.6 1775.42 2583.23 1776.06 2583.81ZM2014.57 3304.04C2009.63 3303.96 2004.7 3303.69 1999.76 3303.54C2004.69 3303.71 2009.61 3303.96 2014.54 3304.04C2015.32 3304.06 2016.1 3304.1 2016.89 3304.1C2016.11 3304.1 2015.34 3304.06 2014.57 3304.04ZM1623.19 2387.44C1623.2 2387.44 1623.2 2387.44 1623.21 2387.46C1623.2 2387.44 1623.2 2387.44 1623.2 2387.42L1623.19 2387.44Z" /><path id="Path 5" fill-rule="evenodd" class="shp2" d="M1789.91 2209.62C1813.13 2210.67 1836.05 2214.83 1858.47 2221.81L1942.27 2634L1847.56 3213.29L1861.29 3220.54C1858.83 3219.65 1856.38 3218.73 1853.92 3217.88C1853.14 3217.63 1852.48 3217.73 1851.96 3218.06C1851.52 3217.79 1851.07 3217.5 1850.63 3217.27C1847.25 3215.35 1843.22 3219.56 1846.1 3222.62C1862.07 3239.58 1882.03 3253.02 1900.23 3267.52C1914.21 3278.65 1927.84 3290.73 1942.59 3300.92C1937.76 3300.85 1932.94 3300.77 1928.11 3300.73C1888.27 3300.35 1848.23 3300.33 1808.52 3303.98C1807.67 3304.06 1806.78 3304.15 1805.9 3304.21C1800.12 3304.73 1793.87 3305.25 1787.6 3306.15L1787.35 3304.23L1722.5 2804.58C1724.82 2781.5 1727.46 2759 1730.66 2737.58C1729.35 2759.79 1729.52 2783.1 1735.77 2803.31C1736.19 2804.69 1737.56 2805.6 1738.92 2805.75C1740.27 2805.9 1741.62 2805.29 1742 2803.58C1747.08 2781.1 1743.72 2757.35 1744.61 2734.4C1745.57 2709.77 1748.38 2685.15 1755.56 2661.48C1768.86 2617.63 1794.47 2591.65 1829.74 2564.25C1831.91 2562.58 1829.82 2559.1 1827.35 2559.69C1813.78 2562.88 1801.6 2570.02 1790.9 2579.42C1783.71 2537.56 1770.5 2497.46 1756.95 2457.4C1748.82 2433.37 1740.57 2409.37 1733.43 2385C1717.54 2330.79 1711.63 2280 1719.17 2227.5C1737.42 2229.5 1755.79 2226.17 1772.6 2218.75C1778.09 2216.31 1784.29 2213.33 1789.91 2209.62ZM1909.6 2675.69C1910.08 2677.17 1911.21 2677.79 1912.73 2677.65C1920.44 2676.92 1924.56 2666.77 1928.43 2661.1C1932.61 2654.98 1939.83 2647.77 1938.46 2639.94C1938.13 2637.98 1935.93 2636.75 1934.08 2637.17C1926.47 2638.94 1922.52 2648.67 1918.61 2654.75C1914.87 2660.58 1907.21 2668.25 1909.6 2675.69ZM1903.01 3257.9C1900.28 3255.6 1897.57 3253.31 1894.9 3251.04C1897.54 3252.62 1900.29 3254.08 1902.96 3255.63C1902.82 3256.38 1902.84 3257.15 1903.01 3257.9Z" /><path id="Path 6" class="shp3" d="M1627.36 2372.96C1634.46 2361.54 1633.78 2349.67 1637.39 2338.35L1626.96 2369.85L1627.36 2369.85C1627.36 2369.85 1627.36 2371.71 1627.36 2372.96ZM1604.21 2435.44C1604.3 2435.37 1604.38 2435.08 1604.46 2434.71L1604.21 2435.44Z" /><path id="Path 7" fill-rule="evenodd" class="shp3" d="M1682.05 2250.5C1685.15 2242.17 1688.64 2233.83 1691.72 2225.48C1698.41 2223.1 1705.12 2220.87 1711.94 2218.85C1718.75 2216.85 1725.66 2215.08 1732.74 2213.65C1737.09 2213.13 1741.39 2212.42 1745.63 2211.46C1747.67 2211.19 1749.73 2210.92 1751.81 2210.71C1764.57 2209.37 1777.29 2209.04 1789.91 2209.62C1784.29 2213.33 1778.09 2216.31 1772.6 2218.75C1755.79 2226.17 1737.42 2229.5 1719.17 2227.5C1711.63 2280 1717.54 2330.79 1733.43 2385C1740.57 2409.37 1748.82 2433.37 1756.95 2457.4C1770.5 2497.46 1783.71 2537.56 1790.9 2579.42C1801.6 2570.02 1813.78 2562.88 1827.35 2559.69C1829.82 2559.1 1831.91 2562.58 1829.74 2564.25C1794.47 2591.65 1768.85 2617.63 1755.56 2661.48C1748.38 2685.15 1745.57 2709.77 1744.61 2734.4C1743.72 2757.35 1747.08 2781.1 1742 2803.58C1741.62 2805.29 1740.27 2805.9 1738.92 2805.75C1737.57 2805.6 1736.21 2804.69 1735.79 2803.31C1729.53 2783.1 1729.39 2759.79 1730.7 2737.58C1731.16 2729.63 1731.85 2721.81 1732.49 2714.33C1734.56 2690.06 1739.01 2665.65 1748.16 2642.96C1752.14 2633.08 1757.41 2622.75 1763.59 2612.79C1763.11 2612.31 1762.94 2611.75 1762.62 2611C1758.04 2600.19 1753.78 2589.5 1749.58 2578.58C1719.01 2546.46 1692.77 2511.54 1669.74 2473.48C1653.71 2447 1641.56 2417.75 1627.36 2387.46C1627.36 2387.44 1627.36 2380.4 1627.36 2375.48C1627.36 2376.9 1630.96 2377.6 1631.97 2375.79C1653.53 2336.98 1666.6 2292.04 1682.05 2250.5ZM1774.18 2582C1774.81 2582.6 1775.42 2583.23 1776.06 2583.81C1775.54 2580.67 1774.95 2577.52 1774.37 2574.38C1773.93 2575 1773.38 2575.54 1772.73 2576C1772.91 2576.29 1773.08 2576.6 1773.25 2576.9C1774.26 2578.62 1774.47 2580.35 1774.18 2582ZM1769.21 2598.56C1769.77 2599.56 1770.34 2600.56 1770.9 2601.56C1771.52 2600.73 1772.12 2599.88 1772.76 2599.04C1771.59 2599.17 1770.38 2599.02 1769.21 2598.56ZM1676.75 2237.83C1668.03 2261.02 1657.98 2284.56 1648.97 2308.35L1676.23 2230.98C1676.55 2230.92 1676.87 2230.88 1677.19 2230.83C1678.05 2230.5 1678.9 2230.19 1679.76 2229.88C1678.76 2232.52 1677.75 2235.17 1676.75 2237.83ZM1853.92 3217.88C1856.38 3218.73 1858.83 3219.65 1861.29 3220.54C1916.37 3240.73 1969.55 3274.63 2020.97 3302.12C2021.45 3302.4 2021.83 3302.69 2022.2 3303C2020.54 3302.94 2018.89 3302.9 2017.23 3302.83C2011.41 3302.65 2005.59 3302.46 1999.76 3302.27C1980.74 3301.71 1961.72 3301.27 1942.69 3301C1942.65 3300.98 1942.62 3300.94 1942.59 3300.92C1927.84 3290.73 1914.21 3278.65 1900.23 3267.52C1882.03 3253.02 1862.07 3239.58 1846.1 3222.62C1843.22 3219.56 1847.25 3215.35 1850.63 3217.27C1851.07 3217.5 1851.52 3217.79 1851.96 3218.06C1852.48 3217.73 1853.14 3217.63 1853.92 3217.88ZM1894.9 3251.04C1897.57 3253.31 1900.28 3255.6 1903.01 3257.9C1902.84 3257.15 1902.82 3256.38 1902.96 3255.63C1900.29 3254.08 1897.54 3252.62 1894.9 3251.04Z" /><path id="Path 8" fill-rule="evenodd" class="shp2" d="M1840.43 741.47C1840.43 742.17 1840.51 742.79 1840.56 743.38L1840.43 743.38C1840.43 743.39 1840.43 741.46 1840.43 741.47ZM1840.56 743.38L1840.9 743.38C1845.16 757.58 1846.84 781.44 1846.76 799.34C1846.74 802.64 1846.67 804.99 1846.58 808.33C1846.39 809.09 1846.19 809.82 1846 810.58C1845.25 810.68 1844.49 810.73 1843.74 810.83C1840.13 811.31 1836.49 811.33 1833.38 813.42C1832.09 814.29 1831.53 815.75 1831.69 816.98C1831.64 818.35 1832.31 819.98 1833.93 820.58C1837.01 821.72 1839.93 821.93 1843.05 821.55C1828.39 874.34 1808 913.84 1779.79 928.04L1778.89 928.04C1801.26 885.43 1812.91 836.42 1816.17 794.84C1828.06 781.2 1837.76 764.65 1840.62 747.02C1840.72 746.38 1840.5 745.69 1840.57 745.02C1840.65 744.47 1840.62 743.94 1840.56 743.38ZM1782.22 682.31C1782.08 682.07 1781.94 681.83 1781.8 681.59C1782.04 681.69 1782.29 681.81 1782.52 681.91C1782.41 682.03 1782.32 682.18 1782.22 682.31ZM1781.15 874.96C1776.92 886.21 1772.1 897.23 1766.65 907.95C1763.05 915.02 1759.01 921.8 1754.82 928.48L1745.93 928.52C1746.57 932.04 1747.31 935.49 1748.18 938.84C1742.09 948.17 1735.94 957.46 1730.36 967.1C1731.06 960.71 1731.63 954.31 1732.04 947.88C1732.45 941.25 1733.13 933.99 1733.5 926.58C1752.24 912.53 1768.45 894.82 1781.15 874.96ZM1755.42 960.02C1775.4 1006.89 1813.73 1032.28 1817.1 1034.43C1871.18 1039.96 1925.26 1045.49 1979.34 1051.02C1958.76 1051.84 1938.33 1053.24 1918.06 1055.28C1861.09 1110.47 1805.98 1154.23 1755.71 1168.22C1740.69 1168.34 1725.66 1166.46 1711.09 1162.64C1698.14 1159.24 1686.15 1154.4 1674.94 1148.44C1695.91 1107.79 1711.78 1064.54 1721.58 1019.84C1724.47 1006.67 1726.88 993.4 1728.74 980.06C1730.46 981.15 1732.83 981.27 1734.95 979.62C1742.33 973.88 1749.13 967.27 1755.42 960.02ZM1711.04 980.19C1709.71 988.15 1708.18 996.06 1706.5 1003.94C1706.75 1001.72 1706.97 999.49 1707.17 997.25C1708.57 991.58 1709.89 985.9 1711.04 980.19ZM1664.86 1119.33C1667.28 1115.63 1669.64 1111.9 1671.86 1108.1C1668.43 1115.61 1664.79 1123.04 1661.01 1130.42C1662.3 1126.73 1663.59 1123.03 1664.86 1119.33ZM749.43 1135.82L750.46 1147.41L445.34 1111.45C428.2 1111.79 410.67 1109.57 393.83 1108.5C367.27 1106.82 340.73 1104.78 314.18 1102.91C307.45 1102.44 305.27 1094.73 309.52 1090.09C315.24 1083.84 321.13 1078.7 327.14 1074.51C327.7 1073.93 328.41 1073.45 329.26 1073.08C334.07 1069.92 338.96 1067.37 343.9 1065.38C344.87 1063.86 346.35 1062.71 348.49 1062.5C350.6 1062.3 352.72 1062.08 354.83 1061.88C389.41 1053.52 426.28 1069.41 459.99 1091.4C477.46 1084.4 500.71 1083.12 516.01 1080.43C548.72 1074.68 581.93 1071.25 615.13 1070.21C644.95 1069.27 674.75 1070.46 704.34 1073.55C701.05 1073.89 697.82 1074.3 694.69 1074.78C690.78 1075.38 690.19 1079.66 692 1082.33C691.63 1082.22 691.31 1082.07 690.93 1081.97C690.13 1081.76 689.3 1082.59 689.75 1083.37C690.64 1084.95 691.54 1086.53 692.43 1088.1C692.66 1088.51 693.4 1088.29 693.24 1087.8C694.56 1091.88 691.45 1089.46 694.8 1096.05C697.74 1101.83 705.56 1107.01 710.38 1111.02C721.84 1120.56 734.31 1128.5 747.71 1135C748.27 1135.27 748.85 1135.55 749.43 1135.82ZM497.46 1100.18C494.95 1100.87 492.4 1101.58 489.83 1102.27L497.01 1101.85C497.06 1101.25 497.19 1100.68 497.46 1100.18ZM1361.17 2183.73C1360.79 2185.56 1360.38 2187.38 1360.01 2189.21L1359.89 2178.96L1361.17 2183.73ZM1243.92 3265.4C1248.33 3267.92 1252.78 3270.35 1257.18 3272.79C1253.84 3271.42 1250.48 3270.1 1247.11 3268.92C1246.04 3267.75 1244.98 3266.58 1243.92 3265.4ZM1423.13 2229.31C1423.44 2228.08 1423.76 2226.83 1424.08 2225.58C1438.28 2230.67 1453.41 2234.42 1469.36 2237.02C1453.33 2236.77 1437.39 2234.52 1423.13 2229.31ZM1405.59 2220.83C1405.71 2219.94 1405.83 2219.04 1405.95 2218.17C1406.21 2218.27 1406.48 2218.4 1406.74 2218.5C1406.55 2219.4 1406.36 2220.29 1406.17 2221.19C1405.97 2221.06 1405.78 2220.94 1405.59 2220.83ZM1302.78 3306.4C1309.31 3306 1315.81 3305.85 1322.13 3305.83L1323.56 3306.71L1302.78 3306.4ZM1276.08 3306.02L1183.61 3304.73L1148.62 3304.23L1265.7 2796.96C1265.71 2798 1265.72 2799.02 1265.77 2800.04C1265.99 2805.63 1272.99 2806.79 1275.21 2801.75C1283.22 2783.62 1286.47 2763.54 1293.27 2744.85C1300.86 2723.98 1310.58 2703.98 1322.08 2684.98C1333.6 2665.92 1346.79 2647.92 1361.81 2631.44C1370.01 2622.44 1381.05 2615.37 1386.55 2604.94C1388.22 2603.23 1389.25 2600.92 1389.21 2598.12C1389.24 2598.02 1389.28 2597.94 1389.3 2597.85C1389.34 2597.67 1389.27 2597.5 1389.15 2597.35C1389.11 2596.92 1389.13 2596.5 1389.04 2596.04C1385.67 2579.02 1382.69 2561.92 1380.07 2544.77C1381.63 2482.35 1386.73 2420.06 1395.8 2358.23C1401.51 2319.27 1410.1 2281.27 1419.51 2243.56C1450.27 2256.44 1492.57 2253.75 1519.92 2248.98C1529.54 2247.29 1539.96 2244.6 1550.59 2241.33C1589.46 2240.35 1630.99 2235.21 1673.8 2228.71C1674.61 2228.31 1675.42 2227.12 1676.23 2226.73C1675.87 2227.65 1675.56 2227.79 1675.2 2227.79C1675.21 2227.79 1677.07 2227.79 1677.07 2227.79L1677.07 2229.46C1677.07 2229.46 1677.07 2229.46 1677.07 2229.46C1677.07 2229.42 1676.81 2231.02 1677.15 2230.98L1648.97 2308.35C1645.14 2318.48 1641.49 2328.65 1638.23 2338.85L1626.96 2370.83L1604.46 2434.71L1604.21 2435.44L1527.68 2652.71L1524.83 2657.96C1519.5 2658.42 1514.8 2662.17 1510.4 2665.27C1503.55 2670.1 1496.79 2675.06 1489.98 2679.96C1483.98 2684.29 1491.36 2694.94 1497.49 2690.65C1502.63 2687.06 1507.79 2683.48 1512.92 2679.9L1210.71 3236.52C1210.22 3236.42 1209.74 3236.29 1209.25 3236.21C1208.14 3235.98 1207.19 3237.17 1208.02 3238.13C1210.23 3240.69 1212.63 3243.06 1215.14 3245.37C1216.61 3263.9 1239.84 3280.88 1253.37 3291.1C1260.11 3296.19 1267.84 3301.4 1276.08 3306.02ZM711.48 1094.76C707.01 1090.91 702.78 1087.22 697.61 1084.59C698.68 1084.65 699.75 1084.72 700.82 1084.78C704.55 1087.86 708.53 1090.7 712.7 1093.35C712.23 1093.75 711.83 1094.23 711.48 1094.76Z" /><path id="Path 9" fill-rule="evenodd" class="shp3" d="M1273.66 3267.42C1295 3279.52 1317.76 3290.58 1337.99 3304.6C1338.74 3305.13 1339.52 3305.63 1340.27 3306.15C1336.68 3306.02 1333.09 3305.88 1329.5 3305.85C1327.08 3305.83 1324.62 3305.83 1322.13 3305.83C1315.81 3305.85 1309.31 3306 1302.78 3306.4C1295.6 3306.85 1288.38 3307.58 1281.33 3308.87C1279.56 3307.96 1277.81 3307 1276.08 3306.02C1267.84 3301.4 1260.11 3296.19 1253.37 3291.1C1239.84 3280.88 1216.61 3263.9 1215.14 3245.37C1212.63 3243.06 1210.23 3240.69 1208.02 3238.13C1207.19 3237.17 1208.14 3235.98 1209.25 3236.21C1209.74 3236.29 1210.22 3236.42 1210.71 3236.52C1233.33 3241.35 1253.74 3256.13 1273.66 3267.42ZM1257.18 3272.79C1252.78 3270.35 1248.33 3267.92 1243.92 3265.4C1244.98 3266.58 1246.04 3267.75 1247.11 3268.92C1250.48 3270.1 1253.84 3271.42 1257.18 3272.79ZM1265.77 2800.04C1265.72 2799.02 1265.71 2798 1265.7 2796.96C1265.33 2756.35 1289.35 2710.83 1310.38 2677.42C1322.05 2658.9 1335.68 2641.52 1350.65 2625.56C1355.03 2620.87 1359.37 2615.54 1364.06 2610.77C1363.14 2609.73 1362.4 2608.5 1362.19 2606.81C1357.16 2567.48 1354.19 2527.9 1353.08 2488.27C1350.96 2465.33 1349.48 2442.35 1348.76 2419.35C1348.64 2418.19 1348.56 2417.02 1348.46 2415.85C1347.99 2414.81 1347.66 2413.63 1347.55 2412.29C1341.55 2338.31 1345.43 2262.48 1360.01 2189.21C1360.38 2187.38 1360.79 2185.56 1361.17 2183.73L1362.63 2189.19C1375.46 2201.1 1389.99 2210.65 1405.95 2218.17C1405.83 2219.04 1405.71 2219.94 1405.59 2220.83C1405.78 2220.94 1405.97 2221.06 1406.17 2221.19C1406.36 2220.29 1406.55 2219.4 1406.74 2218.5C1412.35 2221.1 1418.14 2223.46 1424.08 2225.58C1423.76 2226.83 1423.44 2228.08 1423.13 2229.31C1437.39 2234.52 1453.33 2236.77 1469.36 2237.02C1494.61 2241.17 1521.87 2242.48 1550.59 2241.75C1539.96 2245.02 1529.54 2247.5 1519.92 2249.19C1492.57 2253.96 1450.27 2256.52 1419.51 2243.67C1410.1 2281.38 1401.51 2319.33 1395.8 2358.27C1386.73 2420.1 1381.63 2482.38 1380.07 2544.79C1382.69 2561.94 1385.67 2579.02 1389.04 2596.04C1389.13 2596.5 1389.11 2596.92 1389.15 2597.37C1389.27 2597.5 1389.34 2597.69 1389.3 2597.85C1389.28 2597.94 1389.24 2598.02 1389.21 2598.12C1389.25 2600.92 1388.22 2603.23 1386.55 2604.94C1381.05 2615.37 1370.01 2622.44 1361.81 2631.44C1346.79 2647.92 1333.6 2665.92 1322.08 2684.98C1310.58 2703.98 1300.86 2723.98 1293.27 2744.85C1286.47 2763.54 1283.22 2783.62 1275.21 2801.75C1272.99 2806.79 1265.99 2805.63 1265.77 2800.04Z" /><path id="Path 10" class="shp4" d="M1849.76 2105.98C1853.68 2131.9 1857.1 2157.92 1860.25 2184.06C1860.34 2189.75 1861.74 2195.4 1861.74 2201.02C1861.74 2201 1861.74 2200.98 1861.74 2200.96C1861.74 2192.04 1860.01 2183.06 1860.15 2174C1859.95 2171.04 1859.4 2168.1 1859.16 2165.15C1856.58 2146.92 1853.2 2128.71 1850.98 2110.44L1849.33 2104.46C1849.35 2104.58 1849.48 2104.71 1849.5 2104.85C1849.56 2105.23 1849.71 2105.6 1849.76 2105.98ZM1781.66 1650.41C1735.42 1681.21 1676.67 1700.09 1626.62 1708.09C1592.85 1713.49 1553.51 1715.09 1525.36 1692.13C1511.25 1680.63 1500.58 1662.61 1500.74 1644.44C1500.61 1644.43 1500.47 1644.42 1500.34 1644.41L1482.93 1748.5C1501.48 1749.29 1521.94 1758.4 1538.85 1762.07C1568.08 1768.42 1597.51 1773.89 1627.09 1778.32C1681.91 1786.54 1738.14 1792.8 1793.69 1792.61C1803.69 1742.26 1808.83 1692.83 1811.27 1643.9C1804.79 1644.47 1798.3 1645 1791.8 1645.5C1788.46 1647.29 1785.09 1648.96 1781.66 1650.41ZM1590.22 1899.89C1598.04 1867.87 1595.49 1835.65 1582.54 1805.59C1581.16 1839.08 1579.16 1868.18 1590.22 1899.89ZM1509.83 1861.69C1539.7 1847.3 1561.15 1820.51 1569.44 1788.25C1539.85 1803.67 1518.62 1829.77 1509.83 1861.69ZM1596.7 1919.21C1595.1 1923.67 1588.19 1925.03 1585.97 1920.23C1572.26 1890.69 1562.55 1852.04 1569.33 1818.27C1555.45 1844.72 1532.23 1865.21 1503.39 1876.18C1499 1877.85 1496.31 1872.74 1496.93 1869.26C1503.73 1830.93 1527.9 1798.3 1562.39 1780.95C1553.12 1779.07 1543.84 1777.23 1534.61 1775.14C1518.8 1771.56 1496.95 1769.72 1480.67 1761.98L1475.8 1791.07C1460.22 1794.02 1446.72 1798.9 1434.79 1805.25C1434.26 1809.46 1429.48 1811.78 1426.23 1813.99C1421.61 1817.14 1417 1819.8 1411.86 1822.02C1411.23 1822.3 1410.61 1822.31 1410.05 1822.19C1403.2 1828.06 1396.95 1834.51 1391.16 1841.37C1392.44 1840.46 1393.72 1839.55 1395.02 1838.68C1395.53 1838.33 1395.92 1839.1 1395.59 1839.48C1382.82 1854.16 1371.02 1869.68 1360.8 1886.02C1356.52 1893.38 1352.36 1900.84 1348.18 1908.3C1334.55 1935.1 1325.52 1963.92 1323.48 1994.71C1323.2 2013.97 1325.26 2036.67 1330.44 2064.01C1333.46 2075.32 1337.36 2086.37 1342.12 2097.04C1354.61 2125.08 1374.43 2145.37 1391.94 2169.75C1394.85 2173.81 1390.72 2179.9 1385.97 2176.81C1371.83 2167.58 1359.71 2154.98 1349.56 2140.35L1359.89 2178.96L1361.17 2183.73L1362.63 2189.19C1375.46 2201.1 1389.99 2210.65 1405.95 2218.17C1406.21 2218.27 1406.48 2218.4 1406.74 2218.5C1412.35 2221.1 1418.14 2223.46 1424.08 2225.58C1438.28 2230.67 1453.41 2234.42 1469.36 2237.02C1494.61 2241.17 1521.87 2242.48 1550.59 2241.75C1589.46 2240.75 1630.99 2236.04 1673.8 2229.54C1674.61 2229.15 1675.42 2228.77 1676.23 2228.4C1676.24 2228.37 1676.24 2228.35 1676.25 2228.35C1695.23 2180.46 1712.02 2131.63 1727.85 2083.87C1742.99 2038.2 1752.27 1991.42 1765.39 1945.23C1769.5 1930.73 1776.51 1916.26 1776.51 1901.71C1776.51 1901.71 1776.51 1901.7 1776.51 1901.7C1776.51 1897.38 1778.89 1893.05 1779.69 1888.72C1780.39 1886.73 1781.01 1884.57 1781.06 1882.24C1781.51 1879.42 1782.01 1876.6 1782.36 1873.77C1782.43 1873.19 1782.55 1872.62 1782.62 1872.04C1782.88 1869.68 1783.14 1867.32 1783.33 1864.95C1783.52 1862.54 1783.69 1860.13 1783.79 1857.71L1780.97 1847.07C1784.53 1833.87 1787.69 1820.76 1790.54 1807.7C1732.16 1803.95 1674.31 1800.29 1616.4 1790.93C1605.77 1789.21 1595.19 1787.26 1584.6 1785.3C1608.1 1826.43 1612.78 1874.32 1596.7 1919.21ZM1842.22 2177.23C1842.21 2177.35 1842.14 2177.44 1842.12 2177.56C1842.18 2177.94 1842.24 2178.29 1842.29 2178.67C1842.47 2179.81 1842.29 2180.85 1841.96 2181.85C1842.51 2185.9 1843.07 2189.94 1843.61 2193.98C1843.26 2182.08 1842.55 2170.15 1841.5 2158.19C1841.11 2158.73 1840.57 2159.1 1840.09 2159.52C1841.91 2164.96 1842.74 2170.87 1842.22 2177.23Z" /><path id="Path 11" class="shp5" d="M1525.36 1692.13C1553.51 1715.09 1592.85 1713.49 1626.62 1708.09C1676.67 1700.09 1735.42 1681.21 1781.66 1650.41C1785.09 1648.96 1788.46 1647.29 1791.8 1645.5C1746.06 1648.96 1700.17 1650.57 1654.24 1650.25C1622.99 1650.04 1591.75 1648.92 1560.57 1646.93C1540.25 1646.38 1520.27 1645.58 1500.74 1644.44C1500.58 1662.61 1511.25 1680.63 1525.36 1692.13ZM1865.1 2201.1C1865.1 2201.52 1862.86 2201.94 1862.87 2202.35C1862.87 2202.62 1862.78 2202.9 1862.74 2203.17L1865.1 2203.17C1865.1 2203.17 1865.1 2201.06 1865.1 2201.1Z" /><path id="Path 12" fill-rule="evenodd" class="shp5" d="M1776.51 1901.7C1776.51 1897.38 1778.89 1893.05 1779.69 1888.72C1780.39 1886.73 1781.24 1884.57 1781.29 1882.24C1781.75 1879.42 1782.13 1876.6 1782.48 1873.77C1782.55 1873.19 1782.61 1872.62 1782.67 1872.04C1782.94 1869.68 1783.17 1867.32 1783.36 1864.95C1783.55 1862.54 1783.71 1860.14 1783.81 1857.72C1783.84 1856.9 1783.9 1856.08 1783.92 1855.26C1784.37 1855.37 1784.78 1855.63 1785.09 1856.04C1790.33 1862.9 1790.42 1872.53 1791.93 1880.85C1792.67 1884.94 1793.86 1889.28 1794.57 1893.58C1801.78 1909.06 1806.07 1927.96 1810.69 1941.85C1820 1969.9 1828.07 1998.51 1834.87 2027.28C1840.93 2052.89 1845.69 2078.92 1849.54 2104.67C1849.56 2104.79 1849.59 2105.12 1849.61 2105.27C1849.66 2105.65 1849.71 2106.44 1849.76 2106.81C1853.65 2132.94 1857.16 2160.48 1860.33 2186.81C1860.43 2192.48 1862.19 2199.4 1862.19 2206.5L1862.74 2206.5C1862.41 2206.5 1860.63 2210.25 1860.56 2212.98C1860.46 2216.9 1861.29 2218.58 1862.72 2221.44C1862.7 2222 1862.68 2222.56 1862.66 2223.12C1861.26 2222.67 1859.87 2222.25 1858.47 2221.81C1836.05 2214.83 1813.13 2210.67 1789.91 2209.62C1777.29 2209.04 1764.57 2209.37 1751.81 2210.71C1749.73 2210.92 1747.67 2211.19 1745.63 2211.46C1741.39 2212.42 1737.09 2213.13 1732.74 2213.65C1725.66 2215.08 1718.75 2216.85 1711.94 2218.85C1705.12 2220.85 1698.41 2223.1 1691.72 2225.48C1696.96 2211.25 1702.19 2197 1707.43 2182.77C1714.48 2163.6 1725.1 2144 1725.25 2123.4C1725.25 2123.19 1725.1 2122.96 1724.91 2122.85C1724.71 2122.75 1724.48 2122.69 1724.31 2122.9C1712.81 2136.42 1708.56 2153.62 1702.33 2170.1C1694.81 2189.96 1687.25 2209.58 1679.76 2229.46C1678.9 2229.77 1678.04 2229.69 1677.18 2230C1676.86 2230.04 1676.53 2229.27 1676.21 2229.31C1675.89 2229.35 1675.56 2227.79 1675.24 2227.79C1675.23 2227.79 1675.21 2227.79 1675.2 2227.79C1675.56 2227.79 1677.07 2227.65 1677.07 2226.73L1677.07 2228.35C1698.38 2180.46 1712.37 2131.63 1728.2 2083.87C1743.34 2038.2 1752.27 1991.42 1765.39 1945.23C1769.5 1930.73 1776.51 1916.26 1776.51 1901.71C1776.51 1901.71 1776.51 1901.7 1776.51 1901.7ZM1840.09 2159.52C1841.91 2164.96 1842.74 2170.87 1842.22 2177.23C1842.21 2177.35 1842.14 2177.44 1842.12 2177.56C1842.18 2177.94 1842.24 2178.29 1842.29 2178.67C1842.47 2179.81 1842.29 2180.85 1841.96 2181.85C1842.51 2185.9 1843.07 2189.94 1843.61 2193.98C1843.26 2182.08 1842.55 2170.15 1841.5 2158.19C1841.11 2158.73 1840.57 2159.1 1840.09 2159.52Z" /><path id="Path 13" fill-rule="evenodd" class="shp3" d="M1711.09 1162.64C1725.66 1166.46 1740.69 1168.34 1755.71 1168.22C1747.9 1170.39 1740.2 1171.88 1732.64 1172.54C1692.37 1180.35 1655.74 1163.79 1620.93 1135.04C1659.13 1078.77 1690.54 1017.89 1714.04 954.11C1714.46 952.96 1714.86 951.8 1715.28 950.65C1736.94 912.31 1755.63 874.1 1769.29 838.34C1777.32 831.6 1784.78 824.6 1791.4 818.52C1793.52 816.57 1795.68 814.57 1797.84 812.54C1796.63 819.93 1795.18 827.28 1793.47 834.57C1790.24 848.29 1786.11 861.78 1781.15 874.96C1768.45 894.82 1752.24 912.53 1733.5 926.58C1733.13 933.99 1732.45 941.25 1732.04 947.88C1731.63 954.31 1731.06 960.71 1730.36 967.1C1729.24 969.04 1728.11 970.97 1727.05 972.94C1725.48 975.85 1726.61 978.7 1728.74 980.06C1726.88 993.4 1724.47 1006.67 1721.58 1019.84C1711.78 1064.54 1695.91 1107.79 1674.94 1148.44C1686.15 1154.4 1698.14 1159.24 1711.09 1162.64ZM1706.5 1003.94C1708.18 996.06 1709.71 988.15 1711.04 980.19C1709.89 985.9 1708.57 991.58 1707.17 997.25C1706.97 999.49 1706.75 1001.72 1706.5 1003.94ZM1671.86 1108.1C1669.64 1111.9 1667.28 1115.63 1664.86 1119.33C1663.59 1123.03 1662.3 1126.73 1661.01 1130.42C1664.79 1123.04 1668.43 1115.61 1671.86 1108.1ZM1609.49 1125.1C1607.21 1123.02 1604.93 1120.91 1602.66 1118.74C1621.98 1093.95 1641.37 1067.29 1660.01 1039.69C1644.89 1069.13 1628.02 1097.67 1609.49 1125.1ZM694.69 1074.78C697.82 1074.3 701.05 1073.89 704.34 1073.55C731.59 1070.68 763.8 1072.48 794.46 1079.28C802 1082.73 810.14 1085.2 818.28 1086.6L749.17 1132.83L749.43 1135.82C748.85 1135.55 748.27 1135.27 747.71 1135C734.31 1128.5 721.84 1120.56 710.38 1111.02C705.56 1107.01 697.74 1101.83 694.8 1096.05C691.45 1089.46 694.56 1091.88 693.24 1087.8C693.4 1088.29 692.66 1088.51 692.43 1088.1C691.54 1086.53 690.64 1084.95 689.75 1083.37C689.3 1082.59 690.13 1081.76 690.93 1081.97C691.31 1082.07 691.63 1082.22 692 1082.33C690.19 1079.66 690.78 1075.38 694.69 1074.78ZM697.61 1084.59C702.78 1087.22 707.01 1090.91 711.48 1094.76C711.83 1094.23 712.23 1093.75 712.7 1093.35C708.53 1090.7 704.55 1087.86 700.82 1084.78C699.75 1084.72 698.68 1084.65 697.61 1084.59Z" /><path id="Path 14" class="shp2" d="M2257.63 1240.82C2254.29 1227.97 2255.65 1213.76 2255.29 1200.54C2254.83 1184.1 2253.6 1167.39 2255.17 1150.99C2254.29 1151.37 2253.6 1152.08 2253.48 1153.09C2251.63 1168.37 2253.02 1183.98 2253.48 1199.33C2253.83 1211.22 2252.5 1224 2255.83 1235.56C2254.65 1235.58 2253.48 1235.61 2252.31 1235.65L2252.48 1240.97C2254.19 1240.91 2255.92 1240.86 2257.63 1240.82Z" /><path id="Path 15" fill-rule="evenodd" class="shp2" d="M3091.5 1160.31C3090.73 1163.19 3088.31 1164.41 3085.81 1164.44C3082.77 1178.58 3068.81 1189.21 3052.52 1191.77C3034.85 1194.54 3015.5 1190.29 2997.85 1188.39C2985.52 1187.07 2973.31 1185.79 2961.19 1184.07L2292.56 1238.44C2293.85 1237.37 2294.85 1236.05 2295.06 1234.53C2295.13 1234.2 2295.15 1233.86 2295.13 1233.52C2291.65 1187.69 2279.6 1138.58 2253.02 1098.37C2315.02 1104.71 2377.04 1111.05 2439.06 1117.4C2497.65 1101.41 2565.75 1102.88 2623.25 1108.04C2673.6 1112.57 2722.94 1123.02 2770.6 1138.91C2771.83 1139.19 2773.08 1139.47 2774.31 1139.75C2804.98 1146.58 2836.21 1152.65 2866.52 1161.1C2883.52 1162.84 2900.54 1164.58 2917.54 1166.32C2934.69 1158.86 2953.13 1153.75 2970.67 1147.87C2995.42 1139.57 3021.5 1127.82 3047.31 1123.63C3070.58 1119.85 3098.79 1133.06 3091.5 1160.31ZM3072 1157.6C3071.25 1161.06 3070.52 1164.53 3069.77 1167.99C3071.96 1165.33 3072.83 1161.92 3072 1157.6ZM3058.04 1174.44C3057.23 1173.85 3056.58 1173.08 3056.15 1172.18C3055.6 1171.97 3055.12 1171.7 3054.65 1171.36C3054.04 1172.74 3053.44 1174.13 3052.83 1175.51C3052.83 1175.53 3052.81 1175.56 3052.79 1175.58C3054.65 1175.27 3056.4 1174.89 3058.04 1174.44ZM2760.29 1150.24C2760.25 1150.23 2760.21 1150.21 2760.17 1150.2C2760.17 1150.21 2760.17 1150.22 2760.17 1150.23C2760.21 1150.23 2760.25 1150.24 2760.29 1150.24ZM2440.13 1152.93C2433.79 1150.96 2428.75 1154.25 2423.23 1157.12C2416.75 1160.47 2410.37 1163.92 2404.25 1167.91C2398.6 1171.59 2402.88 1179.35 2409.06 1177.03C2415.9 1174.46 2422.48 1171.36 2429.04 1168.13C2434.56 1165.4 2440.1 1163.28 2442.25 1157.07C2442.83 1155.41 2441.81 1153.45 2440.13 1152.93ZM3074.56 1140.26C3072.83 1138.62 3070.75 1137.44 3068.35 1136.67C3068.54 1137.51 3068.5 1138.39 3068.29 1139.28C3069.54 1139.49 3070.73 1140.02 3071.71 1140.83C3072.65 1140.64 3073.58 1140.45 3074.52 1140.26C3074.54 1140.26 3074.56 1140.26 3074.56 1140.26ZM2267.79 1239.95C2269.17 1240.01 2270.54 1240.07 2271.92 1240.12L2267.69 1240.46C2267.71 1240.29 2267.77 1240.12 2267.79 1239.95ZM2251.92 1223.78L2251.88 1222.64C2251.92 1222.84 2251.96 1223.05 2252 1223.26C2252.02 1223.44 2252.1 1223.59 2252.15 1223.76C2252.06 1223.77 2252 1223.78 2251.92 1223.78Z" /><path id="Path 16" class="shp3" d="M2440.13 1152.93C2433.79 1150.96 2428.75 1154.25 2423.23 1157.12C2416.75 1160.47 2410.37 1163.92 2404.25 1167.91C2398.6 1171.59 2402.88 1179.35 2409.06 1177.03C2415.9 1174.46 2422.48 1171.36 2429.04 1168.13C2434.56 1165.4 2440.1 1163.28 2442.25 1157.07C2442.83 1155.41 2441.81 1153.45 2440.13 1152.93ZM2295.06 1234.53C2295.13 1234.2 2295.15 1233.86 2295.13 1233.52C2291.65 1187.69 2279.6 1138.58 2253.02 1098.37C2251.27 1095.72 2249.44 1093.1 2247.56 1090.53L2251.58 1213.94L2251.88 1222.64C2251.92 1222.84 2251.96 1223.05 2252 1223.26C2252.02 1223.44 2252.1 1223.59 2252.15 1223.76C2252.06 1223.77 2252 1223.78 2251.92 1223.78L2252.04 1227.85L2252.31 1235.65C2253.48 1235.61 2254.65 1235.58 2255.83 1235.56C2252.5 1224 2253.83 1211.22 2253.48 1199.33C2253.02 1183.98 2251.63 1168.37 2253.48 1153.09C2253.6 1152.08 2254.29 1151.37 2255.17 1150.99C2255.23 1150.37 2255.21 1149.74 2255.29 1149.12C2255.62 1146.04 2260.31 1145.31 2260.92 1148.61C2263.9 1164.62 2263.92 1181.06 2264.69 1197.29C2265.33 1211.15 2269.71 1226.13 2267.79 1239.95C2269.17 1240.01 2270.54 1240.07 2271.92 1240.12C2276.77 1240.26 2281.65 1240.38 2286.46 1240.64C2288.6 1240.75 2290.85 1239.84 2292.56 1238.44C2293.85 1237.37 2294.85 1236.05 2295.06 1234.53Z" /><path id="Path 17" fill-rule="evenodd" class="shp6" d="M2002.86 1274.11C2004.08 1274.1 2005.29 1274.07 2006.51 1274.05L2029.56 1623.13L1916.31 1631.41C1949.58 1626.41 1982.71 1620.48 2015.65 1613.56C2024.64 1611.67 2021.49 1597.73 2012.47 1599.63C1893.24 1624.79 1771.72 1637.34 1649.84 1636.25C1591.18 1635.72 1532.52 1632.23 1474.23 1625.65C1414.47 1618.9 1355.39 1604.69 1295.69 1598.87C1292.11 1598.52 1291.39 1603.78 1294.59 1604.93C1349.19 1624.48 1411.28 1631.59 1468.64 1638.48C1499.2 1642.15 1529.86 1644.96 1560.57 1646.93C1540.25 1646.38 1520.27 1645.58 1500.74 1644.44C1500.61 1644.43 1500.47 1644.42 1500.34 1644.41C1420.91 1639.76 1348.91 1629.59 1291.56 1608.54L1320.85 1404.11C1381.92 1373.09 1438.37 1331.58 1485.64 1289.53C1536.9 1243.92 1582.38 1191.83 1620.93 1135.04C1655.74 1163.79 1692.37 1180.35 1732.64 1172.54C1740.2 1171.88 1747.9 1170.39 1755.71 1168.22C1805.98 1154.23 1861.09 1110.47 1918.06 1055.28C1938.33 1053.24 1958.76 1051.84 1979.34 1051.02C2066.21 1047.53 2155.73 1054.33 2246.79 1067.14L2247.08 1076.14L2247.56 1090.53L2251.58 1213.94L2251.88 1222.64L2251.92 1223.78L2252.04 1227.85L2252.31 1235.65L2252.48 1240.97C2213.13 1242.18 2173.56 1247.68 2134.42 1251.3C2090.46 1255.36 2045.54 1257.29 2002 1264.55C1996.65 1265.44 1997.39 1274.16 2002.86 1274.11ZM1790.65 1296.43C1779.38 1275.55 1753.36 1273.08 1733.83 1283.61C1713.91 1294.36 1706.82 1313.57 1703.58 1334.05C1697.64 1312.22 1685.87 1291.21 1664.04 1283.29C1644.21 1276.1 1620.28 1281.7 1611.79 1302.51C1599.5 1332.64 1626.81 1368.71 1642.06 1392.4C1656.12 1414.25 1677.16 1452.68 1708.84 1447.19C1737.41 1442.23 1753.93 1400.67 1767.28 1379.61C1782.02 1356.37 1806.17 1325.19 1790.65 1296.43ZM1323.29 1387.11L1325.94 1368.62C1336.39 1363.7 1346.86 1358.66 1357.34 1353.48C1415.06 1312.61 1493.21 1249.57 1570.22 1158.72C1580.91 1146.11 1591.77 1132.72 1602.66 1118.74C1604.93 1120.91 1607.21 1123.02 1609.49 1125.1C1594.79 1146.86 1579.05 1167.93 1562.37 1188.2C1499.34 1264.79 1416.4 1338.25 1323.29 1387.11Z" /><path id="Path 18" fill-rule="evenodd" class="shp1" d="M1485.64 1289.53C1438.37 1331.58 1381.92 1373.09 1320.85 1404.11C1251.71 1439.25 1176.62 1460.95 1102.21 1454.8C1066.56 1474.03 1028.6 1489.1 989.37 1499.2C948.6 1509.7 900.48 1520.01 858.76 1509.59C852.89 1508.13 846.7 1505.79 840.64 1502.7C840.03 1502.74 839.42 1502.79 838.81 1502.83L837.34 1500.94C819.66 1491.03 803.93 1474.82 802.14 1455.59L796.17 1447.89L889.46 1377.77L770.34 1372.48L750.46 1147.41L749.43 1135.82L749.17 1132.83L818.28 1086.6C810.14 1085.2 802 1082.73 794.46 1079.28C781.07 1073.16 769.59 1063.95 763.32 1052.23L758.11 1051.01L725.46 890.42C907.21 909.91 1084.2 884.73 1256.56 815.9C1383.21 719.09 1512.83 652.39 1648.6 647.67C1720.51 637.08 1754.19 651.28 1771.34 668.15C1772.39 667.72 1773.38 667.33 1774.41 667C1781.14 662.75 1786.7 662.64 1791.49 665.52C1804.53 667.66 1814.85 677.32 1821.48 689.77C1833.96 704 1840.43 724.54 1840.43 741.43C1840.43 741.43 1840.43 741.44 1840.43 741.44C1840.43 741.45 1840.43 741.46 1840.43 741.47C1840.43 742.69 1840.7 743.85 1840.57 745.02C1840.5 745.69 1840.95 746.38 1840.85 747.02C1837.99 764.65 1828.18 780.03 1816.29 793.67C1813.03 835.25 1801.26 884.97 1778.89 925.7C1778.41 926.58 1778 927.51 1777.5 928.39C1771.02 939.83 1763.68 950.5 1755.42 960.02C1749.13 967.27 1742.33 973.88 1734.95 979.62C1732.83 981.27 1730.46 981.15 1728.74 980.06C1726.61 978.7 1725.48 975.85 1727.05 972.94C1728.11 970.97 1729.24 969.04 1730.36 967.1C1735.94 957.46 1742.09 948.17 1748.18 938.84C1750.42 935.4 1752.64 931.95 1754.82 928.48C1759.01 921.8 1763.05 915.02 1766.65 907.95C1772.1 897.23 1776.92 886.21 1781.15 874.96C1786.11 861.78 1790.24 848.29 1793.47 834.57C1795.18 827.28 1796.63 819.93 1797.84 812.54C1795.68 814.57 1793.52 816.57 1791.4 818.52C1784.78 824.6 1777.32 831.6 1769.29 838.34C1755.63 874.1 1736.94 912.31 1715.28 950.65C1714.86 951.8 1714.46 952.96 1714.04 954.11C1690.54 1017.89 1659.13 1078.77 1620.93 1135.04C1582.38 1191.83 1536.9 1243.92 1485.64 1289.53ZM1010.39 1478.41C963.85 1488.58 917.62 1495.89 871.72 1500.22C888.73 1502.35 906.38 1500.53 923.1 1498.32C952.74 1494.4 981.96 1487.64 1010.39 1478.41ZM842.11 1070.66L783.36 1056.92C789.23 1061.16 795.44 1065 802.68 1067.87C815.04 1072.77 826.56 1073.45 838.63 1072.98L842.11 1070.66ZM1781.8 681.59C1781.94 681.83 1782.08 682.07 1782.22 682.31C1782.32 682.18 1782.41 682.03 1782.52 681.91C1782.29 681.81 1782.04 681.69 1781.8 681.59ZM1323.29 1387.11C1416.4 1338.25 1499.34 1264.79 1562.37 1188.2C1579.05 1167.93 1594.79 1146.86 1609.49 1125.1C1628.02 1097.67 1644.89 1069.13 1660.01 1039.69C1641.37 1067.29 1621.98 1093.95 1602.66 1118.74C1591.77 1132.72 1580.91 1146.11 1570.22 1158.72C1493.21 1249.57 1415.06 1312.61 1357.34 1353.48C1346.86 1358.66 1336.39 1363.7 1325.94 1368.62C1261.17 1399.12 1196.93 1424.7 1133.25 1445.17C1199.09 1439.85 1263.3 1418.59 1323.29 1387.11ZM1831.69 816.69C1831.73 815.53 1832.26 814.36 1833.38 813.61C1836.49 811.51 1840.13 811.41 1843.74 810.93C1844.49 810.82 1845.25 810.73 1846 810.63C1848.92 810.24 1851.84 809.86 1854.77 809.63C1860.09 809.2 1860.74 818.05 1855.61 818.89C1851.82 819.5 1848 819.84 1844.19 820.25C1843.94 820.28 1843.7 820.31 1843.45 820.34C1843.31 820.35 1843.19 820.37 1843.05 820.38C1839.93 820.75 1837.01 821.13 1833.93 819.99C1832.31 819.39 1831.64 818.05 1831.69 816.69ZM2015.65 1613.56C1982.71 1620.48 1949.58 1626.41 1916.31 1631.41C1881.43 1636.64 1846.41 1640.83 1811.27 1643.9C1804.79 1644.47 1798.3 1645 1791.8 1645.5C1746.06 1648.96 1700.17 1650.57 1654.24 1650.25C1622.99 1650.04 1591.75 1648.92 1560.57 1646.93C1529.86 1644.96 1499.2 1642.15 1468.64 1638.48C1411.28 1631.59 1349.19 1624.48 1294.59 1604.93C1291.39 1603.78 1292.11 1598.52 1295.69 1598.87C1355.39 1604.69 1414.47 1618.9 1474.23 1625.65C1532.52 1632.23 1591.18 1635.72 1649.84 1636.25C1771.72 1637.34 1893.24 1624.79 2012.47 1599.63C2021.49 1597.73 2024.64 1611.67 2015.65 1613.56ZM2267.5 1239.95C2267.48 1240.12 2267.15 1240.29 2267.1 1240.46C2266.85 1242.15 2265.98 1243.83 2265.52 1245.48C2265.5 1245.57 2266.58 1245.66 2266.58 1245.74C2266.58 1245.75 2266.58 1245.76 2266.58 1245.77C2266.58 1248.91 2264.69 1252.46 2260.96 1253.04C2220.06 1259.45 2176.83 1260.84 2135.58 1264.23C2092.79 1267.74 2049.46 1273.38 2006.51 1274.05C2005.29 1274.07 2004.08 1274.1 2002.86 1274.11C1997.39 1274.16 1996.65 1265.44 2002 1264.55C2045.54 1257.29 2090.46 1255.36 2134.42 1251.3C2173.56 1247.68 2213.13 1242.18 2252.48 1240.97C2254.19 1240.91 2255.92 1240.86 2257.63 1240.82C2254.29 1227.97 2255.65 1213.76 2255.29 1200.54C2254.83 1184.1 2253.6 1167.39 2255.17 1150.99C2255.23 1150.37 2255.21 1149.74 2255.29 1149.12C2255.62 1146.04 2260.31 1145.31 2260.92 1148.61C2263.9 1164.62 2263.92 1181.06 2264.69 1197.29C2265.33 1211.15 2269.42 1226.13 2267.5 1239.95ZM1349.56 2140.35C1322.32 2101.13 1309.37 2047.26 1310.36 2004.2C1311.79 1941.55 1339.76 1878.07 1391.16 1841.37C1392.44 1840.46 1393.72 1839.55 1395.02 1838.68C1395.53 1838.33 1395.92 1839.1 1395.59 1839.48C1382.82 1854.16 1371.02 1869.68 1360.8 1886.02C1356.26 1893.28 1352.04 1900.71 1348.18 1908.3C1334.55 1935.1 1325.52 1963.92 1323.48 1994.71C1323.26 1998.04 1323.11 2001.39 1323.06 2004.77C1322.74 2024.7 1325.3 2044.71 1330.44 2064.01C1333.46 2075.32 1337.36 2086.37 1342.12 2097.04C1354.61 2125.08 1374.43 2145.37 1391.94 2169.75C1394.85 2173.81 1390.72 2179.9 1385.97 2176.81C1371.83 2167.58 1359.71 2154.98 1349.56 2140.35ZM1411.86 1822.02C1411.23 1822.3 1410.61 1822.31 1410.05 1822.19C1408.14 1821.74 1407 1819.33 1408.75 1817.59C1412.55 1813.79 1416.54 1810.57 1420.99 1807.55C1424.43 1805.21 1428.85 1801 1433.24 1802.48C1434.22 1802.81 1434.93 1803.79 1434.87 1804.83C1434.86 1804.98 1434.81 1805.11 1434.79 1805.25C1434.26 1809.46 1429.48 1811.78 1426.23 1813.99C1421.61 1817.14 1417 1819.8 1411.86 1822.02ZM1724.31 2123C1724.48 2122.79 1724.71 2122.79 1724.91 2122.9C1725.1 2123 1725.25 2123.21 1725.25 2123.44C1725.1 2144.02 1714.48 2163.63 1707.43 2182.79C1702.19 2197.02 1696.96 2211.25 1691.72 2225.48C1688.64 2233.83 1685.57 2242.17 1682.47 2250.5C1667.01 2292.04 1654.36 2336.98 1632.8 2375.79C1631.8 2377.6 1629.76 2376.9 1629.03 2375.48C1628.78 2375 1628.68 2374.46 1628.8 2373.9C1628.86 2373.58 1628.96 2373.27 1629.03 2372.96C1631.47 2361.54 1634.61 2350.17 1638.23 2338.85C1641.49 2328.65 1645.14 2318.48 1648.97 2308.35C1657.98 2284.56 1668.03 2261.02 1676.75 2237.83C1677.75 2235.17 1678.76 2232.52 1679.76 2229.88C1687.26 2210 1694.81 2190.17 1702.33 2170.31C1708.56 2153.83 1712.81 2136.52 1724.31 2123Z" /><path id="Path 19" class="shp7" d="M1538.85 1762.07C1521.94 1758.4 1501.48 1749.29 1482.93 1748.5C1477.53 1748.27 1472.3 1748.73 1467.36 1750.25C1466.57 1750.49 1466.19 1751.44 1466.79 1752.09C1470.52 1756.22 1475.3 1759.42 1480.67 1761.98C1496.95 1769.72 1518.8 1771.56 1534.61 1775.14C1543.84 1777.23 1553.12 1779.07 1562.39 1780.95C1564.88 1779.7 1567.42 1778.51 1570.02 1777.41C1572.4 1776.42 1574.52 1777.39 1575.8 1778.97C1578.04 1778.22 1580.7 1778.65 1582.26 1781.22C1583.08 1782.56 1583.82 1783.94 1584.6 1785.3C1595.19 1787.26 1605.77 1789.21 1616.4 1790.93C1674.31 1800.29 1732.16 1803.95 1790.54 1807.7C1793.26 1807.87 1795.98 1808.05 1798.7 1808.22C1808.8 1808.87 1809.45 1792.48 1799.4 1792.59C1797.49 1792.61 1795.59 1792.61 1793.69 1792.61C1738.14 1792.8 1681.91 1786.54 1627.09 1778.32C1597.51 1773.89 1568.08 1768.42 1538.85 1762.07ZM1733.83 1283.61C1713.91 1294.36 1706.82 1313.57 1703.58 1334.05C1697.64 1312.22 1685.87 1291.21 1664.04 1283.29C1644.21 1276.1 1620.28 1281.7 1611.79 1302.51C1599.5 1332.64 1626.81 1368.71 1642.06 1392.4C1656.12 1414.25 1677.16 1452.68 1708.84 1447.19C1737.41 1442.23 1753.93 1400.67 1767.28 1379.61C1782.02 1356.37 1806.17 1325.19 1790.65 1296.43C1779.38 1275.55 1753.36 1273.08 1733.83 1283.61Z" /><path id="Path 20" class="shp3" d="M1530.83 2661.69C1531.01 2660.29 1529.79 2658.46 1528.38 2658.17C1527.17 2657.92 1525.98 2657.85 1524.83 2657.96C1519.5 2658.42 1514.8 2662.17 1510.4 2665.27C1503.55 2670.1 1496.79 2675.06 1489.98 2679.96C1483.98 2684.29 1491.36 2694.94 1497.49 2690.65C1502.63 2687.06 1507.79 2683.48 1512.92 2679.9C1514.65 2678.69 1516.39 2677.48 1518.12 2676.25C1523.41 2672.48 1529.92 2668.56 1530.83 2661.69ZM1912.73 2677.65C1920.44 2676.92 1924.56 2666.77 1928.43 2661.1C1932.61 2654.98 1939.83 2647.77 1938.46 2639.94C1938.13 2637.98 1935.93 2636.75 1934.08 2637.17C1926.47 2638.94 1922.52 2648.67 1918.61 2654.75C1914.87 2660.58 1907.21 2668.25 1909.6 2675.69C1910.08 2677.17 1911.21 2677.79 1912.73 2677.65Z" /><path id="Path 21" fill-rule="evenodd" class="shp7" d="M1582.26 1781.22C1583.08 1782.56 1583.82 1783.94 1584.6 1785.3C1608.1 1826.43 1612.78 1874.32 1596.7 1919.21C1595.1 1923.67 1588.19 1925.03 1585.97 1920.23C1572.26 1890.69 1562.55 1852.04 1569.33 1818.27C1555.45 1844.72 1532.23 1865.21 1503.39 1876.18C1499 1877.85 1496.31 1872.74 1496.93 1869.26C1503.73 1830.93 1527.9 1798.3 1562.39 1780.95C1564.88 1779.7 1567.42 1778.51 1570.02 1777.41C1572.4 1776.42 1574.52 1777.39 1575.8 1778.97C1578.04 1778.22 1580.7 1778.65 1582.26 1781.22ZM1569.44 1788.25C1539.85 1803.67 1518.62 1829.77 1509.83 1861.69C1539.7 1847.3 1561.15 1820.51 1569.44 1788.25ZM1582.54 1805.59C1581.16 1839.08 1579.16 1868.18 1590.22 1899.89C1598.04 1867.87 1595.49 1835.65 1582.54 1805.59Z" /></g></svg>