<svg xmlns="http://www.w3.org/2000/svg" viewBox="0 0 3415 4167" width="3415" height="4167"><defs><clipPath clipPathUnits="userSpaceOnUse" id="cp1"><path d="M0 0L3415 0L3415 4167L0 4167Z" /></clipPath></defs><style>tspan { white-space:pre }.shp0 { fill: #95d3ca } .shp1 { fill: #40b3b8 } .shp2 { fill: #ffffff } .shp3 { fill: #ffbdb8 } .shp4 { fill: #e2807d } .shp5 { fill: #403d33 } </style><g id="Page 1" clip-path="url(#cp1)"><path id="Path 2" fill-rule="evenodd" class="shp0" d="M2900.13 2601.71C2911.06 2621.17 2918.44 2642.71 2921.79 2663.02C2922.5 2667.31 2923.04 2671.85 2923.44 2676.54C2926.96 2682.9 2930 2689.5 2932.35 2696.46L2924.17 2690C2924.48 2704.19 2923.42 2719.4 2920.75 2734.44C2921.02 2734.48 2921.31 2734.5 2921.58 2734.54C2921.96 2734.56 2922.33 2734.6 2922.71 2734.65C2926.88 2738.5 2931.15 2742.27 2935.56 2745.98C2941.81 2751.27 2953.46 2754.73 2954.33 2762.15C2957.77 2791.52 2952.94 2823.15 2982.44 2843.42C2982.9 2843.71 2983.25 2844.94 2983.02 2845.33C2968.69 2868.48 2994.02 2862.63 3003.23 2869.63C2992.15 2875.46 2982.65 2873.5 2973.23 2872.1C2963.21 2870.6 2956.98 2873.21 2957.56 2884.9C2959.87 2930.4 2936.15 2969.06 2923.1 3010.4C2920.9 3017.4 2919.79 3038.77 2905.5 3031.96C2889.6 3024.4 2912.58 3016.37 2911.33 3006.46C2910.73 3001.65 2915.65 2996.12 2911.08 2991.67C2909.58 2990.21 2904.56 2990.1 2902.85 2991.48C2890.83 3001.23 2875.44 3005.77 2865.77 3019.71C2856 3033.79 2847.08 3053.1 2822.62 3042.9C2814.06 3039.31 2809.77 3048.75 2804.17 3053.29C2790.08 3064.71 2775.79 3075.5 2755.87 3071.54C2766.12 3064.1 2777.77 3059.4 2788.06 3052.62C2807.25 3040.06 2806.81 3036.92 2786.96 3025.35C2790.21 3015.19 2803.58 3014.94 2806.52 3002.4C2811.17 2982.71 2820.96 2964.71 2843.71 2958.83C2848.92 2957.5 2852.52 2952.69 2853.21 2947.12C2853.96 2941.08 2850.06 2937.27 2844.9 2935.06C2841.58 2933.65 2834.92 2933.04 2834.92 2932.06C2834.83 2922.27 2830.9 2916.65 2821.63 2922.04C2813.38 2926.85 2803.77 2935 2808.94 2945.67C2814.38 2956.88 2807.75 2962.23 2802.56 2968.69C2780.52 2996.17 2749.37 3011.23 2719.9 3028.54C2717.85 3019.21 2721.63 3013.15 2730.48 3009.46C2743.96 3003.83 2753.13 2992.48 2764.29 2983.83C2780.23 2971.52 2776.33 2962.04 2764.13 2951.69C2751.52 2941 2746.5 2928.9 2752.06 2912.35C2760.87 2886.23 2777.23 2864.67 2775.81 2832.27C2774.77 2808.71 2770.4 2785.88 2767.42 2762.96C2765.94 2751.65 2761.37 2733.4 2741.12 2748.56C2734.19 2753.77 2732.77 2745.35 2731.02 2740.98C2727.15 2731.31 2721.21 2724.25 2710.65 2721.69C2694.77 2717.83 2703.58 2737.44 2691.98 2740.33C2687.42 2727.48 2675.46 2717.5 2665.69 2727.46C2653.92 2739.46 2674.62 2746.1 2678.83 2756.98C2672.54 2759.94 2662.52 2753.69 2660.17 2764.19C2659.33 2767.9 2662.6 2769.48 2665.73 2769.71C2675.88 2770.5 2681.15 2776.77 2681.15 2785.92C2681.15 2798.81 2669.88 2791.52 2664.04 2794.17C2656.02 2797.79 2654.85 2805.5 2654.19 2813.02C2653.87 2816.42 2656.44 2818.33 2659.96 2818.44C2671.54 2818.75 2694.4 2796.92 2693.94 2785.02C2693.58 2775.56 2691.67 2766.17 2690.19 2754.75C2699.79 2757.73 2711.02 2749.52 2717.77 2762.56C2704.96 2767.23 2700.81 2770.52 2700.19 2776.04C2698.96 2786.67 2709.58 2789.5 2714.6 2794.21C2730.85 2809.4 2731.81 2808.35 2725.15 2829.96C2717.08 2824.92 2721.4 2814.44 2715.87 2808.27C2703.15 2820.35 2697.29 2829.69 2720.44 2837.13C2732.52 2841.02 2729.42 2857.15 2722.44 2860.06C2707.25 2866.42 2696.44 2879 2681.48 2884.75C2674.94 2887.25 2670.31 2890.19 2673.37 2897.73C2675.83 2903.79 2677.63 2911.35 2687.08 2909.67C2692.19 2908.75 2697.65 2906.65 2700.67 2915.46C2693.94 2919.58 2686.65 2925.65 2678.6 2923.27C2658.88 2917.46 2655.29 2935.65 2645.15 2943.92C2642.75 2945.87 2642.08 2949.42 2644.96 2951.87C2647.65 2954.17 2651.25 2953.52 2653.06 2951.15C2665.02 2935.48 2668.5 2947.79 2671.48 2959.71C2683.46 2945.69 2691.83 2930.23 2711.17 2946.31C2715.79 2950.15 2729.65 2944.15 2727.02 2957.6C2724.5 2970.56 2714.1 2969.33 2703.58 2966.94C2686.81 2963.1 2677.81 2972.69 2677.67 2990.65C2677.58 3002.96 2681.23 3017.69 2658.67 3018.35C2643.19 3018.79 2637.52 3037.04 2643.83 3054.52C2638.17 3056.1 2632.08 3056.88 2626.9 3059.44C2600.56 3072.44 2580.1 3101.04 2544.81 3089.9C2526.79 3110.62 2510.94 3088.44 2501.1 3082.1C2487.6 3073.46 2478.79 3075.02 2466.4 3078.46C2454.54 3081.75 2439.85 3076.62 2431.6 3090.06C2419.52 3109.75 2404.48 3071.33 2392.48 3092.15C2392.44 3092.19 2388.15 3090.71 2387.54 3089.25C2386.44 3086.6 2386.65 3083.42 2386.27 3080.46C2386.17 3079.46 2386.29 3078.44 2386.5 3077.4C2380.5 3077.92 2374.62 3078.46 2368.94 3079.31C2366.25 3086.79 2365.15 3096.15 2360.15 3104.29C2358.88 3089.85 2354.46 3084.4 2349 3084.44C2339.35 3088.35 2330.87 3094.65 2324.17 3105.21C2313.21 3122.52 2302.17 3141.29 2277.48 3152.62C2245.29 3167.44 2210.92 3178.31 2176.56 3192.17C2183.02 3198.35 2188.6 3198.83 2194.21 3197.94C2242.31 3190.21 2291.9 3190.1 2340.6 3185.27C2384.56 3180.9 2427.21 3165.27 2473.81 3176.46C2477.79 3177.42 2483.69 3173.63 2485.48 3179.6C2486.85 3184.15 2482.38 3186.23 2478.48 3188.6C2454.37 3203.27 2426.44 3212.92 2401.21 3226.29C2372.48 3241.54 2336.21 3243.94 2303.75 3252.96C2261.08 3264.79 2216.81 3273.21 2172.79 3279C2062.55 3293.46 1950.15 3297.52 1837.54 3296.31C1784.82 3295.75 1732.41 3299.42 1679.72 3296.9C1641.18 3295.06 1602.3 3292.29 1564.05 3291.98C1547.44 3291.48 1530.8 3290.75 1514.15 3289.83C1490.35 3287.13 1467.44 3282.04 1444.13 3275.92C1407.26 3266.25 1371.23 3252.98 1331.83 3253.27C1291.27 3253.58 1253.51 3244.15 1219.13 3225.23C1201.56 3215.56 1172.76 3208.06 1167.47 3197.67C1153.45 3170.1 1128.58 3182.23 1108.87 3177.04C1105.1 3176.04 1100.97 3176.15 1097.08 3175.44C1054.84 3167.75 1011.93 3168.77 969.28 3162.94C923.27 3156.65 878.66 3153.12 837.01 3131C807.6 3115.37 782.87 3094.02 750.27 3082.5C746.66 3081.21 743.45 3078.71 740.61 3076.31C737.11 3073.38 734.2 3069.83 737.32 3065.79C739.94 3062.4 743.89 3063.58 747.96 3064.56C786.05 3073.81 825.16 3075.94 863.91 3080.96C935.75 3090.25 1007.86 3095.42 1079.87 3101C1093.94 3102.08 1108.02 3103.04 1122.09 3103.9C1143.52 3110.06 1165.1 3115.71 1186.67 3121.1C1242.17 3134.98 1298.43 3146.23 1354.84 3155.67C1395.61 3162.48 1436.56 3168.17 1477.63 3172.75C1468.14 3173.88 1458.79 3175.92 1449.83 3180.17C1472.38 3180.52 1494.93 3180.94 1517.48 3181.21C1521.1 3181.25 1524.85 3180.73 1525.17 3177.58C1673.44 3191.04 1822.96 3190.06 1971.1 3174.42C2057.99 3165.23 2145.75 3152.33 2228.42 3123.04C2305.15 3095.85 2377.98 3054.48 2427.71 2988.63C2428.65 2987.38 2426.77 2985.75 2425.67 2986.83C2396.33 3016.19 2363.52 3040.67 2328.31 3061.02C2327.9 3058.44 2327.25 3055.83 2326.13 3053.31C2322.94 3053.52 2319.54 3054.48 2315.75 3056.92C2320.06 3058.73 2323.6 3060.44 2326.96 3061.81C2283.35 3086.88 2236.06 3105.69 2187.1 3119.65C2102.08 3143.88 2013.42 3154.63 1925.54 3161.98C1823.63 3170.48 1721.07 3171.96 1618.95 3166.79C1518.85 3161.75 1419.09 3150.15 1320.5 3132.06C1282.13 3125.02 1244.02 3116.81 1206.05 3107.94C1265.14 3110.04 1324.24 3110.75 1383.29 3111C1415.2 3111.13 1447.41 3113.56 1485.61 3109.31C1442.94 3098.25 1404.85 3101.44 1367.6 3089.6C1391.92 3063.65 1432.68 3098.02 1457.9 3075.04C1447.14 3070.19 1436.12 3075.92 1425.98 3068.02C1433.82 3067.65 1439.36 3067.54 1444.84 3067.08C1453.03 3066.42 1464.38 3068.77 1461.42 3056.6C1459.14 3047.23 1454.41 3040.46 1440.55 3041.48C1431.84 3042.1 1422.94 3041.98 1414.13 3041.56C1409.42 3041.33 1401.8 3046.12 1400.46 3038.42C1399.45 3032.56 1406.88 3031.94 1412.3 3031.44C1421.77 3030.58 1431.31 3029.9 1440.88 3029.79C1449.3 3029.69 1454.79 3027.77 1454.59 3020C1454.37 3011.23 1459.24 3007.94 1465.61 3006.81C1480.88 3007.54 1496.16 3008.17 1511.43 3008.56C1540.89 3010.56 1570.33 3012.88 1599.79 3015.02C1607.49 3015.58 1619.04 3019.15 1620.06 3010.85C1620.15 3010.06 1620.14 3009.4 1620.08 3008.75C1680.01 3007.4 1739.84 3003.67 1799.52 2997.71C1838.17 2993.85 1876.73 2989.44 1914.93 2982.31C1933.67 2978.83 1952.37 2975.13 1971.05 2971.27C1988.56 2967.69 2006.26 2964.87 2022.8 2957.98C2024.13 2957.44 2023.61 2955.38 2022.26 2955.31C2001.53 2954.19 1980.67 2958.02 1960.04 2959.98C1938.3 2962.02 1916.52 2963.65 1894.73 2965C1852.5 2967.6 1810.42 2971.85 1768.13 2973.85C1616.48 2981.02 1463.57 2976.25 1312.78 2958.48C1237.75 2949.65 1163.27 2937.13 1089.28 2921.87C1052.53 2914.31 1015.96 2905.9 979.59 2896.67C963.36 2892.54 947.09 2887.67 930.68 2883.52C953.41 2884.02 976.14 2884.52 998.86 2885.1C1015.35 2885.54 1031.83 2885.92 1048.31 2886.31C1223.52 2940.67 1410.09 2957.08 1592.96 2946.94C1706.84 2940.62 1819.79 2924.56 1931.69 2902.94C1955.71 2905.77 1980.89 2908.17 2003.31 2897.71C2009.89 2894.65 2016.73 2889.94 2016.67 2885.46C2082.04 2871.23 2147 2855.23 2211.75 2838.42C2246.21 2829.48 2280.5 2819.92 2314.77 2810.27C2316.85 2809.67 2318.96 2809.08 2321.04 2808.5C2371.94 2805.42 2423.12 2793.79 2466.08 2780.94C2515.46 2766.15 2562.9 2746.15 2607.13 2719.58C2613.02 2716.04 2619.56 2712.19 2626.38 2708.02C2626.92 2709.29 2627.98 2710.4 2629.56 2711.08C2645.96 2718.23 2667.83 2710.46 2684.46 2706.9C2700.4 2703.48 2716.17 2699.56 2731.79 2695.04C2727.06 2693.85 2722.33 2692.69 2717.6 2691.5C2729.06 2688.02 2739.96 2684.4 2749.69 2681.4C2787.15 2669.85 2823 2655.29 2857.69 2637.52L2858.5 2638.17C2860.08 2637.04 2861.65 2635.85 2863.19 2634.71C2867.79 2632.29 2872.37 2629.85 2876.92 2627.33C2880.31 2625.44 2881.77 2622.5 2881.85 2619.56C2888.23 2613.9 2894.31 2607.94 2900.13 2601.71ZM2746 2698.56C2745.42 2697.17 2744.81 2695.79 2744.23 2694.42C2743.85 2695.13 2743.48 2695.81 2743.1 2696.52C2742.87 2696.94 2742.65 2697.29 2742.42 2697.67C2743.6 2697.96 2744.79 2698.25 2746 2698.56ZM2666.92 2835.31C2667.02 2843.35 2670.54 2849.56 2677.71 2850.6C2687.44 2852 2689.44 2842.6 2691.25 2836.19C2693.29 2828.92 2688.27 2822.29 2681.27 2821.52C2672.35 2820.56 2670.19 2829.4 2666.92 2835.31ZM2636.17 2753.1C2619.6 2764.77 2601.33 2774.88 2584.19 2785.79C2568.69 2795.69 2553.29 2805.69 2537.31 2814.79C2478.35 2848.46 2414.52 2874.08 2348.65 2890.48C2315.87 2898.65 2282.6 2904.21 2249.08 2908.27C2243 2909.02 2236.9 2909.62 2230.81 2910.19C2228.04 2903.48 2225.48 2896.81 2223.62 2890.19C2210.1 2890.21 2196.58 2890.04 2183.04 2889.9C2138.67 2889.4 2094.19 2886.23 2049.76 2884.31C2032.81 2883.58 2032.07 2896.92 2025.14 2904.44C2022.07 2907.77 2028.34 2913 2032.96 2912C2056.66 2906.81 2077.73 2921.33 2100.79 2919.94C2114.52 2919.1 2126.19 2923.21 2133.52 2933.48C2140.46 2943.17 2149.04 2947.04 2163.29 2946.48C2175.96 2945.96 2190.02 2947.83 2178.94 2964.56C2172.27 2974.58 2179.5 2982.42 2195.1 2981.54C2201.42 2981.21 2207.46 2979.25 2213.75 2978.67C2221.79 2977.94 2234.15 2973.69 2236.17 2982.6C2238.4 2992.54 2225.94 2995.83 2214.98 2996.25C2210.44 2996.42 2205.67 2993.81 2200.94 2993.5C2186.85 2992.56 2174.35 2988.21 2164.69 3004.37C2150.17 3028.69 2112.54 3035.79 2079.53 3025.35C2070.86 3022.6 2062.24 3021.23 2053.56 3021.23C1987.17 3021.1 1920.82 3021.77 1854.28 3017.6C1845.29 3017.04 1835.91 3017.38 1825.18 3025.08C1855.63 3027.4 1882.82 3026.35 1907.26 3030.96C1951.72 3039.33 1996.82 3039.4 2040.95 3048.27C2061.42 3052.4 2082.54 3051.81 2103.29 3049.08C2166.44 3040.81 2229.67 3032.79 2292.85 3024.58C2276.4 3009.46 2263.63 2988.98 2267.27 2961.67C2267.94 2956.6 2263.71 2955.63 2259.92 2955.04C2252.6 2953.92 2245.46 2949.04 2243.88 2943.77C2242.15 2938.02 2239.96 2932.29 2237.63 2926.56C2246.31 2925.94 2254.98 2925.19 2263.63 2924.23C2332.83 2916.62 2402.08 2897.02 2465.73 2868.98C2497.73 2854.88 2528.71 2838.46 2558.35 2819.9C2572.4 2811.1 2586.12 2801.9 2599.25 2791.77C2613.6 2780.67 2625.21 2767.88 2638.1 2755.31C2639.5 2753.98 2637.69 2752.04 2636.17 2753.1ZM2320.88 3020.92C2317.17 3008.5 2313.83 2995.83 2308.23 2984.27C2306.83 2981.4 2298.83 2986.35 2294.63 2989.33C2289.67 2992.85 2290.6 2997.25 2294.58 3000.54C2301.35 3006.15 2301.06 3017.31 2309.44 3022.44C2313.25 3021.94 2317.06 3021.42 2320.88 3020.92ZM2246.79 2895.21C2261.62 2899.19 2270.42 2895.31 2276.98 2888.54C2267.69 2889.19 2258.42 2889.6 2249.15 2889.85C2247.85 2891.65 2246.88 2893.42 2246.79 2895.21ZM2906.81 2869.44C2909.35 2877.1 2911.85 2885.69 2920.98 2888C2924.79 2888.96 2925.4 2884.58 2924.67 2881.6C2922.81 2873.92 2922.98 2864.81 2913.27 2862.1C2908.27 2862.56 2905.42 2865.27 2906.81 2869.44ZM2828.77 2579.44C2840.29 2572.44 2851.58 2564.9 2862.4 2556.75C2872.31 2564.35 2881.15 2573.69 2888.81 2584.1C2874.33 2598.29 2858.1 2610.71 2840.98 2621.56C2840.33 2621.98 2839.69 2622.37 2839.02 2622.79L2839.94 2623.5C2807.44 2637.65 2774.1 2650.04 2740.06 2659.73C2719.13 2665.71 2697.94 2670.54 2676.56 2674.67C2675.42 2674.9 2674.27 2675.08 2673.12 2675.29C2676.73 2672.23 2680.19 2669.06 2683.44 2665.81C2705.94 2656.98 2728.65 2646.6 2750.56 2634.5C2751.06 2634.58 2751.58 2634.69 2752.08 2634.81C2753.21 2634.65 2754.33 2634.5 2755.48 2634.33C2755.25 2633.6 2755.02 2632.85 2754.81 2632.1C2781.33 2617.13 2806.58 2599.65 2828.77 2579.44ZM1596.26 2902.71C1600.52 2902.92 1604.77 2903.04 1609.03 2903.19C1601.9 2903.29 1594.76 2903.37 1587.62 2903.35C1590.5 2903.15 1593.38 2902.94 1596.26 2902.71ZM2006.61 2859.81C2012.15 2859 2017.69 2858.19 2023.23 2857.35C2017.35 2858.58 2011.48 2859.85 2005.6 2861.06C2005.98 2860.67 2006.31 2860.25 2006.61 2859.81ZM1111.32 2963.06C1180.01 2976.6 1249.36 2987.38 1319.03 2995.13C1307.34 2996.25 1295.66 2997.42 1284.01 2998.63C1234.65 3003.69 1182.37 2990.42 1135.16 3008.65C1133.87 3009.15 1130.7 3007.42 1128.91 3006.21C1119.39 2999.81 1110.05 3002.67 1102.24 3006.67C1086.65 3014.65 1069.55 3014.69 1051.65 3014.48C1023.63 3014.15 995.42 3009.06 967.57 3013.02C962.63 3013.73 955 3013.33 957.22 3008.71C966.85 2988.69 945.17 2995.9 937.29 2993.92C930.28 2992.15 921.38 2995.81 914.67 2990.23C901.56 2979.29 884.62 2977.48 867.93 2975.06C860.74 2974.02 852.53 2974.08 847.85 2968.92C837.09 2957.02 823.44 2955.38 807.18 2956.23C798.08 2956.71 788.39 2955.38 778.93 2951.83C721.74 2930.5 668.11 2902.9 609.17 2882.13C624.12 2880.92 635.45 2873.33 651.54 2874.29C700.08 2877.23 748.67 2878.96 797.23 2880.38C817.96 2880.98 838.69 2881.48 859.41 2881.96C858.91 2884.83 859.88 2887.92 862.95 2890.06C898.35 2914.62 943.34 2923.31 984.59 2933.96C1026.55 2944.79 1068.8 2954.67 1111.32 2963.06ZM890.8 2825.29C913.95 2836.23 937.44 2846.31 961.18 2855.69C928.69 2853 895.67 2847.85 863.38 2844.56C830.22 2841.19 797.41 2833.81 764.54 2827.77C753.04 2825.65 740.07 2832.4 730.03 2823.12C711.22 2805.81 687.09 2797.81 660.7 2793.08C651.02 2791.33 640.48 2787.29 636.87 2780.21C624.34 2755.65 609.19 2731.63 601.71 2704.69C608.86 2707.33 616.08 2709.77 623.34 2712C636.57 2716.08 648.87 2717.19 662.52 2718.54C663.97 2718.69 665.18 2718.48 666.22 2718.08C690.72 2735.12 724.19 2746.35 747.85 2755.56C760.37 2760.42 775.1 2766.42 790.59 2771.69C823.02 2791.29 856.51 2809.12 890.8 2825.29ZM2557.06 3381.85C2538.73 3391.04 2518.19 3396.48 2507.96 3409.69C2485.71 3438.46 2454 3457.77 2418.19 3472.65C2373.56 3491.21 2334.48 3517.04 2280.67 3523.5C2229.42 3529.67 2178.27 3542.25 2132.1 3561.15C2037.23 3599.96 1942.27 3638.52 1844.66 3672.96C1767.39 3700.21 1687.29 3721.37 1605.39 3738.5C1536.03 3753.02 1464.8 3758.58 1392.27 3758.31C1344.12 3758.12 1296.17 3755.88 1251.08 3739.73C1212.47 3725.92 1175.87 3707.96 1132.08 3689.12C1274.08 3706.08 1407.94 3703.44 1540.92 3692.69C1674.67 3681.85 1797.15 3643.81 1915.26 3596.42C1892.35 3595.5 1869.8 3595.81 1849.19 3600.77C1789.09 3615.25 1727.76 3623.73 1664.3 3623.85C1637.37 3623.92 1609.84 3623 1583.61 3623.58C1558.36 3624.15 1534.5 3623.12 1509.49 3620.25C1480.89 3616.96 1452.1 3613.56 1423.47 3610.67C1379.15 3606.21 1330.04 3613.69 1292.26 3582.38C1290.66 3581.04 1286.12 3582.27 1282.99 3581.96C1220.72 3575.67 1160.7 3560.02 1100.16 3546.29C1085.4 3542.94 1082.36 3529.08 1067.27 3527.42C1031.58 3523.5 1007.09 3500.4 976.77 3487.25C965.96 3482.56 951.53 3473.67 945.25 3459.52C1109.71 3480.52 1271.5 3504.71 1434.54 3518.75C1349.8 3505.73 1267.56 3484.4 1178.15 3466.48C1193.99 3460.77 1203.41 3463.79 1212.5 3465.08C1245.02 3469.71 1277.36 3475.77 1309.97 3479.54C1461.65 3497.08 1613.47 3513.42 1765.9 3520.5C1799.53 3522.06 1832.55 3528.98 1866.37 3528.77C1916.03 3528.48 1962.6 3516.31 2011.07 3511.65C2023.85 3510.42 2038.48 3512.27 2049.66 3502.92C2044.95 3498.29 2040.99 3498.75 2036.98 3499C1992.07 3501.81 1946.63 3498.56 1901.84 3496.31C1837.15 3493.08 1771.74 3491.69 1707.55 3477.54C1690.74 3473.83 1672.19 3474.33 1657.51 3483.96C1663.25 3494.23 1678.35 3489.98 1684.48 3499.96C1630.77 3496.35 1577.85 3490.04 1524.95 3483.54C1521.9 3483.17 1517.23 3482.02 1516.33 3480.29C1508 3464.29 1489.84 3465.75 1474.83 3464.37C1452.3 3462.29 1431.51 3454.29 1409.19 3450.88C1383.16 3446.87 1357.23 3444.13 1331.13 3441.73C1273.87 3436.46 1217.76 3431.81 1162.82 3409.65C1136.84 3399.19 1111.78 3388.88 1088.14 3375.23C1081.68 3371.5 1072.7 3370.96 1065.68 3367.73C1055.73 3363.13 1041.65 3364.73 1033.11 3351.85C1054.42 3355.75 1072.7 3359.33 1091.1 3362.31C1100.75 3363.85 1114.95 3371.19 1118.62 3360.96C1121.12 3353.98 1105.26 3350.79 1096.66 3349.17C1057.91 3341.83 1028.02 3323.65 1002.25 3299.27C990.08 3287.77 977.71 3283.62 967.78 3300.65C966.14 3303.46 960.12 3304.88 955.71 3306.02C920.15 3315.37 883.94 3320.75 845.38 3318.04C799.34 3314.81 754.51 3304.88 709.6 3296.62C686.31 3292.35 659.89 3291.37 640.08 3281.94C609.55 3267.38 577.57 3258.1 545.73 3247.12C523.61 3239.5 496.29 3237.46 480.79 3219.02C464.23 3199.31 449.09 3178.83 433.35 3158.69C428.95 3153.06 428.49 3147.33 432.98 3142.06C439.06 3134.96 445.46 3140.83 451.91 3142.77C516.07 3162 582.36 3175 647.87 3188.96C718.84 3204.1 790.06 3219.27 861.63 3232.31C909.5 3241.04 957.66 3251.56 1006.81 3248.83C1023.51 3247.9 1026.38 3251.42 1018.49 3262.52C1016.31 3265.58 1010.39 3268.04 1014.14 3272.42C1017.23 3276.04 1023.07 3275.96 1027.6 3275.1C1053.09 3270.33 1078.49 3274.94 1103.82 3278.52C1141.72 3283.85 1179.47 3290.19 1217.39 3295.29C1282.01 3303.96 1346.88 3311 1411.34 3320.62C1456.64 3327.4 1502.08 3334.79 1547.52 3336.19C1666.22 3339.85 1784.75 3339.27 1903.07 3335.77C1916.82 3335.35 1931.67 3333.6 1950.03 3341.58C1867.23 3348.15 1789.27 3351.54 1710.78 3352.71C1728.16 3364.27 1747.85 3360.77 1766.16 3363.13C1811.26 3368.96 1856.7 3377.15 1902 3374.6C2039.26 3366.85 2173.83 3348.81 2304.44 3316.48C2310.37 3315 2318.88 3309.6 2323.62 3317.46C2328.6 3325.69 2320.15 3330 2312.31 3331.15C2293.17 3333.94 2281.4 3345.79 2265.98 3353.06C2246.56 3362.23 2232.06 3377.25 2208.77 3381.88C2183.48 3386.88 2158.71 3393.42 2133.6 3398.98C2129.12 3399.98 2122.98 3398.98 2122.94 3404.27C2122.9 3410.67 2128.96 3410.17 2134.87 3411.02C2184.73 3418.13 2234.48 3425.96 2284.23 3433.46C2302.77 3436.25 2323.42 3445.46 2340.48 3439.98C2365.98 3431.79 2392.71 3425.67 2416.92 3414.67C2455.65 3397.08 2499.46 3387.4 2539.88 3364.67C2526.83 3386.13 2541.54 3384 2557.06 3381.85ZM1000.68 3436.88C951.65 3445.37 900.48 3445.96 849.95 3443.5C804.08 3441.27 758.24 3433.96 712.44 3428.44C653.05 3421.29 593.07 3419.46 534.13 3408.15C518.46 3405.15 502.74 3402.37 490.6 3400.15C440.55 3397.75 399.17 3380.38 356.78 3366.17C349.41 3363.69 340.48 3361.81 335.54 3357.29C314.99 3338.5 290.51 3321.98 278.95 3297.62C274.49 3288.21 253.73 3281.19 263.58 3271.56C269.54 3265.75 288.81 3267 301.72 3268.5C394.01 3279.23 486.49 3289.1 578.36 3302.67C671.99 3316.5 765.01 3334.12 858.26 3350.29C929.57 3362.65 1000.83 3375.27 1072.09 3387.85C1077.9 3388.9 1085.98 3387.75 1086.22 3395.79C1086.39 3401.48 1081.93 3403.02 1075.94 3404.42C1069.21 3405.96 1062.9 3408.79 1056.79 3411.6C1038.08 3420.17 1020.94 3433.35 1000.68 3436.88ZM1016.73 3065.02C939.65 3064.52 862.79 3057.38 785.86 3052.52C785.82 3049.13 785.78 3045.73 785.74 3042.31C972.67 3053.52 1158.92 3055.13 1344.49 3043.79C1253.97 3061.17 1160.56 3060.88 1067.8 3064.31C1058.14 3064.67 1048.49 3064.85 1038.84 3064.96C1033.2 3063.54 1027.55 3062.15 1021.9 3060.81C1018.67 3060.04 1016.54 3062.58 1016.73 3065.02ZM802.09 3490.4C829.6 3493.71 856.25 3501.65 884 3503.27C844.51 3508.79 806.61 3500.88 768.67 3493.56C763.5 3492.58 755.69 3491.15 757.9 3485.29C760.25 3479.08 766.91 3482.75 771.64 3484.81C781.33 3489.06 791.81 3489.17 802.09 3490.4ZM2000.9 3335.6C2027.17 3329.92 2054.18 3329.19 2081.68 3330.73C2055.61 3337.94 2027.85 3333.62 2000.9 3335.6ZM2719.67 3028.67C2719.75 3028.62 2719.81 3028.58 2719.9 3028.54C2719.94 3028.71 2719.96 3028.87 2720 3029.06C2719.75 3029.06 2719.5 3029.06 2719.25 3029.06C2719.4 3028.94 2719.54 3028.81 2719.67 3028.67C2719.67 3028.67 2719.75 3028.77 2719.83 3028.85L2719.67 3028.67ZM2727.31 3149.88C2709.71 3152.65 2694.85 3162.81 2676.25 3164.9C2662.21 3166.46 2641.94 3170.08 2636.46 3191.21C2634.98 3196.9 2628.77 3194.44 2626.04 3190.17C2619.63 3180.13 2610.29 3179.77 2600.19 3181.63C2577.63 3185.73 2555.6 3186.25 2534.17 3175.52C2529.37 3173.12 2521.56 3173.48 2516.44 3175.65C2494.69 3184.79 2482.06 3172.37 2467.9 3158.87C2458.21 3149.63 2448.23 3132.29 2430.1 3149.65C2426.06 3153.52 2422.9 3147.21 2422.15 3141.06C2424.85 3136.13 2427.06 3130.02 2430.29 3124.71C2390.38 3133.56 2349.56 3139.62 2308.77 3145.77C2308.15 3143.81 2307.52 3141.87 2306.9 3139.92C2350.06 3132.38 2393.23 3124.81 2436.4 3117.25C2445.02 3109.27 2452.04 3108.21 2457.21 3113.6C2470.1 3111.35 2483 3109.1 2495.9 3106.83C2484.06 3110.79 2472.08 3114.29 2460.02 3117.5C2461.37 3119.9 2462.54 3122.85 2463.54 3126.4C2471.54 3154.88 2493.04 3168.85 2523.52 3169.04C2543.71 3169.15 2563.58 3164.25 2583.15 3164.9C2647.04 3166.98 2700.4 3140.29 2753.73 3110.25C2772.35 3099.75 2785.77 3080.85 2808.46 3077.04C2814 3076.1 2819.98 3070.08 2823.27 3079.08C2826 3086.5 2819.94 3088.21 2814.58 3091.77C2795.69 3104.31 2780.44 3121.19 2757.65 3129.48C2748 3132.98 2740.5 3147.81 2727.31 3149.88ZM2991.77 2891.31C2998.35 2899.35 3002.81 2906.02 3000.5 2915.06C2990.17 2955.42 2985.79 2997.71 2967.46 3035.44C2949 3073.42 2938.4 3119.52 2885.62 3129.94C2895.94 3109.23 2925.33 3106.77 2929.81 3079.98C2932.21 3065.58 2946.75 3053.52 2950.94 3039.02C2952.75 3032.77 2953.08 3025.44 2956.48 3018.94C2967.56 2997.65 2978.35 2976.19 2963.52 2952.1C2961.42 2948.71 2960.46 2945.04 2962.83 2941.6C2965.71 2937.46 2968.98 2939.04 2972.33 2941.54C2985.02 2951 2985.79 2940.33 2987 2932.25C2989 2918.67 2990.23 2904.96 2991.77 2891.31ZM2887 3079.1C2871.25 3107.71 2844.48 3124.83 2821.94 3146.35C2820.73 3147.52 2817.4 3147.77 2815.83 3146.96C2812.81 3145.44 2812.65 3142.52 2814.19 3139.37C2816.94 3133.81 2821.17 3129.81 2826.33 3126.5C2852.77 3109.65 2873.79 3088.33 2884.19 3057.77C2886.44 3051.15 2889.31 3043.46 2900.52 3041.83C2896.04 3055.06 2893.58 3067.17 2887 3079.1ZM2779.62 3243.69C2749.5 3245.08 2728.19 3261.04 2702.15 3258.9C2698.81 3258.62 2692.44 3260.83 2696.65 3252C2698.08 3248.98 2695.54 3245.67 2701.71 3245.58C2716.06 3245.4 2729.65 3240.12 2743.56 3237.92C2752.81 3236.44 2763.54 3228.5 2779.62 3243.69ZM2638.08 3104.52C2636.73 3103.52 2635.54 3100.38 2636.12 3099C2638.48 3093.42 2644.31 3093.88 2649.1 3092.06C2678.31 3081.08 2708.73 3093.77 2738.48 3087.6C2727.79 3091.4 2718.08 3095.9 2706.12 3096.85C2687.92 3098.33 2668.88 3092.44 2651.58 3101.29C2646.98 3103.65 2643.69 3108.65 2638.08 3104.52ZM2843 3199.63C2840.44 3210.35 2832.48 3217.69 2821.52 3219.58C2816.77 3220.4 2811.52 3217.5 2808.75 3211.29C2814.13 3201.67 2825.19 3199.31 2833.63 3193.81C2836.71 3191.79 2844.33 3194.1 2843 3199.63ZM2657.08 3043.98C2677 3035.77 2697.31 3029.15 2719.25 3029.06C2701.77 3046.77 2678.29 3040.96 2657.08 3043.98ZM2743.12 2959.87C2742.04 2957.42 2744.17 2954.06 2751.19 2955.92C2751.15 2955.9 2755.56 2957.1 2755.67 2958.62C2756.42 2969.06 2748.83 2975.96 2743.23 2983.42C2741.25 2986.08 2734.52 2987.13 2733.65 2983.73C2731.17 2974.27 2748.23 2971.65 2743.12 2959.87ZM3180 2946.56C3161.15 2936.6 3168.85 2920.27 3165.58 2908.1C3174.75 2918.38 3176.08 2931.17 3180 2946.56Z" /><path id="Path 3" fill-rule="evenodd" class="shp1" d="M623.34 2712C616.08 2709.77 608.86 2707.33 601.71 2704.69C596.2 2702.62 590.72 2700.48 585.35 2698.1C561.09 2687.4 537.48 2675.06 514.87 2661.21C469.27 2633.27 427.38 2598.9 390.91 2559.79C354.95 2521.23 324.36 2476.98 300.52 2429.98C274.82 2379.27 250.87 2318.63 268.29 2261.46C279.19 2225.71 313.74 2193.81 350.84 2190.44C348.86 2212.44 347.32 2235 346.31 2258.1C345.69 2259.35 345.07 2260.6 344.46 2261.83C343.99 2264.19 343.46 2266.52 342.92 2268.85C343.54 2270.79 344.13 2272.75 344.7 2274.71C345.13 2270.56 345.61 2266.42 346.12 2262.29C345.8 2270.25 345.52 2278.25 345.32 2286.33C345.22 2290.48 345.14 2294.58 345.09 2298.69C344.08 2299.02 343.14 2299.42 342.16 2299.83C342.93 2305.23 345.01 2310.6 345.01 2315.98C345.01 2316.06 345.01 2316.12 345.01 2316.21C345.01 2320.5 346.88 2324.79 347.97 2329.08C348.19 2329.98 348.38 2330.88 348.61 2331.75C348.93 2332.98 349.26 2334.21 349.6 2335.44C350 2336.94 350.42 2338.44 350.85 2339.94C351.12 2340.9 351.38 2341.83 351.66 2342.77C352.4 2345.29 353.16 2347.83 353.97 2350.38C355.7 2355.85 357.56 2361.31 359.41 2366.77C365.28 2381.1 371.39 2395.27 377.65 2409.25C395.37 2448.79 413.64 2488.48 432.85 2527.71C432.18 2527.02 431.51 2526.31 430.85 2525.63C422.05 2513.06 414.02 2499.96 406.89 2486.35C396.21 2465.96 390.29 2437.65 374.19 2421.08C374.01 2420.9 373.8 2420.75 373.58 2420.6C373.47 2420.5 373.37 2420.37 373.26 2420.25C371.41 2418.35 367.43 2418.54 366.69 2421.54C360.79 2445.42 376.05 2474.54 386.75 2495.21C400.5 2521.77 418.29 2546.33 438.61 2568.23C450.85 2581.42 465.09 2595.21 480.71 2607.79C480.86 2607.92 481.01 2608.04 481.15 2608.17C482.76 2609.46 484.39 2610.73 486.02 2612C489.63 2614.79 493.34 2617.48 497.08 2620.1C498.99 2621.46 500.91 2622.79 502.85 2624.1C504.04 2624.9 505.26 2625.63 506.46 2626.4C519.1 2634.58 532.28 2641.73 545.89 2646.81C560.72 2655.25 575.94 2663 591.53 2669.96C593.01 2670.62 594.5 2671.29 595.99 2671.96C611.39 2680.35 627.05 2688.35 642.94 2695.94C646.57 2701.13 651.09 2705.92 656.25 2710.33C656.5 2710.54 656.75 2710.75 657 2710.96C657.43 2711.33 657.86 2711.69 658.31 2712.06C660.82 2714.15 663.45 2716.15 666.22 2718.08C665.18 2718.48 663.97 2718.69 662.52 2718.54C648.87 2717.19 636.57 2716.08 623.34 2712ZM330.63 2215.96C322.58 2220.37 315.25 2226.33 308.93 2233.29C314 2228.75 319.48 2224.63 325.34 2221.06C326.01 2220.65 326.68 2220.37 327.34 2220.19C328.4 2218.75 329.49 2217.33 330.63 2215.96ZM378.15 2502.52C375.05 2497.37 372.08 2492.13 369.18 2486.88C366.31 2482.96 363.51 2479.02 360.78 2475.02C358.37 2473.08 355.99 2471.08 353.67 2469.04C361.4 2480.5 369.58 2491.67 378.15 2502.52ZM2887.23 2313.63C2888.79 2308.92 2890.33 2304.02 2891.85 2298.94C2892.98 2299.52 2894.08 2300.15 2895.17 2300.79C2891.17 2323.25 2885.94 2344.77 2875.56 2365.85C2870.5 2376.17 2863.98 2385.06 2857.06 2393.56C2859.23 2388.02 2861.19 2382.71 2862.96 2377.65C2873.81 2357.94 2883.31 2337.48 2891.19 2316.31C2889.9 2315.37 2888.56 2314.5 2887.23 2313.63Z" /><path id="Path 4" fill-rule="evenodd" class="shp1" d="M2900.79 2299.92C2907.65 2297.15 2917.19 2301.33 2916.27 2310.48C2916.08 2312.46 2915.79 2314.46 2915.56 2316.44C2928.52 2328.94 2938.46 2344.6 2944.56 2361.5C2960.33 2405.06 2948.65 2453.29 2924.6 2491.46C2908.38 2517.19 2886.6 2538.52 2862.4 2556.75C2851.58 2564.9 2840.29 2572.44 2828.77 2579.44C2806.58 2599.65 2781.33 2617.13 2754.81 2632.1C2753.4 2632.9 2751.98 2633.71 2750.56 2634.5C2728.65 2646.6 2705.94 2656.98 2683.44 2665.81C2680.19 2669.06 2676.73 2672.23 2673.12 2675.29C2674.27 2675.08 2675.42 2674.9 2676.56 2674.67C2697.94 2670.54 2719.13 2665.71 2740.06 2659.73C2774.1 2650.04 2807.44 2637.65 2839.94 2623.5L2839.02 2622.79C2839.69 2622.37 2840.33 2621.98 2840.98 2621.56C2858.1 2610.71 2874.33 2598.29 2888.81 2584.1C2891.85 2581.1 2894.85 2578.06 2897.75 2574.92C2907.88 2563.88 2916.94 2551.65 2924.69 2538.83C2932.02 2526.69 2936.58 2511.04 2946.02 2500.52C2947.31 2499.08 2949.81 2500.21 2950.15 2501.92C2952.94 2515.96 2944.83 2533.56 2938.9 2545.92C2932.21 2559.87 2924.04 2572.94 2914.46 2585.08C2909.92 2590.83 2905.12 2596.35 2900.13 2601.71C2894.31 2607.94 2888.23 2613.9 2881.85 2619.56C2881.77 2622.5 2880.31 2625.44 2876.92 2627.33C2872.37 2629.85 2867.79 2632.29 2863.19 2634.71C2861.65 2635.85 2860.08 2637.04 2858.5 2638.17L2857.69 2637.52C2823 2655.29 2787.15 2669.85 2749.69 2681.4C2739.96 2684.4 2729.06 2688.02 2717.6 2691.5C2722.33 2692.69 2727.06 2693.85 2731.79 2695.04C2716.17 2699.56 2700.4 2703.48 2684.46 2706.9C2667.83 2710.46 2645.96 2718.23 2629.56 2711.08C2627.98 2710.4 2626.92 2709.29 2626.38 2708.02C2619.56 2712.19 2613.02 2716.04 2607.13 2719.58C2562.9 2746.15 2515.46 2766.15 2466.08 2780.94C2423.12 2793.79 2371.94 2805.42 2321.04 2808.5C2318.96 2809.08 2316.85 2809.67 2314.77 2810.27C2280.5 2819.92 2246.21 2829.48 2211.75 2838.42C2147 2855.23 2082.04 2871.23 2016.67 2885.46C2013.91 2886.06 2011.15 2886.67 2008.39 2887.27C1982.88 2892.75 1957.31 2898 1931.69 2902.94C1819.79 2924.56 1706.84 2940.62 1592.96 2946.94C1410.09 2957.08 1223.52 2940.67 1048.31 2886.31C1018.92 2877.19 989.85 2867 961.18 2855.69C937.44 2846.31 913.95 2836.23 890.8 2825.29C856.51 2809.12 823.02 2791.29 790.59 2771.69C818.63 2781.25 849.21 2788.44 873.89 2782.33C874.69 2782.13 875.21 2781.54 875.43 2780.85C897.29 2787.02 919.12 2792.83 940.79 2798.31C949.14 2800.44 957.53 2802.44 965.93 2804.42C965.35 2806.79 965.91 2809.46 967.89 2811.27C968.58 2812.06 969.47 2812.75 970.65 2813.23C1023.77 2834.77 1083.51 2842.94 1139.79 2852.48C1198.92 2862.5 1258.4 2870.98 1318.11 2876.65C1528.22 2896.52 1741.23 2893.94 1950.65 2867.42C1969.31 2865.04 1987.97 2862.5 2006.61 2859.81C2006.31 2860.25 2005.98 2860.67 2005.6 2861.06C2011.48 2859.85 2017.35 2858.58 2023.23 2857.35C2106.15 2844.88 2188.73 2828.9 2270.1 2808.42C2269.67 2808.37 2269.23 2808.33 2268.79 2808.31C2270.94 2807.77 2273.06 2807.23 2275.19 2806.69C2343.73 2792.33 2411.33 2774.56 2476.58 2751.13C2580.69 2713.69 2676.6 2650.92 2742.08 2563.15C2752.85 2553.08 2763.58 2542.1 2774.08 2530.1C2775.48 2529.08 2776.85 2528.06 2778.25 2527.04C2778.13 2526.6 2778 2526.15 2777.88 2525.71C2778.65 2524.79 2779.42 2523.92 2780.19 2522.98C2806.96 2491.15 2826.46 2459.25 2840.67 2430.56C2845.9 2427.4 2850.83 2423.52 2855.44 2419.1C2855.79 2418.77 2856.15 2418.44 2856.5 2418.1C2856.85 2417.75 2857.21 2417.4 2857.56 2417.02C2886.12 2388.67 2902 2339.02 2900.79 2299.92ZM1972.18 2867.81C1963.61 2869 1955.04 2870.21 1946.47 2871.37C1946.18 2871.94 1945.85 2872.48 1945.45 2873C1949.33 2872.25 1953.21 2871.52 1957.09 2870.77C1962.12 2869.81 1967.15 2868.79 1972.18 2867.81ZM1609.03 2903.19C1604.77 2903.04 1600.52 2902.92 1596.26 2902.71C1593.38 2902.94 1590.5 2903.15 1587.62 2903.35C1594.76 2903.37 1601.9 2903.29 1609.03 2903.19ZM1132.65 2879.17C1122.2 2875.85 1111.76 2872.54 1101.32 2869.23C1105.13 2870.85 1108.94 2872.48 1112.75 2874.1C1119.37 2875.83 1126 2877.52 1132.65 2879.17ZM2900.48 2443.81C2901.69 2440.67 2902.81 2437.48 2903.85 2434.27C2905.98 2426.81 2907.73 2419.25 2909.1 2411.63C2906.25 2422.35 2903.37 2433.08 2900.48 2443.81ZM1511.43 3008.56C1496.16 3008.17 1480.88 3007.54 1465.61 3006.81C1416.66 3004.48 1367.76 3000.56 1319.03 2995.13C1249.36 2987.38 1180.01 2976.6 1111.32 2963.06C1068.8 2954.67 1026.55 2944.79 984.59 2933.96C943.34 2923.31 898.35 2914.62 862.95 2890.06C859.88 2887.92 858.91 2884.83 859.41 2881.96C860.09 2878.04 863.52 2874.56 868.25 2874.52C889.36 2874.33 910.12 2878.33 930.68 2883.52C947.09 2887.67 963.36 2892.54 979.59 2896.67C1015.96 2905.9 1052.53 2914.31 1089.28 2921.87C1163.27 2937.13 1237.75 2949.65 1312.78 2958.48C1463.57 2976.25 1616.48 2981.02 1768.13 2973.85C1810.42 2971.85 1852.5 2967.6 1894.73 2965C1916.52 2963.65 1938.3 2962.02 1960.04 2959.98C1980.67 2958.02 2001.53 2954.19 2022.26 2955.31C2023.61 2955.38 2024.13 2957.44 2022.8 2957.98C2006.26 2964.87 1988.56 2967.69 1971.05 2971.27C1952.37 2975.13 1933.67 2978.83 1914.93 2982.31C1876.73 2989.44 1838.17 2993.85 1799.52 2997.71C1739.84 3003.67 1680.01 3007.4 1620.08 3008.75C1603.03 3009.15 1585.98 3009.37 1568.91 3009.35C1549.75 3009.35 1530.59 3009.08 1511.43 3008.56ZM1186.67 3121.1C1165.1 3115.71 1143.52 3110.06 1122.09 3103.9C1087.19 3093.85 1052.7 3082.42 1019.29 3068.33C1017.61 3067.63 1016.83 3066.35 1016.73 3065.02C1016.54 3062.58 1018.67 3060.04 1021.9 3060.81C1027.55 3062.15 1033.2 3063.54 1038.84 3064.96C1082.58 3075.94 1125.86 3088.54 1169.69 3099.23C1181.8 3102.19 1193.92 3105.1 1206.05 3107.94C1244.02 3116.81 1282.13 3125.02 1320.5 3132.06C1419.09 3150.15 1518.85 3161.75 1618.95 3166.79C1721.07 3171.96 1823.63 3170.48 1925.54 3161.98C2013.42 3154.63 2102.08 3143.88 2187.1 3119.65C2236.06 3105.69 2283.35 3086.88 2326.96 3061.81C2327.42 3061.54 2327.88 3061.29 2328.31 3061.02C2363.52 3040.67 2396.33 3016.19 2425.67 2986.83C2426.77 2985.75 2428.65 2987.38 2427.71 2988.63C2377.98 3054.48 2305.15 3095.85 2228.42 3123.04C2145.75 3152.33 2057.99 3165.23 1971.1 3174.42C1822.96 3190.06 1673.44 3191.04 1525.17 3177.58C1509.3 3176.15 1493.46 3174.52 1477.63 3172.75C1436.56 3168.17 1395.61 3162.48 1354.84 3155.67C1298.43 3146.23 1242.17 3134.98 1186.67 3121.1ZM1514.15 3289.83C1530.8 3290.75 1547.44 3291.48 1564.05 3291.98C1565.89 3292.04 1567.74 3292.13 1569.58 3292.19C1571.1 3292.23 1570.88 3294.4 1569.43 3294.48C1511.61 3297.71 1454.4 3298.19 1396.61 3293.77C1339.23 3289.37 1282.14 3282.04 1225.53 3271.71C1114.14 3251.35 1005.11 3219.9 899.96 3177.85C869.74 3165.77 840.07 3152.5 810.76 3138.38C782.72 3124.83 752.6 3111 727.93 3091.85C725.01 3089.58 727.15 3084.65 730.91 3085.9C757.49 3094.77 783.02 3108.52 808.5 3120.19C834.35 3132 860.51 3143.06 886.77 3153.94C939.33 3175.67 992.96 3194.81 1047.4 3211.27C1155.64 3243.98 1266.82 3266.75 1379.26 3278.75C1423.98 3283.54 1469.09 3287.38 1514.15 3289.83ZM302.71 2527.6C301.86 2525.73 304.47 2523.73 305.81 2525.5C324.55 2550.23 342.33 2575.69 363.25 2598.69C384.73 2622.31 408.66 2643.65 434.51 2662.4C486.12 2699.79 543.36 2725.67 604.77 2742.38C605.79 2742.65 605.46 2744.38 604.4 2744.21C541.85 2733.52 481.25 2706.35 429.79 2669.4C379.29 2633.1 328.82 2584.92 302.71 2527.6ZM2638.1 2755.31C2625.21 2767.88 2613.6 2780.67 2599.25 2791.77C2586.12 2801.9 2572.4 2811.1 2558.35 2819.9C2528.71 2838.46 2497.73 2854.88 2465.73 2868.98C2402.08 2897.02 2332.83 2916.62 2263.63 2924.23C2254.98 2925.19 2246.31 2925.94 2237.63 2926.56C2227.19 2927.31 2216.75 2927.85 2206.31 2928.15C2187.4 2928.65 2166.96 2929.06 2148.69 2923.48C2145.44 2922.48 2146 2917.73 2149.1 2917C2165.02 2913.33 2181.9 2913.69 2198.15 2912.67C2209.04 2911.98 2219.94 2911.19 2230.81 2910.19C2236.9 2909.62 2243 2909.02 2249.08 2908.27C2282.6 2904.21 2315.87 2898.65 2348.65 2890.48C2414.52 2874.08 2478.35 2848.46 2537.31 2814.79C2553.29 2805.69 2568.69 2795.69 2584.19 2785.79C2601.33 2774.88 2619.6 2764.77 2636.17 2753.1C2637.69 2752.04 2639.5 2753.98 2638.1 2755.31Z" /><path id="Path 5" class="shp2" d="M1403.92 1112.03C1400.55 1114.8 1397.65 1117.79 1395.14 1120.95C1395.39 1121.45 1395.65 1121.98 1395.9 1122.46C1395.51 1122.49 1394.8 1122.54 1393.85 1122.64C1376.4 1146.34 1380.31 1179.41 1387.93 1207.57C1396.99 1241.06 1413.12 1272.78 1434.12 1300.36C1453.85 1326.29 1478.16 1348.91 1505.39 1366.81C1532.69 1384.76 1562.69 1393.54 1591.95 1407.07C1593.62 1407.84 1592.57 1410.31 1590.98 1410.3C1555.73 1410.08 1518.84 1389.97 1490.46 1370.49C1460.06 1349.64 1434.07 1322.67 1413.68 1292C1393.08 1261.03 1377.48 1224.21 1372.67 1187.12C1372.34 1184.59 1372.11 1181.95 1371.94 1179.29C1366.02 1185.12 1360.83 1191.36 1356.25 1197.9C1356.51 1198.35 1356.72 1198.81 1356.99 1199.25C1355.09 1201.26 1353.12 1203.45 1351.12 1205.8C1318.13 1260.85 1327.45 1334.89 1360.6 1389.08C1381.09 1422.59 1410.11 1450.15 1442.49 1472.05C1459.32 1483.43 1477.07 1493.35 1495.27 1502.35C1513.22 1511.22 1532.9 1518.21 1548.99 1530.25C1551.4 1532.05 1550.71 1536.71 1547.14 1536.38C1527.05 1534.52 1506.06 1527.02 1485.94 1517.11C1496.91 1526.89 1507.68 1536.91 1518.19 1547.22C1542.01 1570.6 1564.14 1595.42 1584.46 1621.46C1628.65 1622.57 1672.78 1625.06 1716.72 1629.16C1769.74 1630.53 1822.67 1634.84 1875.27 1642.38C1914.81 1648.04 1954.14 1655.35 1993.09 1664.27C1999.27 1584.18 1988.23 1503.36 1955.98 1426.96C1933.41 1373.52 1901.3 1325.7 1862.84 1283.33C1818.97 1239.21 1775.59 1207.03 1739.86 1184.19C1729.24 1175.06 1717.66 1165.54 1705.13 1155.79C1689.6 1146.41 1673.82 1137.55 1657.87 1129.21C1577.22 1087.07 1490.97 1062.58 1406.86 1029.18C1406.78 1029.15 1406.71 1029.11 1406.64 1029.07C1400.67 1027.38 1394.66 1025.81 1388.61 1024.57C1396.26 1063.2 1406.83 1099.72 1427.64 1133.74C1450.08 1170.42 1481.29 1197.66 1515.06 1223.53C1516.77 1224.84 1515.68 1228.36 1513.34 1227.31C1440.53 1194.65 1385.1 1104.02 1386.55 1024.08C1383.92 1023.3 1383.2 1020.75 1383.74 1018.4C1382.57 1018.07 1381.4 1017.74 1380.23 1017.41C1374.82 1015.86 1377.49 1007.17 1382.79 1009.06C1391.11 1012 1399.4 1014.94 1407.65 1017.96C1408.45 1017.81 1409.33 1017.8 1410.28 1017.99C1463.73 1028.53 1516.61 1046.18 1567.66 1067.33C1566.37 1066.65 1565.1 1065.96 1563.8 1065.29C1495.48 1029.88 1432.21 1007.98 1380.78 994.08C1377.54 1007.03 1374.69 1024.34 1375.41 1044.7C1376.49 1075.18 1385.09 1099.58 1392.57 1115.65C1395.38 1113.25 1398.48 1111.12 1401.98 1109.37C1403.6 1108.57 1405.44 1110.79 1403.92 1112.03ZM2008.65 1667.93C2025.19 1671.91 2041.66 1676.19 2058.05 1680.77C2057.7 1670.36 2056.95 1659.77 2055.72 1649.01C2050.38 1602.16 2037.43 1562.38 2023.58 1530.86C2011.63 1500.15 1994.29 1461.71 1969.17 1419.89C1994.43 1479.73 2008.82 1544.2 2010.44 1610.66C2010.91 1629.63 2010.32 1648.79 2008.65 1667.93ZM1315.03 1304.13C1314.99 1333.97 1323.06 1359.47 1329.29 1374.82C1330.12 1374.23 1330.94 1373.64 1331.79 1373.06C1321.75 1350.99 1316.09 1327.5 1315.03 1304.13ZM1333.86 1377.43C1332.98 1378.1 1332.12 1378.8 1331.25 1379.49C1332.77 1382.98 1334.09 1385.71 1334.99 1387.54C1330.46 1389.78 1325.27 1392.75 1319.98 1396.66C1334.98 1405.56 1349.76 1414.79 1364.35 1424.34C1354.87 1412.81 1346.33 1400.5 1339.01 1387.38C1337.18 1384.11 1335.49 1380.78 1333.86 1377.43ZM1367.04 1177.36C1368.08 1176.44 1369.11 1175.52 1370.18 1174.62C1370.67 1174.2 1371.2 1174.06 1371.71 1174.07C1371.34 1156.83 1374.64 1138.26 1384.41 1124.52C1377.29 1126.57 1368.21 1130.66 1360.85 1138.9C1361.91 1148.85 1360.82 1158.43 1355.37 1167.59C1355.32 1168.4 1355.24 1169.21 1355.08 1170.04C1354.69 1172.12 1354 1173.97 1353.07 1175.63C1356.71 1179.25 1358.05 1185.52 1353.34 1190.16C1353.15 1190.35 1352.96 1190.54 1352.77 1190.73C1353.01 1191.34 1353.31 1191.93 1353.57 1192.54C1357.54 1187.87 1361.66 1183.29 1365.92 1178.78C1366.36 1178.32 1366.73 1177.84 1367.04 1177.36Z" /><path id="Path 6" class="shp3" d="M1331.25 1379.49C1332.12 1378.8 1332.98 1378.1 1333.86 1377.43C1335.49 1380.78 1337.18 1384.11 1339.01 1387.38C1346.33 1400.5 1354.87 1412.81 1364.35 1424.34C1407.05 1452.3 1447.83 1483.13 1485.94 1517.11C1506.06 1527.02 1527.05 1534.52 1547.14 1536.38C1550.71 1536.71 1551.4 1532.05 1548.99 1530.25C1532.9 1518.21 1513.22 1511.22 1495.27 1502.35C1477.07 1493.35 1459.32 1483.43 1442.49 1472.05C1410.11 1450.15 1381.09 1422.59 1360.6 1389.08C1327.45 1334.89 1318.13 1260.85 1351.12 1205.8C1352.73 1203.12 1354.44 1200.49 1356.25 1197.9C1360.83 1191.36 1366.02 1185.12 1371.94 1179.29C1372.11 1181.95 1372.34 1184.59 1372.67 1187.12C1377.48 1224.21 1393.08 1261.03 1413.68 1292C1434.07 1322.67 1460.06 1349.64 1490.46 1370.49C1518.84 1389.97 1555.73 1410.08 1590.98 1410.3C1592.57 1410.31 1593.62 1407.84 1591.95 1407.07C1562.69 1393.54 1532.69 1384.76 1505.39 1366.81C1478.16 1348.91 1453.85 1326.29 1434.12 1300.36C1413.12 1272.78 1396.99 1241.06 1387.93 1207.57C1380.31 1179.41 1376.4 1146.34 1393.85 1122.64C1394.27 1122.07 1394.7 1121.51 1395.14 1120.95C1397.65 1117.79 1400.55 1114.8 1403.92 1112.03C1405.44 1110.79 1403.6 1108.57 1401.98 1109.37C1398.48 1111.12 1395.38 1113.25 1392.57 1115.65C1389.47 1118.29 1386.74 1121.25 1384.41 1124.52C1374.64 1138.26 1371.34 1156.83 1371.71 1174.07C1371.2 1174.06 1370.67 1174.2 1370.18 1174.62C1369.11 1175.52 1368.08 1176.44 1367.04 1177.36C1366.73 1177.84 1366.36 1178.32 1365.92 1178.78C1361.66 1183.29 1357.54 1187.87 1353.57 1192.54C1346.69 1200.64 1340.31 1209.01 1334.59 1217.77C1329.79 1226.46 1325.86 1235.51 1322.82 1244.84C1322.49 1246.36 1322.17 1247.9 1321.88 1249.46C1321.61 1250.89 1321.1 1252.03 1320.41 1252.94C1315.98 1269.51 1314.24 1286.79 1315.03 1304.13C1316.09 1327.5 1321.75 1350.99 1331.79 1373.06C1330.94 1373.64 1330.12 1374.23 1329.29 1374.82C1322.14 1379.82 1315.65 1385.13 1309.79 1390.73C1311.76 1391.87 1313.74 1393.01 1315.7 1394.17C1320.43 1388.92 1325.61 1384.01 1331.25 1379.49ZM2562.19 1317.34C2567.42 1351.44 2579.9 1385.88 2594.19 1417.19C2583.52 1383.91 2572.85 1350.62 2562.19 1317.34ZM916.53 2173.42C912.77 2169.29 909.09 2165.1 905.49 2160.83C920.18 2172.67 935.98 2183.35 950.78 2193.27C976.63 2210.6 1010.03 2230.42 1041.4 2234.02C1044.38 2234.37 1045.52 2230.25 1043.22 2228.67C1015.94 2209.67 982.51 2198.31 953.61 2181.48C926.9 2165.92 904.58 2145.54 879.91 2127.6C871.97 2116.27 864.55 2104.58 857.7 2092.58C853.29 2085.15 849.03 2077.63 845.09 2069.96C830.1 2040.82 819.12 2010.85 811.69 1980.34C795.65 1920.75 790.8 1856.31 807.13 1800.6C807.56 1798.1 807.93 1795.61 808.41 1793.11C807.59 1792.86 806.85 1792.27 806.72 1791.38C805.51 1782.94 807.11 1780.86 812.42 1775.24C814.29 1761.63 818.64 1747.74 826.78 1734.61C772.04 1781.72 751.34 1858.48 757.93 1929.33C765.26 2008.05 802.22 2084.25 846.64 2148.67C883.96 2202.81 929.95 2250.65 981.68 2291.15C981.31 2290.69 980.92 2290.19 980.55 2289.73C959.85 2257.31 937.65 2218.46 916.53 2173.42Z" /><path id="Path 7" fill-rule="evenodd" class="shp3" d="M2913.85 2126.31C2914.13 2133.21 2914.25 2140 2914.25 2146.71C2903.31 2186.63 2885.6 2224.79 2862.23 2259.96C2855.4 2270.25 2870.27 2279.63 2877.81 2270.46C2889.77 2255.98 2900.08 2239.73 2908.75 2222.52C2904.6 2251.13 2898.5 2276.77 2891.85 2298.94C2890.33 2304.02 2888.79 2308.92 2887.23 2313.63C2880.31 2334.46 2873.19 2351.65 2867.35 2364.58C2866.04 2368.69 2864.58 2373.06 2862.96 2377.65C2861.19 2382.71 2859.23 2388.02 2857.06 2393.56C2857.02 2393.67 2856.96 2393.77 2856.94 2393.88C2847.87 2404.92 2838.21 2415.4 2830.21 2427.58C2828.06 2430.85 2831.67 2434.87 2835.17 2433.21C2837.12 2432.27 2839.02 2431.23 2840.9 2430.1C2840.81 2430.25 2840.75 2430.42 2840.67 2430.56C2826.46 2459.25 2806.96 2491.15 2780.19 2522.98C2779.42 2523.92 2778.65 2524.79 2777.88 2525.71C2776.6 2527.19 2775.35 2528.67 2774.08 2530.1C2763.58 2542.1 2752.85 2553.08 2742.08 2563.15C2676.6 2650.92 2580.69 2713.69 2476.58 2751.13C2411.33 2774.56 2343.73 2792.33 2275.19 2806.69C2372.94 2781.85 2468.92 2750.46 2561.54 2710.62C2564.81 2709.23 2563.06 2703.67 2559.58 2704.65C2447.48 2736.29 2334.44 2767.02 2220.48 2791.35C2015 2835.21 1804.77 2858.44 1594.62 2858.35C1490.98 2858.31 1387.73 2852.02 1284.64 2841.69C1232.41 2836.44 1180.32 2830.06 1128.43 2822.08C1076.99 2814.17 1025.2 2801.56 973.18 2799.04C969.43 2798.85 966.93 2801.19 966.06 2804C957.44 2801.98 948.83 2799.92 940.26 2797.75C918.58 2792.25 896.74 2786.46 874.86 2780.29C875.11 2779.46 874.91 2778.5 874.07 2777.94C857.28 2766.25 835.51 2762.92 816.24 2756.65C796.76 2750.31 777.34 2743.83 758.35 2736.13C737.55 2727.69 717.25 2718.04 697.4 2707.56C680.66 2698.75 665.16 2687 646.01 2684.92C642.12 2684.5 638.72 2689.25 640.83 2692.73C641.4 2693.67 642.01 2694.6 642.64 2695.52C614.14 2681.92 586.33 2667.06 559.52 2650.75C567.51 2652.85 575.59 2654.23 583.72 2654.73C585.61 2654.83 586.39 2652.35 584.89 2651.29C563.45 2636.08 539.17 2625.15 517.28 2610.54C493.78 2594.85 472.37 2576.17 453.63 2555.02C447.09 2547.62 440.91 2539.94 435.05 2532.02C435.01 2531.94 434.96 2531.88 434.91 2531.77L434.91 2531.77C434.86 2531.69 434.81 2531.6 434.76 2531.52C434.59 2531.23 434.43 2530.94 434.27 2530.65C433.79 2529.67 433.33 2528.69 432.85 2527.71C413.64 2488.48 395.37 2448.79 377.65 2409.25C371.39 2395.27 365.28 2381.1 359.42 2366.77C357.56 2361.31 355.7 2355.85 353.97 2350.38C353.16 2347.83 352.4 2345.29 351.66 2342.77C351.39 2341.83 351.12 2340.9 350.85 2339.94C350.42 2338.44 350.01 2336.94 349.6 2335.44C349.27 2334.21 348.94 2332.98 348.62 2331.75C348.39 2330.88 348.19 2329.98 347.97 2329.08C346.88 2324.79 345.01 2320.5 345.01 2316.21C345.01 2316.12 345.01 2316.06 345.01 2315.98C345.01 2310.6 342.79 2305.23 342.02 2299.83C343 2299.42 343.83 2299.02 344.83 2298.69C344.89 2294.58 344.67 2290.48 344.77 2286.33C344.97 2278.25 345.01 2270.25 345.01 2262.29C345.01 2262.25 345.01 2262.21 345.01 2262.17C345.01 2260.81 345.68 2261.02 345.74 2261.02L346.31 2261.02C347.32 2236.58 348.86 2213.9 350.84 2191.9C358.88 2102.62 374.28 2021.26 392.03 1952.38C394.92 1954.99 397.84 1957.59 400.8 1960.13C438.59 1992.69 488.55 2018.64 535.3 1987.43C551.59 1976.55 564.92 1959.25 573.55 1939.7C596.26 1930.29 602.61 1894.32 604.1 1872.43C606.05 1843.87 598.19 1819.08 581.13 1796.46C580.36 1795.43 579.16 1795.29 578.11 1795.65C567.51 1783.23 556.06 1771.49 544.42 1759.93C556.78 1750.54 568.67 1742.33 579.81 1735.16C595.92 1714.34 616.62 1696.94 639.15 1686.18C647.71 1697.96 659 1706.27 671.67 1711.87C657.04 1694.92 646.15 1673 639.51 1654.78C633.95 1639.49 630.07 1622.62 628.28 1605.49C626.22 1585.7 626.96 1565.57 631.29 1547.14C631.34 1546.9 631.46 1546.75 631.55 1546.55C622.47 1526.18 602.38 1465.76 626.13 1451.72C627.35 1451 628.72 1451.57 629.65 1452.41C630.52 1453.18 631.25 1454.01 631.91 1454.87C638.87 1463.85 635.58 1477.09 637.08 1488.35C639.5 1506.51 645.96 1523.98 654.2 1540.26C662.44 1556.54 673.39 1571.49 686.7 1583.99C696.8 1593.48 709.4 1598.43 712.73 1612.54C713.57 1616.1 710.99 1619.69 707.54 1620.46C682.34 1626.08 656.23 1591.6 641.14 1565.25C640.15 1563.51 639.2 1561.81 638.31 1560.16C638.41 1563.94 638.58 1567.67 638.82 1571.37C640.56 1598.91 646.09 1624.23 659.11 1650.57C673.34 1679.36 697.16 1699.24 712.81 1726.24C713.25 1727 713.49 1727.78 713.59 1728.56C731.71 1733.02 750.96 1732.42 768.01 1724.98C773.14 1722.74 777.65 1720 781.66 1716.94C799.67 1715.03 816.94 1708.43 830.02 1696.73C832.27 1703.92 834.82 1711.05 837.71 1718.09C686.05 1812.65 734.79 2012.4 814.15 2138.21C855.29 2203.44 908.02 2261.85 969.72 2308.25C990.77 2324.08 1012.81 2338.52 1035.65 2351.6C1051.8 2367.58 1070.22 2384.1 1090.99 2400.48C1113.86 2408.5 1137.16 2415.44 1160.77 2420.77C1193.58 2428.21 1226.84 2429.56 1259.72 2435.62C1269.18 2437.38 1272.75 2453.31 1261.05 2454.44C1227.89 2457.6 1192.19 2453.83 1157.31 2446.4C1163.99 2450.44 1170.62 2454.31 1177.15 2457.96C1010.88 2415.06 852.08 2341.4 719.88 2230.58C713.54 2225.27 706.14 2234 708.81 2240.31C728.9 2287.71 749.38 2335 771.21 2381.65C715.94 2362.79 665.4 2332.77 621.64 2293.73C597.84 2272.48 576.3 2248.75 557.39 2223.06C538.74 2197.71 525.61 2166.44 504.46 2143.31C501.61 2140.19 497.13 2142.92 497.55 2146.75C500.98 2177.46 522.82 2208.46 540.61 2232.87C560.62 2260.35 583.67 2285.46 609.12 2307.96C660.46 2353.35 721.29 2386.54 786.52 2407.23C795 2409.94 802.17 2401.31 798.66 2393.4C779 2348.88 757.84 2305 736.26 2261.38C872.58 2358.79 1025.08 2431.85 1189.76 2464.81C1225.83 2483.9 1258.84 2497.1 1285.78 2506.25C1323.56 2506 1377.62 2501.85 1439.52 2483.85C1461.65 2449.27 1481.8 2413.6 1497.21 2374.15C1525.69 2301.23 1541.71 2224 1542.18 2145.62C1543.11 1990.75 1483.54 1834.26 1377.61 1721.03C1368.11 1710.87 1379.76 1696.05 1391.98 1699.64C1420.47 1707.99 1449.21 1715.68 1477.79 1723.83C1444.17 1664.19 1402.01 1610.13 1352.36 1562.6C1323.6 1535.08 1292.3 1510.21 1259.14 1488.18C1225.15 1465.59 1188.29 1447.32 1155.27 1423.36C1151.15 1420.36 1152.92 1412 1158.79 1413.06C1238 1427.32 1311.2 1484.56 1369.37 1537.43C1433.1 1595.36 1485.15 1665.63 1523.62 1742.59C1529.96 1755.29 1517.32 1768.61 1504.29 1764.65C1478.62 1756.83 1453.17 1748.18 1427.71 1739.58C1439.62 1754.85 1450.86 1770.58 1461.45 1786.69C1484.07 1806.69 1499.27 1835.29 1513.78 1861.23C1523.21 1878.1 1531.6 1895.52 1539.21 1913.28C1567.3 1950.3 1586.71 1995.29 1601.72 2038.1C1622.82 2098.29 1633.87 2161.52 1633.31 2225.33C1632.87 2276.1 1625.1 2327 1610.84 2375.83C1610.43 2376.71 1610 2377.6 1609.59 2378.5C1593.98 2411.46 1578.28 2444.35 1562.48 2477.21C1556.55 2489.54 1572.34 2499.23 1582.61 2494.85C1645.63 2468 1708.43 2440.73 1771.12 2413.13C1824.46 2389.62 1876.65 2363.31 1929.82 2339.46C1891.31 2386.92 1852.82 2434.4 1814.38 2481.9C1810.03 2487.27 1816.3 2493.13 1821.65 2492.73C2018.55 2478.19 2214.33 2432.15 2392.35 2345.6C2393.04 2345.25 2392.52 2344.27 2391.81 2344.54C2212.98 2413.85 2027.39 2462.19 1836.01 2477.54C1877.5 2426.69 1918.96 2375.79 1960.34 2324.85C1965.3 2318.75 1957.14 2311.67 1951.04 2314.27C1887.95 2341.17 1822.78 2363.44 1759.32 2389.6C1707.52 2410.94 1655.85 2432.58 1604.27 2454.42C1613.67 2433.48 1623.1 2412.56 1632.62 2391.69C1637.95 2380.02 1643.59 2368 1648.64 2355.71C1656.09 2343.96 1664.19 2330.29 1672.37 2314.94C1664.79 2336.79 1656.32 2358.4 1646.99 2379.71C1645.1 2384.02 1651.91 2387.27 1654.28 2383.35C1681.15 2338.79 1701.21 2289.94 1714.98 2239.25C1768.28 2240.71 1825.34 2230.38 1876.55 2221.62C1936.41 2211.4 1995.46 2196.62 2053.1 2177.5C2094.87 2163.65 2141.31 2147.48 2167.77 2109.85C2189.35 2079.16 2194.77 2034.75 2167.5 2006.21C2162.65 2001.12 2153.04 2006.84 2156.92 2013.35C2195.79 2078.96 2143.35 2120.1 2082.02 2146.02C2080.89 2138.69 2078.39 2132.75 2073.15 2128.31C2052.72 2087.58 1974.37 2069.19 1940.59 2058.94C1902.92 2047.5 1864.31 2039.16 1825.3 2033.78C1798.06 2030.03 1766.57 2024.7 1737.24 2025.7C1729.5 1877.89 1674.97 1737.45 1584.46 1621.46C1628.65 1622.57 1672.78 1625.06 1716.72 1629.16C1769.74 1630.53 1822.67 1634.84 1875.27 1642.38C1914.81 1648.04 1954.14 1655.35 1993.09 1664.27C1999.27 1584.18 1988.23 1503.36 1955.98 1426.96C1933.41 1373.52 1901.3 1325.7 1862.84 1283.33C1817.42 1233.3 1763.13 1190.86 1705.13 1155.79C1689.6 1146.41 1673.82 1137.55 1657.87 1129.21C1577.22 1087.07 1490.97 1062.58 1406.86 1029.18C1406.78 1029.15 1406.71 1029.11 1406.64 1029.07C1400.67 1027.38 1394.66 1025.81 1388.61 1024.57C1396.26 1063.2 1406.83 1099.72 1427.64 1133.74C1450.08 1170.42 1481.29 1197.66 1515.06 1223.53C1516.77 1224.84 1515.68 1228.36 1513.34 1227.31C1440.53 1194.65 1385.1 1104.02 1386.55 1024.08C1383.92 1023.3 1383.2 1020.75 1383.74 1018.4C1382.57 1018.07 1381.4 1017.74 1380.23 1017.41C1374.82 1015.86 1377.49 1007.17 1382.79 1009.06C1391.11 1012 1399.4 1014.94 1407.65 1017.96C1408.45 1017.81 1409.33 1017.8 1410.28 1017.99C1463.73 1028.53 1516.61 1046.18 1567.66 1067.33C1593.36 1077.98 1618.6 1089.49 1643.2 1101.46C1711.75 1134.83 1776.5 1176.29 1832.9 1227.78C1892.14 1281.86 1938.62 1347.48 1969.17 1419.89C1994.43 1479.73 2008.82 1544.2 2010.44 1610.66C2010.91 1629.63 2010.32 1648.79 2008.65 1667.93C2025.19 1671.91 2041.66 1676.19 2058.05 1680.77C2091.54 1690.15 2124.69 1700.75 2157.38 1712.64C2202.38 1729.01 2246.13 1748.01 2288.9 1769.51C2324.17 1787.24 2371.27 1807.04 2400.96 1836.18C2365.38 1755.71 2329.79 1675.24 2294.21 1594.77L2200.92 1327.71C2191.5 1272.9 2184.42 1196.41 2195.04 1106.43C2203.92 1031.14 2222.54 968.65 2240.35 921.9C2259.52 889.37 2312.08 810.43 2414.6 762.39C2432.44 754.03 2558.79 697.16 2703.62 744.12C2773.83 766.89 2816.85 803.84 2877.21 855.68C2928.71 899.92 2970.38 945.36 3003.81 987.72C3000.33 986.48 2996.81 985.41 2993.27 984.53C2993.35 983.88 2993.54 983.24 2993.6 982.58C2993.79 980.72 2991.54 979.1 2989.85 980.11C2958.17 999.13 2944.46 1057.69 2937.44 1091.22C2934.23 1106.54 2930.52 1126.09 2929.06 1145.94C2930.42 1147.25 2931.75 1148.57 2933.04 1149.89C2932.67 1150.25 2932.33 1150.64 2932.04 1151.06C2927.19 1145.17 2922.31 1139.29 2917.5 1133.37C2915.1 1130.43 2912.75 1127.36 2910.4 1124.26C2909.08 1121.93 2907.77 1119.62 2906.44 1117.31C2887.52 1084.57 2863.54 1041.18 2830.67 1020.99C2827.42 1018.99 2823.29 1022.37 2825.04 1025.94C2833.67 1043.56 2848.1 1058.18 2859.69 1073.95C2862.96 1078.37 2866.15 1082.84 2869.29 1087.34C2867.94 1088.13 2867.04 1089.77 2867.4 1091.31C2871.48 1108.28 2884.1 1120.54 2895.04 1133.8C2902.56 1142.93 2910.12 1152.05 2917.69 1161.16C2914.73 1158.3 2911.6 1155.57 2908.38 1152.94C2911.44 1159.14 2914.38 1165.38 2917.23 1171.66C2884.69 1148.71 2839.94 1141 2799.77 1145.53C2785.75 1133.73 2770.1 1123.95 2754.67 1116.59C2709.46 1095.03 2660.15 1094.93 2614.23 1114.58C2518.9 1155.39 2483.88 1257.42 2503.33 1354.15C2525.19 1462.7 2594.19 1559.6 2657.6 1647.72C2721.35 1736.32 2789.15 1824.36 2826.44 1928.19C2844.58 1978.72 2851.83 2031.48 2848.81 2084.96C2847.35 2110.46 2844.04 2135.6 2837.06 2160.23C2830.5 2183.42 2821.13 2203.35 2823.44 2227.77C2824.17 2235.46 2834.58 2242.54 2842.02 2239.96C2885.71 2224.9 2904.4 2170 2913.85 2126.31ZM2277.71 1343.09C2278.6 1316.19 2266.94 1288.54 2262.63 1261.94C2257.94 1233.09 2255.4 1203.83 2255.29 1174.6C2255.21 1146 2257.35 1117.4 2261.75 1089.14C2265.58 1064.4 2274.94 1038.49 2272.25 1013.37C2272.02 1011.16 2269.15 1011.16 2268 1012.54C2250.4 1033.78 2246.73 1065.83 2242.62 1092.41C2238.02 1122.15 2235.92 1152.32 2236.31 1182.41C2236.71 1211.88 2239.35 1241.29 2244.56 1270.3C2249.08 1295.5 2252.81 1325.32 2268.69 1346.17C2271.42 1349.76 2277.58 1347.39 2277.71 1343.09ZM493.51 2081.48C490.73 2071.73 488.32 2061.25 483.46 2052.31C481.35 2048.44 474.19 2049.1 474.35 2054.16C474.68 2064.36 477.66 2074.39 480.19 2084.25C480.88 2086.94 483.38 2089.79 486.42 2089.65C487.69 2089.6 488.74 2089.52 489.9 2088.94C492.46 2087.69 494.33 2084.33 493.51 2081.48ZM2368.83 1986.45C2368.67 1986.32 2368.48 1986.19 2368.31 1986.06C2368.17 1987.58 2368.02 1989.1 2367.85 1990.61C2368.21 1989.21 2368.52 1987.83 2368.83 1986.45ZM2783.54 907.2C2789.33 910.73 2796.56 909.57 2801.52 905.14C2806.21 900.94 2808.96 892.27 2805.19 886.61C2802.92 883.18 2799.83 881.05 2795.85 881.06C2792.92 878.51 2788.23 878.13 2784.77 879.66C2773.71 884.55 2773.62 901.16 2783.54 907.2ZM2611.23 764.31C2614.42 764.71 2614.94 760.17 2612.29 759.06C2540.77 729.07 2451.46 745.35 2388.29 787.44C2355.19 809.49 2327.48 839.85 2307.52 874.22C2292.58 899.96 2269.56 940.6 2281.52 970.67C2282.71 973.65 2287.71 974.79 2289.92 972.3C2309.48 950.37 2313 913.65 2327.75 887.86C2345.33 857.14 2369.17 830.76 2397.42 809.51C2460.48 762.05 2535.44 754.66 2611.23 764.31ZM1611.22 1698.02C1626.37 1721.4 1640.19 1745.68 1652.37 1770.92C1639.95 1747.76 1625.49 1723.34 1608.7 1698.25C1609.53 1698.13 1610.37 1698.05 1611.22 1698.02ZM1553.7 1620.9C1570.58 1640.74 1586.41 1661.41 1601.11 1682.86C1600.17 1682.92 1599.23 1682.97 1598.28 1683.03C1583.94 1662.56 1568.02 1641.73 1550.34 1620.85C1551.46 1620.86 1552.58 1620.89 1553.7 1620.9ZM858.43 1702.52C858.25 1702.64 858.08 1702.76 857.9 1702.87C857.74 1702.45 857.59 1702.04 857.43 1701.61C857.76 1701.92 858.1 1702.22 858.43 1702.52Z" /><path id="Path 8" class="shp4" d="M2799.77 1145.53C2785.75 1133.73 2770.1 1123.95 2754.67 1116.59C2709.46 1095.03 2660.15 1094.93 2614.23 1114.58C2518.9 1155.39 2483.88 1257.42 2503.33 1354.15C2525.19 1462.7 2594.19 1559.6 2657.6 1647.72C2721.35 1736.32 2789.15 1824.36 2826.44 1928.19C2844.58 1978.72 2851.83 2031.48 2848.81 2084.96C2847.35 2110.46 2844.04 2135.6 2837.06 2160.23C2830.5 2183.42 2821.13 2203.35 2823.44 2227.77C2824.17 2235.46 2834.58 2242.54 2842.02 2239.96C2885.71 2224.9 2904.4 2170 2913.85 2126.31C2914.79 2122.02 2915.63 2117.85 2916.4 2113.83C2925.04 2068.51 2922.83 2020.71 2914.02 1975.12C2912.4 1981.32 2909.48 1986.98 2904.58 1991.45C2902.96 1992.94 2899.81 1992.52 2898.92 1990.35C2892.73 1975.1 2897.27 1957.24 2895.1 1941.14C2892.65 1923.03 2888.42 1904.98 2882.75 1887.62C2882.23 1886 2884.42 1885.4 2885.4 1886.3C2886.87 1887.65 2888.27 1889.03 2889.63 1890.44C2824.56 1720.56 2679.58 1593.75 2600.44 1430.47C2598.33 1426.12 2596.25 1421.69 2594.19 1417.19C2579.9 1385.88 2567.42 1351.44 2562.19 1317.34C2554.02 1263.98 2563.65 1211.46 2611.98 1173.11C2644.23 1147.51 2686.96 1137.76 2727.42 1144.36C2739.73 1146.37 2750.88 1149.84 2761.12 1154.48C2761.85 1154.07 2762.65 1153.71 2763.54 1153.41C2774.79 1149.62 2787.06 1146.96 2799.77 1145.53Z" /><path id="Path 9" fill-rule="evenodd" class="shp2" d="M631.91 1454.87C636.46 1448.79 645.42 1447.4 652.79 1453.9C694.95 1491.09 735.62 1529.99 773.63 1571.43C788.18 1587.3 803.67 1603.55 818.56 1620.42C818.34 1645.91 822.2 1671.72 830.02 1696.73C816.94 1708.43 799.67 1715.03 781.66 1716.94C777.65 1720 773.14 1722.74 768.01 1724.98C750.96 1732.42 731.71 1733.02 713.59 1728.56C713.49 1727.78 713.25 1727 712.81 1726.24C697.16 1699.24 673.34 1679.36 659.11 1650.57C646.09 1624.23 640.56 1598.91 638.82 1571.37C639.59 1569.31 640.36 1567.26 641.14 1565.25C656.23 1591.6 682.34 1626.08 707.54 1620.46C710.99 1619.69 713.57 1616.1 712.73 1612.54C709.4 1598.43 696.8 1593.48 686.7 1583.99C673.39 1571.49 662.44 1556.54 654.2 1540.26C645.96 1523.98 639.5 1506.51 637.08 1488.35C635.58 1477.09 638.87 1463.85 631.91 1454.87ZM660.08 1496.96C660.46 1499.57 660.97 1502.15 661.39 1504.75C662.23 1503.35 663.24 1502.06 664.42 1500.96C662.96 1499.64 661.54 1498.28 660.08 1496.96ZM639.15 1686.18C638.43 1685.19 637.72 1684.18 637.04 1683.14C621.74 1659.78 622.17 1632.11 628.28 1605.49C630.07 1622.62 633.95 1639.49 639.51 1654.78C646.15 1673 657.04 1694.92 671.67 1711.87C659 1706.27 647.71 1697.96 639.15 1686.18Z" /><path id="Path 10" class="shp1" d="M1737.86 2083.6C1736.26 2135.67 1728.8 2188.38 1714.98 2239.25C1768.28 2240.71 1825.34 2230.38 1876.55 2221.62C1936.41 2211.4 1995.46 2196.62 2053.1 2177.5C2094.87 2163.65 2141.31 2147.48 2167.77 2109.85C2189.35 2079.16 2194.77 2034.75 2167.5 2006.21C2162.65 2001.12 2153.04 2006.84 2156.92 2013.35C2195.79 2078.96 2143.35 2120.1 2082.02 2146.02C2080.89 2138.69 2078.39 2132.75 2073.15 2128.31C2052.72 2087.58 1974.37 2069.19 1940.59 2058.94C1902.92 2047.5 1864.31 2039.16 1825.3 2033.78C1798.06 2030.03 1766.57 2024.7 1737.24 2025.7C1737.6 2032.67 1737.86 2039.65 1738.01 2046.65C1738.44 2059.19 1738.38 2071.51 1737.86 2083.6Z" /><path id="Path 11" class="shp2" d="M960.46 1244.75C1018.64 1258.42 1076.09 1278.43 1131.97 1302.11C1055.2 1263.65 984.23 1239.31 925.94 1223.55C925.32 1226.05 924.71 1228.7 924.12 1231.47C935.1 1235.81 946.04 1240.14 956.93 1244.58C958.01 1244.41 959.19 1244.45 960.46 1244.75Z" /><path id="Path 12" fill-rule="evenodd" class="shp2" d="M944.86 1367.14C943.24 1367.88 941.69 1368.69 940.17 1369.53C931.18 1350.27 920.79 1320.92 919.5 1284.25C918.96 1268.97 920.1 1255.13 921.98 1243.11C922.9 1243.41 923.83 1243.71 924.76 1244.01C923.93 1247.12 924.77 1250.56 928.22 1251.76C922.38 1359.12 992.51 1483.61 1088.77 1531.05C1091.87 1532.58 1093.5 1527.9 1091.27 1526.05C1047.15 1489.64 1006.53 1451.52 978.16 1401.14C951.83 1354.4 939.41 1304.81 931.01 1252.51C939.05 1254.47 947.02 1256.85 954.93 1259.41C955.07 1259.48 955.18 1259.56 955.32 1259.62C1066.73 1308.59 1181.43 1345.7 1287.76 1406.25C1386.48 1462.47 1479.74 1533.96 1553.7 1620.9C1552.58 1620.89 1551.46 1620.86 1550.34 1620.85C1568.02 1641.73 1583.94 1662.56 1598.28 1683.03C1599.23 1682.97 1600.17 1682.92 1601.11 1682.86C1604.55 1687.87 1607.91 1692.92 1611.22 1698.02C1610.37 1698.05 1609.53 1698.13 1608.7 1698.25C1625.49 1723.34 1639.95 1747.76 1652.37 1770.92C1660.22 1787.18 1667.42 1803.83 1673.9 1820.87C1735.2 1982.11 1727.83 2155.1 1672.37 2314.94C1664.19 2330.29 1656.09 2343.96 1648.64 2355.71C1643.59 2368 1637.95 2380.02 1632.62 2391.69C1623.1 2412.56 1613.67 2433.48 1604.27 2454.42C1655.85 2432.58 1707.52 2410.94 1759.32 2389.6C1822.78 2363.44 1887.95 2341.17 1951.04 2314.27C1957.14 2311.67 1965.3 2318.75 1960.34 2324.85C1918.96 2375.79 1877.5 2426.69 1836.01 2477.54C2027.39 2462.19 2212.98 2413.85 2391.81 2344.54C2392.52 2344.27 2393.04 2345.25 2392.35 2345.6C2214.33 2432.15 2018.55 2478.19 1821.65 2492.73C1816.3 2493.13 1810.03 2487.27 1814.38 2481.9C1852.82 2434.4 1891.31 2386.92 1929.82 2339.46C1876.65 2363.31 1824.46 2389.62 1771.12 2413.13C1708.43 2440.73 1645.63 2468 1582.61 2494.85C1572.34 2499.23 1556.55 2489.54 1562.48 2477.21C1578.28 2444.35 1593.98 2411.46 1609.59 2378.5C1610 2377.6 1610.43 2376.71 1610.84 2375.83C1625.1 2327 1632.87 2276.1 1633.31 2225.33C1633.87 2161.52 1622.82 2098.29 1601.72 2038.1C1586.71 1995.29 1567.3 1950.3 1539.21 1913.28C1531.6 1895.52 1523.21 1878.1 1513.78 1861.23C1499.27 1835.29 1484.07 1806.69 1461.45 1786.69C1450.86 1770.58 1439.62 1754.85 1427.71 1739.58C1453.17 1748.18 1478.62 1756.83 1504.29 1764.65C1517.32 1768.61 1529.96 1755.29 1523.62 1742.59C1485.15 1665.63 1433.1 1595.36 1369.37 1537.43C1311.2 1484.56 1238 1427.32 1158.79 1413.06C1152.92 1412 1151.15 1420.36 1155.27 1423.36C1188.29 1447.32 1225.15 1465.59 1259.14 1488.18C1292.3 1510.21 1323.6 1535.08 1352.36 1562.6C1402.01 1610.13 1444.17 1664.19 1477.79 1723.83C1449.21 1715.68 1420.47 1707.99 1391.98 1699.64C1379.76 1696.05 1368.11 1710.87 1377.61 1721.03C1483.54 1834.26 1543.11 1990.75 1542.18 2145.62C1541.71 2224 1525.69 2301.23 1497.21 2374.15C1481.8 2413.6 1461.65 2449.27 1439.52 2483.85C1377.62 2501.85 1323.56 2506 1285.78 2506.25C1258.84 2497.1 1225.83 2483.9 1189.76 2464.81C1025.08 2431.85 872.58 2358.79 736.26 2261.38C757.84 2305 779 2348.88 798.66 2393.4C802.17 2401.31 795 2409.94 786.52 2407.23C721.29 2386.54 660.46 2353.35 609.12 2307.96C583.67 2285.46 560.62 2260.35 540.61 2232.87C522.82 2208.46 500.98 2177.46 497.55 2146.75C497.13 2142.92 501.61 2140.19 504.46 2143.31C525.61 2166.44 538.74 2197.71 557.39 2223.06C576.3 2248.75 597.84 2272.48 621.64 2293.73C665.4 2332.77 715.94 2362.79 771.21 2381.65C749.38 2335 728.9 2287.71 708.81 2240.31C706.14 2234 713.54 2225.27 719.88 2230.58C852.08 2341.4 1010.88 2415.06 1177.15 2457.96C1170.62 2454.31 1163.99 2450.44 1157.31 2446.4C1192.19 2453.83 1227.89 2457.6 1261.05 2454.44C1272.75 2453.31 1269.18 2437.38 1259.72 2435.62C1226.84 2429.56 1193.58 2428.21 1160.77 2420.77C1137.16 2415.44 1113.86 2408.5 1090.99 2400.48C1070.22 2384.1 1051.8 2367.58 1035.65 2351.6C1046.09 2357.58 1056.68 2363.31 1067.45 2368.73C1098.57 2384.33 1136.63 2401.56 1171.39 2406C1175.19 2406.48 1177.38 2400.56 1173.88 2398.71C1159.96 2391.29 1144.7 2387.21 1130.28 2380.88C1112.44 2373.06 1094.75 2362.94 1077.53 2353.75C1048.21 2338.13 1020.16 2320.19 993.57 2300.27C989.57 2297.27 985.61 2294.23 981.68 2291.15C981.31 2290.69 980.92 2290.19 980.55 2289.73C959.85 2257.31 937.65 2218.46 916.53 2173.42C912.77 2169.29 909.09 2165.1 905.49 2160.83C920.18 2172.67 935.98 2183.35 950.78 2193.27C976.63 2210.6 1010.03 2230.42 1041.4 2234.02C1044.38 2234.37 1045.52 2230.25 1043.22 2228.67C1015.94 2209.67 982.51 2198.31 953.61 2181.48C926.9 2165.92 904.58 2145.54 879.91 2127.6C871.97 2116.27 864.55 2104.58 857.7 2092.58C853.29 2085.15 849.03 2077.63 845.09 2069.96C830.1 2040.82 819.12 2010.85 811.69 1980.34C795.65 1920.75 790.8 1856.31 807.13 1800.6C807.56 1798.1 807.93 1795.61 808.41 1793.11C807.59 1792.86 806.85 1792.27 806.72 1791.38C805.51 1782.94 807.11 1780.86 812.42 1775.24C814.29 1761.63 818.64 1747.74 826.78 1734.61C831.08 1730.91 835.56 1727.37 840.28 1724.05C842.31 1728.64 844.42 1733.19 846.72 1737.68C873.06 1789.2 912.95 1832.48 958.91 1867.19C1003.06 1900.51 1063.14 1940.8 1119.17 1948.04C1123.94 1948.65 1125.09 1942.42 1121.95 1939.88C1100.91 1922.92 1074.8 1912.57 1051.11 1899.77C1027.09 1886.8 1003.72 1872.61 981.66 1856.5C939.21 1825.49 901.56 1787.04 875.64 1741.02C868.82 1728.9 862.88 1716.11 857.9 1702.87C858.08 1702.76 858.25 1702.64 858.43 1702.52C858.1 1702.22 857.76 1701.92 857.43 1701.61C851.37 1685.27 846.8 1668.25 843.89 1651C851.22 1660.55 858.12 1670.32 864.32 1680.38C852.46 1651.27 834.75 1591.14 859.7 1528.25C870.01 1502.26 884.79 1482.91 897.42 1469.56C896.58 1468.2 895.82 1466.81 895.1 1465.4C897.05 1463.45 899.03 1461.53 901.09 1459.64C901.19 1463.23 901.37 1466.78 901.69 1470.21C906.35 1520.28 925.53 1570.51 951.7 1613.14C977.61 1655.34 1011.23 1692.84 1051.06 1722.35C1088.26 1749.9 1136.85 1778.73 1184.21 1780.74C1186.34 1780.83 1187.87 1777.56 1185.68 1776.45C1147.01 1756.84 1107.11 1743.58 1071.3 1718.13C1035.59 1692.74 1004.02 1661.17 978.76 1625.37C951.88 1587.28 931.75 1543.87 921.2 1498.42C911.69 1457.42 908.18 1409.04 939.13 1378.02C941.54 1377.66 943.31 1377.53 944.07 1377.49C943.61 1376.6 943.14 1375.65 942.66 1374.69C944.16 1373.37 945.7 1372.06 947.34 1370.81C949.44 1369.21 947.07 1366.14 944.86 1367.14ZM1140.69 1898.61C1115.11 1881.77 1081.31 1876.46 1053.53 1862.97C1025.09 1849.16 1000.03 1828.8 971.64 1815.6C968.71 1814.23 966.94 1818.21 968.48 1820.31C986.95 1845.46 1019.99 1863.52 1047.77 1876.65C1074.92 1889.49 1109.4 1906.27 1140.15 1901.37C1141.46 1901.16 1141.75 1899.31 1140.69 1898.61ZM1119.53 1712.42C1145.73 1743.55 1204.24 1759.82 1242.47 1745.54C1246.8 1743.93 1244.52 1738.1 1240.85 1737.54C1219.3 1734.27 1198.33 1735.13 1177.05 1729.07C1158.04 1723.66 1141.5 1714.05 1123.32 1706.76C1119.94 1705.41 1117.36 1709.85 1119.53 1712.42ZM894.6 1456.8C894.55 1456.87 894.5 1456.93 894.45 1457C898.33 1451.67 896.66 1445.16 892.72 1441.24C893.83 1439.26 894.66 1437.03 895.13 1434.54C895.31 1433.55 895.41 1432.57 895.47 1431.6C902.01 1420.62 903.31 1409.13 902.04 1397.2C908.96 1389.45 917.15 1384.76 924.49 1381.91C907.72 1400.11 901.41 1427.31 901.04 1452.62C900.36 1452.58 899.64 1452.74 898.95 1453.27C897.47 1454.43 896.04 1455.62 894.6 1456.8ZM1737.86 2083.6C1737.99 2079.19 1738.1 2074.78 1738.15 2070.38C1738.25 2062.45 1738.19 2054.54 1738.01 2046.65C1738.44 2059.19 1738.38 2071.51 1737.86 2083.6Z" /><path id="Path 13" fill-rule="evenodd" class="shp4" d="M400.8 1960.13C397.84 1957.59 394.92 1954.99 392.03 1952.38C357.6 1921.33 327.59 1885.82 302.59 1846.71C275.35 1804.09 250.6 1755.6 248.59 1704.76C248.5 1702.56 249.61 1701.29 251.1 1700.74C238.23 1670.7 231.96 1638.83 232.97 1606.15C233.06 1603.19 235.97 1558.09 246.84 1555.34C245.17 1560.13 245.01 1565.77 244.49 1570.81C243.29 1582.25 243.23 1593.75 244.09 1605.21C245.74 1627.28 251.25 1648.81 259.06 1669.47C267.39 1691.49 280.68 1711.94 296.43 1729.39C309.45 1743.81 327.84 1760.47 347.65 1763.83C350.22 1764.27 351.4 1760.85 349.97 1759.13C337.37 1743.97 319.66 1732.8 306.3 1718.01C292.08 1702.28 281.1 1684.34 271.97 1665.27C262.83 1646.17 257.52 1625.47 255.57 1604.4C254.62 1594.15 254.59 1583.8 255.41 1573.55C255.75 1569.21 256.99 1564.47 257.42 1559.86C261.91 1573 267.44 1585.79 274.04 1597.92C296.82 1639.76 335.08 1683.41 381.61 1698.77C384.3 1699.66 385.98 1696.05 383.78 1694.43C363.78 1679.74 343.43 1666.49 326.15 1648.41C309.6 1631.09 295.27 1611.71 283.9 1590.63C272.17 1568.88 263.42 1545.75 258.5 1521.5C256.28 1510.56 254.94 1499.51 254.11 1488.38C253.51 1480.25 256.06 1468.07 249.91 1461.78C249.66 1461.53 249.3 1461.5 249.02 1461.72C248.59 1462.07 248.2 1462.45 247.83 1462.85C248.61 1451.36 250.04 1440.06 252.19 1429.13C254.75 1416.09 270.38 1411.76 277.72 1423.94C320.99 1495.78 369.52 1564.21 423.31 1628.57C449.1 1659.44 475.81 1689.75 503.48 1718.95C516.71 1732.91 530.7 1746.3 544.42 1759.93C556.06 1771.49 567.51 1783.23 578.11 1795.65C579.16 1795.29 580.36 1795.43 581.13 1796.46C598.19 1819.08 606.05 1843.87 604.1 1872.43C602.61 1894.32 596.26 1930.29 573.55 1939.7C564.92 1959.25 551.59 1976.55 535.3 1987.43C488.55 2018.64 438.59 1992.69 400.8 1960.13ZM367.21 1798.71C361.43 1789.62 355.44 1781.04 348.91 1772.51C348.94 1772.05 348.98 1771.58 349.01 1771.12C349.46 1764.7 341.53 1760.88 336.74 1765.09C331.95 1769.3 334.71 1777.65 341.15 1778.03C341.62 1778.05 342.08 1778.08 342.55 1778.11C350.17 1785.67 357.91 1792.71 366.19 1799.61C366.72 1800.05 367.58 1799.29 367.21 1798.71ZM285.81 1485.72C282.29 1480.47 278.77 1475.22 275.3 1469.93C275.27 1472.07 275.36 1474.21 275.38 1476.35C277.33 1479.14 279.28 1481.92 281.23 1484.71C282.79 1484.81 284.34 1485.12 285.81 1485.72ZM418.15 1689.36C435.36 1710.26 451.36 1733.3 473.18 1749.65C473.97 1750.25 474.9 1749.26 474.54 1748.45C463.54 1723.33 444.54 1702.32 428.02 1680.68C409.7 1656.68 391.83 1631.6 371.44 1609.31C365.56 1602.88 356.91 1611.19 361.57 1618C378.63 1642.92 398.95 1666.05 418.15 1689.36ZM965.93 2804.42C965.97 2804.27 966.02 2804.15 966.06 2804C966.93 2801.19 969.43 2798.85 973.18 2799.04C1025.2 2801.56 1076.99 2814.17 1128.43 2822.08C1180.32 2830.06 1232.41 2836.44 1284.64 2841.69C1387.73 2852.02 1490.98 2858.31 1594.62 2858.35C1804.77 2858.44 2015 2835.21 2220.48 2791.35C2334.44 2767.02 2447.48 2736.29 2559.58 2704.65C2563.06 2703.67 2564.81 2709.23 2561.54 2710.62C2468.92 2750.46 2372.94 2781.85 2275.19 2806.69C2273.06 2807.23 2270.94 2807.77 2268.79 2808.31C2164.19 2834.56 2057.56 2853.37 1950.83 2866.9C1741.26 2893.46 1528.1 2896.02 1317.85 2876.13C1258.09 2870.48 1198.58 2861.98 1139.41 2851.96C1083.09 2842.42 1023.3 2834.23 970.14 2812.67C969.25 2812.31 968.5 2811.83 967.89 2811.27C965.91 2809.46 965.35 2806.79 965.93 2804.42Z" /><path id="Path 14" fill-rule="evenodd" class="shp5" d="M3123.37 1109.43C3155.25 1173.03 3160.02 1247.69 3138.77 1315.4C3117.83 1382.22 3070.94 1438.09 3016.25 1480.48C2987.4 1502.85 2956.08 1521.88 2923.96 1539.16C2889.6 1557.66 2852.4 1579.46 2814.35 1589.06C2811.1 1591.39 2805.62 1591.14 2803.29 1587.85C2802.58 1586.86 2801.94 1585.83 2801.23 1584.83C2800.6 1584.04 2800 1583.21 2799.54 1582.32C2760.35 1524.52 2745.25 1454.15 2759.5 1385.25C2774.04 1314.88 2837.48 1233.9 2769.81 1171.93C2757.46 1176.27 2750.9 1160.31 2761.12 1154.48C2761.85 1154.07 2762.65 1153.71 2763.54 1153.41C2774.79 1149.62 2787.06 1146.96 2799.77 1145.53C2839.94 1141 2884.69 1148.71 2917.23 1171.66C2914.38 1165.38 2911.44 1159.14 2908.38 1152.94C2911.6 1155.57 2914.73 1158.3 2917.69 1161.16C2910.12 1152.05 2902.56 1142.93 2895.04 1133.8C2884.1 1120.54 2871.48 1108.28 2867.4 1091.31C2867.04 1089.77 2867.94 1088.13 2869.29 1087.34C2866.15 1082.84 2862.96 1078.37 2859.69 1073.95C2848.1 1058.18 2833.67 1043.56 2825.04 1025.94C2823.29 1022.37 2827.42 1018.99 2830.67 1020.99C2863.54 1041.18 2887.52 1084.57 2906.44 1117.31C2907.77 1119.62 2909.08 1121.93 2910.4 1124.26C2912.75 1127.36 2915.1 1130.43 2917.5 1133.37C2922.31 1139.29 2927.19 1145.17 2932.04 1151.06C2932.33 1150.64 2932.67 1150.25 2933.04 1149.89C2931.75 1148.57 2930.42 1147.25 2929.06 1145.94C2930.52 1126.09 2934.23 1106.54 2937.44 1091.22C2944.46 1057.69 2958.17 999.13 2989.85 980.11C2991.54 979.1 2993.79 980.72 2993.6 982.58C2993.54 983.24 2993.35 983.88 2993.27 984.53C2996.81 985.41 3000.33 986.48 3003.81 987.72C3055.79 1006.27 3100.35 1063.48 3123.37 1109.43ZM3084.42 1337.74C3076.48 1351.42 3067.08 1365.06 3060.62 1379.5C3060.17 1380.51 3061.69 1381.16 3062.29 1380.34C3071.44 1367.55 3078.42 1352.61 3086.17 1338.92C3086.83 1337.74 3085.08 1336.56 3084.42 1337.74ZM2975.44 1235.56C2964.75 1217.49 2950.67 1200.82 2938.1 1185.75C2942.04 1191.72 2945.6 1197.97 2948.67 1204.58C2971.75 1254.59 2964.6 1306.66 2932.71 1350.81C2888 1412.7 2795.92 1466.01 2805.77 1554.04C2805.96 1555.69 2808.42 1555.35 2808.56 1553.85C2820.29 1442.2 2947.48 1401.01 2972.23 1295.67C2976.83 1276.09 2978 1255.54 2975.44 1235.56ZM2958.92 1184.15C2958.98 1184.23 2959.02 1184.3 2959.08 1184.38C2959.06 1184.32 2959.02 1184.26 2959 1184.2C2958.96 1184.19 2958.94 1184.17 2958.92 1184.15ZM3125.65 1209.49C3122.06 1182.14 3109.71 1143.07 3085.67 1127.44C3083.71 1126.17 3080.29 1127.91 3081.15 1130.47C3090.19 1157.66 3106.44 1179.34 3111.54 1208.62C3117.48 1242.73 3118.81 1272.59 3105.02 1305.11C3104.6 1306.09 3106.15 1306.6 3106.58 1305.65C3119.46 1276.7 3129.81 1241.52 3125.65 1209.49ZM2784.77 879.66C2788.23 878.13 2792.92 878.51 2795.85 881.06C2799.83 881.05 2802.92 883.18 2805.19 886.61C2808.96 892.27 2806.21 900.94 2801.52 905.14C2796.56 909.57 2789.33 910.73 2783.54 907.2C2773.62 901.16 2773.71 884.55 2784.77 879.66Z" /><path id="Path 15" class="shp3" d="M2959 1184.2C2958.96 1184.19 2958.94 1184.17 2958.92 1184.15C2958.98 1184.23 2959.02 1184.3 2959.08 1184.38C2959.06 1184.32 2959.02 1184.26 2959 1184.2ZM2938.1 1185.75C2942.04 1191.72 2945.6 1197.97 2948.67 1204.58C2971.75 1254.59 2964.6 1306.66 2932.71 1350.81C2888 1412.7 2795.92 1466.01 2805.77 1554.04C2805.96 1555.69 2808.42 1555.35 2808.56 1553.85C2820.29 1442.2 2947.48 1401.01 2972.23 1295.67C2976.83 1276.09 2978 1255.54 2975.44 1235.56C2964.75 1217.49 2950.67 1200.82 2938.1 1185.75Z" /><path id="Path 16" class="shp2" d="M3085.67 1127.44C3083.71 1126.17 3080.29 1127.91 3081.15 1130.47C3090.19 1157.66 3106.44 1179.34 3111.54 1208.62C3117.48 1242.73 3118.81 1272.59 3105.02 1305.11C3104.6 1306.09 3106.15 1306.6 3106.58 1305.65C3119.46 1276.7 3129.81 1241.52 3125.65 1209.49C3122.06 1182.14 3109.71 1143.07 3085.67 1127.44ZM3084.42 1337.74C3076.48 1351.42 3067.08 1365.06 3060.62 1379.5C3060.17 1380.51 3061.69 1381.16 3062.29 1380.34C3071.44 1367.55 3078.42 1352.61 3086.17 1338.92C3086.83 1337.74 3085.08 1336.56 3084.42 1337.74ZM2611.23 764.31C2614.42 764.71 2614.94 760.17 2612.29 759.06C2540.77 729.07 2451.46 745.35 2388.29 787.44C2355.19 809.49 2327.48 839.85 2307.52 874.22C2292.58 899.96 2269.56 940.6 2281.52 970.67C2282.71 973.65 2287.71 974.79 2289.92 972.3C2309.48 950.37 2313 913.65 2327.75 887.86C2345.33 857.14 2369.17 830.76 2397.42 809.51C2460.48 762.05 2535.44 754.66 2611.23 764.31ZM2255.29 1174.6C2255.21 1146 2257.35 1117.4 2261.75 1089.14C2265.58 1064.4 2274.94 1038.49 2272.25 1013.37C2272.02 1011.16 2269.15 1011.16 2268 1012.54C2250.4 1033.78 2246.73 1065.83 2242.62 1092.41C2238.02 1122.15 2235.92 1152.32 2236.31 1182.41C2236.71 1211.88 2239.35 1241.29 2244.56 1270.3C2249.08 1295.5 2252.81 1325.32 2268.69 1346.17C2271.42 1349.76 2277.58 1347.39 2277.71 1343.09C2278.6 1316.19 2266.94 1288.54 2262.63 1261.94C2257.94 1233.09 2255.4 1203.83 2255.29 1174.6ZM2877.81 2270.46C2889.77 2255.98 2900.08 2239.73 2908.75 2222.52C2921.77 2196.73 2931.04 2168.77 2936.29 2141.23C2946.06 2090 2941.35 2044.59 2925.02 1995.55C2924.42 1993.72 2921.71 1994.18 2922.04 1996.17C2930.83 2047.37 2927.52 2098.31 2914.25 2146.71C2903.31 2186.63 2885.6 2224.79 2862.23 2259.96C2855.4 2270.25 2870.27 2279.63 2877.81 2270.46ZM2835.17 2433.21C2837.12 2432.27 2839.02 2431.23 2840.9 2430.1C2846.02 2427.04 2850.9 2423.35 2855.44 2419.1C2855.79 2418.77 2856.15 2418.44 2856.5 2418.1C2856.85 2417.75 2857.21 2417.4 2857.56 2417.02C2886.12 2388.67 2902 2339.02 2900.79 2299.92C2900.6 2293.98 2900.04 2288.29 2899.06 2282.94C2899.02 2282.81 2898.83 2282.83 2898.83 2282.96C2894.29 2311.67 2889.35 2338.65 2876.4 2364.98C2871.08 2375.77 2864.21 2385.02 2856.94 2393.88C2847.87 2404.92 2838.21 2415.4 2830.21 2427.58C2828.06 2430.85 2831.67 2434.87 2835.17 2433.21Z" /><path id="Path 17" class="shp4" d="M837.71 1718.09C686.05 1812.65 734.79 2012.4 814.15 2138.21C855.29 2203.44 908.02 2261.85 969.72 2308.25C990.77 2324.08 1012.81 2338.52 1035.65 2351.6C1046.09 2357.58 1056.68 2363.31 1067.45 2368.73C1098.57 2384.33 1136.63 2401.56 1171.39 2406C1175.19 2406.48 1177.38 2400.56 1173.88 2398.71C1159.96 2391.29 1144.7 2387.21 1130.28 2380.88C1112.44 2373.06 1094.75 2362.94 1077.53 2353.75C1048.21 2338.13 1020.16 2320.19 993.57 2300.27C989.57 2297.27 985.61 2294.23 981.68 2291.15C929.95 2250.65 883.96 2202.81 846.64 2148.67C802.22 2084.25 765.26 2008.05 757.93 1929.33C751.34 1858.48 772.04 1781.72 826.78 1734.61C831.08 1730.91 835.56 1727.37 840.28 1724.05C842.31 1728.64 844.42 1733.19 846.72 1737.68C873.06 1789.2 912.95 1832.48 958.91 1867.19C1003.06 1900.51 1063.14 1940.8 1119.17 1948.04C1123.94 1948.65 1125.09 1942.42 1121.95 1939.88C1100.91 1922.92 1074.8 1912.57 1051.11 1899.77C1027.09 1886.8 1003.72 1872.61 981.66 1856.5C939.21 1825.49 901.56 1787.04 875.64 1741.02C868.82 1728.9 862.88 1716.11 857.9 1702.87C857.74 1702.45 857.59 1702.04 857.43 1701.61C851.37 1685.27 846.8 1668.25 843.89 1651C832.68 1584.52 846.21 1514.49 895.1 1465.4C897.05 1463.45 899.03 1461.53 901.09 1459.64C901.19 1463.23 901.37 1466.78 901.69 1470.21C906.35 1520.28 925.53 1570.51 951.7 1613.14C977.61 1655.34 1011.23 1692.84 1051.06 1722.35C1088.26 1749.9 1136.85 1778.73 1184.21 1780.74C1186.34 1780.83 1187.87 1777.56 1185.68 1776.45C1147.01 1756.84 1107.11 1743.58 1071.3 1718.13C1035.59 1692.74 1004.02 1661.17 978.76 1625.37C951.88 1587.28 931.75 1543.87 921.2 1498.42C911.69 1457.42 908.18 1409.04 939.13 1378.02C940.26 1376.89 941.44 1375.78 942.66 1374.69C944.16 1373.37 945.7 1372.06 947.34 1370.81C949.44 1369.21 947.07 1366.14 944.86 1367.14C943.24 1367.88 941.69 1368.69 940.17 1369.53C934.15 1372.89 928.94 1377.07 924.49 1381.91C907.72 1400.11 901.41 1427.31 901.04 1452.62C900.36 1452.58 899.64 1452.74 898.95 1453.27C897.47 1454.43 896.04 1455.62 894.6 1456.8C894.55 1456.87 894.5 1456.93 894.45 1457C894.28 1457.24 894.1 1457.47 893.9 1457.71C893.64 1458.03 893.35 1458.35 893.03 1458.66C876.75 1474.69 861.81 1491.42 849.03 1509.54C842.15 1520.97 836.43 1532.96 831.89 1545.34C831.38 1547.37 830.88 1549.42 830.41 1551.5C829.98 1553.41 829.23 1554.92 828.26 1556.1C821.91 1576.83 818.74 1598.51 818.56 1620.42C818.34 1645.91 822.2 1671.72 830.02 1696.73C832.27 1703.92 834.82 1711.05 837.71 1718.09ZM928.22 1251.76C922.38 1359.12 992.51 1483.61 1088.77 1531.05C1091.87 1532.58 1093.5 1527.9 1091.27 1526.05C1047.15 1489.64 1006.53 1451.52 978.16 1401.14C951.83 1354.4 939.41 1304.81 931.01 1252.51C939.05 1254.47 947.02 1256.85 954.93 1259.41C955.07 1259.48 955.18 1259.56 955.32 1259.62C1066.73 1308.59 1181.43 1345.7 1287.76 1406.25C1386.48 1462.47 1479.74 1533.96 1553.7 1620.9C1570.58 1640.74 1586.41 1661.41 1601.11 1682.86C1604.55 1687.87 1607.91 1692.92 1611.22 1698.02C1626.37 1721.4 1640.19 1745.68 1652.37 1770.92C1660.22 1787.18 1667.42 1803.83 1673.9 1820.87C1735.2 1982.11 1727.83 2155.1 1672.37 2314.94C1664.79 2336.79 1656.32 2358.4 1646.99 2379.71C1645.1 2384.02 1651.91 2387.27 1654.28 2383.35C1681.15 2338.79 1701.21 2289.94 1714.98 2239.25C1728.8 2188.38 1736.26 2135.67 1737.86 2083.6C1737.99 2079.19 1738.1 2074.78 1738.15 2070.38C1738.25 2062.45 1738.19 2054.54 1738.01 2046.65C1737.86 2039.65 1737.6 2032.67 1737.24 2025.7C1729.5 1877.89 1674.97 1737.45 1584.46 1621.46C1564.14 1595.42 1542.01 1570.6 1518.19 1547.22C1507.68 1536.91 1496.91 1526.89 1485.94 1517.11C1447.83 1483.13 1407.05 1452.3 1364.35 1424.34C1349.76 1414.79 1334.98 1405.56 1319.98 1396.66C1318.56 1395.82 1317.12 1395.01 1315.7 1394.17C1313.74 1393.01 1311.76 1391.87 1309.79 1390.73C1296.46 1383 1283 1375.49 1269.4 1368.25C1225.04 1344.64 1179.06 1322.07 1131.97 1302.11C1076.09 1278.43 1018.64 1258.42 960.46 1244.75C959.19 1244.45 958.01 1244.41 956.93 1244.58C946.04 1240.14 935.1 1235.81 924.12 1231.47C924.06 1231.45 924.01 1231.42 923.95 1231.4C916.91 1228.62 912.91 1240.16 920.11 1242.5C920.73 1242.7 921.35 1242.9 921.98 1243.11C922.9 1243.41 923.83 1243.71 924.76 1244.01C923.93 1247.12 924.77 1250.56 928.22 1251.76Z" /><path id="Path 18" class="shp2" d="M2882.75 1887.62C2888.42 1904.98 2892.65 1923.03 2895.1 1941.14C2897.27 1957.24 2892.73 1975.1 2898.92 1990.35C2899.81 1992.52 2902.96 1992.94 2904.58 1991.45C2909.48 1986.98 2912.4 1981.32 2914.02 1975.12C2916.96 1964.02 2915.75 1951.19 2914.23 1940.34C2911.48 1920.77 2903.06 1904.26 2889.63 1890.44C2888.27 1889.03 2886.87 1887.65 2885.4 1886.3C2884.42 1885.4 2882.23 1886 2882.75 1887.62ZM483.46 2052.31C481.35 2048.44 474.19 2049.1 474.35 2054.16C474.68 2064.36 477.66 2074.39 480.19 2084.25C480.88 2086.94 483.38 2089.79 486.42 2089.65C487.69 2089.6 488.74 2089.52 489.9 2088.94C492.46 2087.69 494.33 2084.33 493.51 2081.48C490.73 2071.73 488.32 2061.25 483.46 2052.31Z" /><path id="Path 19" class="shp3" d="M1242.47 1745.54C1246.8 1743.93 1244.52 1738.1 1240.85 1737.54C1219.3 1734.27 1198.33 1735.13 1177.05 1729.07C1158.04 1723.66 1141.5 1714.05 1123.32 1706.76C1119.94 1705.41 1117.36 1709.85 1119.53 1712.42C1145.73 1743.55 1204.24 1759.82 1242.47 1745.54ZM1053.53 1862.97C1025.09 1849.16 1000.03 1828.8 971.64 1815.6C968.71 1814.23 966.94 1818.21 968.48 1820.31C986.95 1845.46 1019.99 1863.52 1047.77 1876.65C1074.92 1889.49 1109.4 1906.27 1140.15 1901.37C1141.46 1901.16 1141.75 1899.31 1140.69 1898.61C1115.11 1881.77 1081.31 1876.46 1053.53 1862.97ZM473.18 1749.65C473.97 1750.25 474.9 1749.26 474.54 1748.45C463.54 1723.33 444.54 1702.32 428.02 1680.68C409.7 1656.68 391.83 1631.6 371.44 1609.31C365.56 1602.88 356.91 1611.19 361.57 1618C378.63 1642.92 398.95 1666.05 418.15 1689.36C435.36 1710.26 451.36 1733.3 473.18 1749.65ZM348.91 1772.51C348.94 1772.05 348.98 1771.58 349.01 1771.12C349.46 1764.7 341.53 1760.88 336.74 1765.09C331.95 1769.3 334.71 1777.65 341.15 1778.03C341.62 1778.05 342.08 1778.08 342.55 1778.11C350.17 1785.67 357.91 1792.71 366.19 1799.61C366.72 1800.05 367.58 1799.29 367.21 1798.71C361.43 1789.62 355.44 1781.04 348.91 1772.51Z" /><path id="Path 20" class="shp4" d="M656.25 2710.33C656.5 2710.54 656.75 2710.75 657 2710.96C657.43 2711.33 657.86 2711.69 658.31 2712.06C683.1 2732.23 721.1 2744.81 747.19 2754.96C782.38 2768.65 834.97 2791.25 873.32 2781.75C874.12 2781.56 874.64 2780.96 874.86 2780.29C875.11 2779.46 874.91 2778.5 874.07 2777.94C857.28 2766.25 835.51 2762.92 816.24 2756.65C796.76 2750.31 777.34 2743.83 758.35 2736.13C737.55 2727.69 717.25 2718.04 697.4 2707.56C680.66 2698.75 665.16 2687 646.01 2684.92C642.12 2684.5 638.72 2689.25 640.83 2692.73C641.4 2693.67 642.01 2694.6 642.64 2695.52C642.74 2695.67 642.84 2695.81 642.94 2695.94C646.57 2701.13 651.09 2705.92 656.25 2710.33ZM373.58 2420.6C373.47 2420.5 373.37 2420.37 373.26 2420.25C371.41 2418.35 367.43 2418.54 366.69 2421.54C360.79 2445.42 376.05 2474.54 386.75 2495.21C400.5 2521.77 418.29 2546.33 438.61 2568.23C450.85 2581.42 465.09 2595.21 480.71 2607.79C480.86 2607.92 481.01 2608.04 481.15 2608.17C482.76 2609.46 484.39 2610.73 486.02 2612C489.63 2614.79 493.34 2617.48 497.08 2620.1C498.99 2621.46 500.91 2622.81 502.85 2624.1C504.04 2624.9 505.26 2625.63 506.46 2626.4C523.29 2637.19 541.16 2645.92 559.52 2650.75C567.51 2652.85 575.59 2654.23 583.72 2654.73C585.61 2654.83 586.39 2652.35 584.89 2651.29C563.45 2636.08 539.17 2625.15 517.28 2610.54C493.78 2594.85 472.37 2576.17 453.63 2555.02C447.09 2547.62 440.91 2539.94 435.05 2532.02C424.19 2517.33 414.48 2501.79 405.99 2485.56C395.38 2465.29 389.45 2437.23 373.58 2420.6Z" /><path id="Path 21" class="shp5" d="M244.09 1605.21C245.74 1627.28 251.25 1648.81 259.06 1669.47C267.39 1691.49 280.68 1711.94 296.43 1729.39C309.45 1743.81 327.84 1760.47 347.65 1763.83C350.22 1764.27 351.4 1760.85 349.97 1759.13C337.37 1743.97 319.66 1732.8 306.3 1718.01C292.08 1702.28 281.1 1684.34 271.97 1665.27C262.83 1646.17 257.52 1625.47 255.57 1604.4C254.62 1594.15 254.59 1583.8 255.41 1573.55C255.75 1569.21 256.99 1564.47 257.42 1559.86C261.91 1573 267.44 1585.79 274.04 1597.92C296.82 1639.76 335.08 1683.41 381.61 1698.77C384.3 1699.66 385.98 1696.05 383.78 1694.43C363.78 1679.74 343.43 1666.49 326.15 1648.41C309.6 1631.09 295.27 1611.71 283.9 1590.63C272.17 1568.88 263.42 1545.75 258.5 1521.5C256.28 1510.56 254.94 1499.51 254.11 1488.38C253.51 1480.25 256.06 1468.07 249.91 1461.78C249.66 1461.53 249.3 1461.5 249.02 1461.72C248.59 1462.07 248.2 1462.45 247.83 1462.85C243.72 1467.32 243.38 1475.11 243.66 1482.2C243.71 1483.4 243.78 1484.58 243.85 1485.71C243.96 1487.69 244.09 1489.54 244.14 1491.18C244.55 1503.45 246.26 1515.78 248.69 1527.81C250 1534.29 251.59 1540.73 253.4 1547.12C253.17 1547.13 252.93 1547.2 252.7 1547.35C249.71 1549.36 247.95 1552.17 246.84 1555.34C245.17 1560.13 245.01 1565.77 244.49 1570.81C243.29 1582.25 243.23 1593.75 244.09 1605.21Z" /></g></svg>