<svg xmlns="http://www.w3.org/2000/svg" viewBox="0 0 3415 4167" width="3415" height="4167"><defs><clipPath clipPathUnits="userSpaceOnUse" id="cp1"><path d="M0 0L3415 0L3415 4167L0 4167Z" /></clipPath></defs><style>tspan { white-space:pre }.shp0 { fill: #403d33 } .shp1 { fill: #ffffff } .shp2 { fill: #40b3b8 } .shp3 { fill: #e2794b } .shp4 { fill: #ff9a66 } </style><g id="Page 1" clip-path="url(#cp1)"><path id="Path 2" fill-rule="evenodd" class="shp0" d="M2829.85 2849.92C2881.1 2930.08 2842.33 3030.98 2758.56 3068.73C2691.52 3098.92 2593.21 3084.71 2559.02 3015.19C2546.9 2999.31 2539.54 2979.37 2539.33 2957.52C2538.98 2919.69 2557.38 2888.08 2583.92 2864.21C2584 2864.23 2584.04 2864.29 2584.13 2864.29C2590.92 2866.12 2599.44 2859.42 2593.88 2852.52C2593.25 2851.75 2592.56 2850.98 2591.92 2850.21C2595.56 2844.44 2599.46 2838.88 2603.94 2833.73C2627.35 2806.85 2661.19 2789.04 2696.63 2784.9C2709.73 2783.35 2728.29 2782.67 2744.48 2786.4C2740.67 2792.42 2736.9 2798.44 2733.04 2804.4C2731.73 2806.42 2731.25 2808.4 2731.27 2810.25C2731.44 2819.79 2746.92 2825.88 2753.4 2815.25C2753.94 2814.37 2754.5 2813.5 2755.04 2812.63C2758.54 2806.92 2762.1 2801.23 2765.65 2795.56C2767.85 2797.23 2769.83 2799.13 2771.56 2801.25C2794.38 2810.42 2814.9 2826.52 2829.85 2849.92ZM2749.83 2940.98C2748 2899.77 2706.81 2891.19 2677.71 2903.35C2664.85 2905.35 2652.54 2912.85 2645.15 2925.83C2626.29 2958.92 2653.92 2999.35 2690.15 3001.13C2721.96 3002.69 2751.25 2972.65 2749.83 2940.98ZM573.94 2835.48C577.26 2833.67 580.53 2831.73 583.73 2829.69C609.27 2860 622.73 2903.27 616.61 2945.27C622.62 2974.4 607.8 3000.52 584.63 3014.19C497.38 3114.48 312.93 3072.94 300.25 2931.67C293.64 2857.98 345.23 2801.54 405.36 2785.25C405.66 2785.52 405.89 2785.88 406.19 2786.15C411.59 2791.06 419.3 2787.79 421.22 2781.94C444.02 2778.54 467.41 2780.94 488.82 2790.4C517.52 2786.42 543.52 2795.04 564.62 2811.27C563.22 2812.33 561.95 2813.42 560.53 2814.46C547.55 2823.98 559.83 2843.21 573.94 2835.48ZM502.45 2898.33C501.59 2898.35 500.76 2898.46 499.9 2898.5C497.71 2895 495.02 2892.04 492.11 2889.4C488.03 2879.92 479.96 2872.04 467.04 2868.04C421.72 2854.02 382.48 2899.67 407.62 2941.46C418.34 2959.27 434.04 2967.35 450.22 2968.25C457.37 2970.44 465.14 2970.98 472.78 2969.33C487.81 2966.1 498.29 2955.67 503.46 2942.79C509.63 2934.94 514.26 2925.63 516.32 2915.12C518.03 2906.44 511.59 2898 502.45 2898.33ZM2755.04 2812.63C2762 2812.88 2768.83 2812.38 2775.4 2809.87C2768.83 2812.38 2762 2812.88 2755.04 2812.63Z" /><path id="Path 3" class="shp1" d="M2677.71 2903.35C2664.85 2905.35 2652.54 2912.85 2645.15 2925.83C2626.29 2958.92 2653.92 2999.35 2690.15 3001.13C2721.96 3002.69 2751.25 2972.65 2749.83 2940.98C2748 2899.77 2706.81 2891.19 2677.71 2903.35ZM502.45 2898.33C501.59 2898.35 500.76 2898.46 499.9 2898.5C497.71 2895 495.02 2892.04 492.11 2889.4C488.03 2879.92 479.96 2872.04 467.04 2868.04C421.72 2854.02 382.48 2899.67 407.62 2941.46C418.34 2959.27 434.04 2967.35 450.22 2968.25C457.37 2970.44 465.14 2970.98 472.78 2969.33C487.81 2966.1 498.29 2955.67 503.46 2942.79C509.63 2934.94 514.26 2925.63 516.32 2915.12C518.03 2906.44 511.59 2898 502.45 2898.33Z" /><path id="Path 4" class="shp0" d="M2784.65 2724.27C2770.88 2744.73 2757.67 2765.6 2744.48 2786.4C2740.67 2792.42 2736.9 2798.44 2733.04 2804.4C2731.73 2806.42 2731.25 2808.4 2731.27 2810.25C2731.44 2819.79 2746.92 2825.88 2753.4 2815.25C2753.94 2814.37 2754.5 2813.5 2755.04 2812.63C2758.54 2806.92 2762.1 2801.23 2765.65 2795.56C2780.35 2772.02 2795.23 2748.48 2808.96 2724.33L2784.65 2724.27ZM2593.88 2852.52C2593.25 2851.75 2592.56 2850.98 2591.92 2850.21C2555.1 2804.98 2511.56 2764.17 2468.98 2723.46L2425.63 2723.33C2476.13 2770.87 2525.79 2822.08 2581.38 2862.98C2582.17 2863.56 2583.02 2863.94 2583.92 2864.21C2584 2864.23 2584.04 2864.29 2584.13 2864.29C2590.92 2866.12 2599.44 2859.42 2593.88 2852.52ZM564.62 2811.27C563.22 2812.33 561.95 2813.42 560.53 2814.46C547.55 2823.98 559.83 2843.21 573.94 2835.48C577.26 2833.67 580.53 2831.73 583.73 2829.69C623.3 2804.52 653.72 2763.17 669.97 2718.77L642.68 2718.69C625.31 2755.94 599.15 2785.23 564.62 2811.27ZM421.22 2781.94C421.76 2780.29 421.92 2778.46 421.34 2776.5C416.55 2760.33 405.53 2745.67 396.79 2731.33C394.1 2726.94 391.45 2722.48 388.79 2718.04L359.04 2717.96C364.71 2726.83 370.56 2735.6 376.25 2744.44C385.12 2758.21 393.38 2773.94 405.36 2785.25C405.66 2785.52 405.89 2785.88 406.19 2786.15C411.59 2791.06 419.3 2787.79 421.22 2781.94Z" /><path id="Path 5" class="shp2" d="M2784.65 2724.27L2808.96 2724.33L3043.54 2724.94L3073.94 2633.17L1993.22 2626.27C1992.39 2626.73 1991.54 2627.21 1990.72 2627.58C1988.9 2628.4 1987.04 2629.02 1985.16 2629.56C1974.14 2637.27 1961.56 2641.56 1948.64 2641.9L1931.03 2675.4C1945.54 2668.77 1962.84 2665.65 1977.02 2673.56C1988.65 2680.06 1996.27 2692.5 1992.64 2705.92C1990.75 2712.92 1987.07 2718.21 1982.24 2722.19L2425.63 2723.33L2468.98 2723.46L2784.65 2724.27ZM1254.07 2621.56L321.29 2615.62L313.94 2717.83L359.04 2717.96L388.79 2718.04L642.68 2718.69L669.97 2718.77L1424.05 2720.73C1354.89 2704.1 1297.86 2681.19 1255.77 2660.88C1255.21 2647.77 1254.64 2634.67 1254.07 2621.56ZM1878.92 2713.06C1878.17 2712.71 1877.4 2712.48 1876.66 2712.1C1875.13 2711.31 1874.06 2710.29 1873.31 2709.19L1867.71 2707.31L1906.16 2627.42C1905.49 2626.87 1904.88 2626.27 1904.22 2625.71L1897.2 2625.67C1892.5 2628.02 1886.73 2628.75 1880.7 2627.08C1879.08 2626.62 1877.67 2626.04 1876.14 2625.54L1729.7 2624.6C1660.06 2642.71 1578.73 2644.56 1504.05 2633.83L1484.22 2656.13L1735.35 2696.87C1732.09 2705.08 1728.83 2713.31 1725.57 2721.52L1892.85 2721.96C1889.07 2720.54 1885.63 2719.1 1882.81 2717.71C1880.68 2716.65 1879.46 2714.94 1878.92 2713.06Z" /><path id="Path 6" class="shp3" d="M1652.71 2586.35C1672.74 2581.77 1691 2575.08 1708.44 2567.19C1703.52 2566.56 1698.52 2566.02 1693.46 2565.6C1687.57 2566.9 1681.62 2568.13 1675.55 2569.25C1631.15 2577.4 1590.82 2578.94 1556.37 2577.42C1555.53 2577.65 1554.68 2577.87 1553.84 2578.1L1540.75 2592.75C1577.91 2595.48 1614.41 2595.15 1652.71 2586.35Z" /><path id="Path 7" fill-rule="evenodd" class="shp3" d="M1745.52 2620.4C1740.37 2621.98 1734.99 2623.23 1729.7 2624.6C1660.06 2642.71 1578.73 2644.56 1504.05 2633.83L1525.85 2609.44C1592.13 2620.33 1672.1 2608 1735.03 2576.13C1749.22 2584.75 1759.77 2598.35 1747.04 2609.73C1751.21 2612.02 1751.36 2618.63 1745.52 2620.4ZM1736.59 2600C1733.43 2601.27 1730.26 2602.31 1727.09 2603.44C1727.18 2604.21 1727.07 2604.96 1726.81 2605.69C1728.88 2605.65 1730.96 2605.58 1733.03 2605.56C1733.09 2605.5 1733.09 2605.44 1733.15 2605.38C1735.16 2603.42 1736.25 2601.65 1736.59 2600ZM1906.16 2627.42C1905.49 2626.87 1904.88 2626.27 1904.22 2625.71C1903.21 2624.83 1902.18 2624 1901.23 2623.08C1900.01 2624.08 1898.65 2624.94 1897.2 2625.67C1892.5 2628.02 1886.73 2628.75 1880.7 2627.08C1879.08 2626.62 1877.67 2626.04 1876.14 2625.54C1823.49 2608.02 1823.26 2556.85 1837.07 2511.38C1882.29 2486.52 1917.06 2459.35 1940.75 2438.67C1953.63 2420.92 1977.96 2382.31 1985.03 2327.08C1989.73 2290.33 1985.13 2259.06 1979.49 2236.81C1979.93 2237.33 1980.36 2237.83 1980.79 2238.35C1984.09 2242.31 1990.73 2238.08 1988.39 2233.48C1985.64 2228.04 1982.55 2223.06 1979.18 2218.48C1981.35 2214.62 1983.52 2210.79 1985.69 2206.96C2002 2195.67 2018.31 2184.4 2034.63 2173.12C2033.88 2175.19 2033.15 2177.25 2032.4 2179.31C2033.61 2178.9 2034.87 2178.73 2036.15 2178.73L2047.64 2238.92C2020.06 2299.04 1990.93 2358.52 1962.59 2418.29C1948.56 2447.87 1933.25 2477.25 1921.39 2507.79C1914.68 2525.08 1908.97 2543.42 1911.12 2562.27C1911.48 2565.48 1912.38 2568.98 1913.64 2572.58C1919.46 2573.23 1925.33 2574.21 1931.2 2575.38L1906.16 2627.42ZM1977.82 2586.4C1979.35 2586.73 1980.9 2587.08 1982.42 2587.4C1984.07 2586.98 1985.84 2586.88 1987.51 2586.73C1991.31 2586.44 1995.12 2586.25 1998.91 2586.02C2005.63 2585.58 2011.86 2589.31 2013 2596.37C2015.03 2608.96 2003.89 2620.6 1993.22 2626.27C1992.39 2626.73 1991.54 2627.21 1990.72 2627.58C1988.9 2628.4 1987.04 2629.02 1985.16 2629.56C1974.14 2637.27 1961.56 2641.56 1948.64 2641.9L1977.82 2586.4Z" /><path id="Path 8" class="shp4" d="M2244.33 1350.66C2248.19 1343.95 2257.04 1339.68 2265.31 1345.35C2266.9 1346.43 2268.48 1347.5 2270.06 1348.59C2268.08 1346.94 2266.1 1345.28 2264.13 1343.57C2256.9 1337.3 2245.71 1342.04 2242 1349.68C2242.15 1349.73 2242.29 1349.76 2242.44 1349.82C2243.04 1350.09 2243.69 1350.37 2244.33 1350.66ZM2320.83 1382.3C2318.65 1381.16 2316.46 1379.99 2314.29 1378.79C2315.52 1379.62 2316.73 1380.46 2317.96 1381.29C2318.92 1381.63 2319.88 1381.96 2320.83 1382.3ZM744.74 2069.56C747.08 2055.27 763.2 2052.53 772.08 2058.66C772.46 2058.45 772.83 2058.23 773.21 2058.02C761.42 2046.02 738.86 2052.67 741.27 2072.54C741.39 2073.54 741.55 2074.54 741.68 2075.54C742.39 2074.59 743.24 2073.72 744.18 2072.95C744.36 2071.81 744.55 2070.69 744.74 2069.56ZM876.17 2297.46C879.41 2307.52 882.41 2317.58 885.36 2327.62C886.76 2327.96 888.1 2328.65 889.13 2330C890.12 2331.29 891.05 2332.63 892.03 2333.94C892.55 2334.12 893.05 2334.42 893.45 2334.94C896.49 2338.69 900.11 2341.85 903 2345.87C904.47 2347.9 905.81 2350.06 907.01 2352.29C909.17 2354.08 911.22 2355.96 913.47 2357.69C913.69 2357.87 913.92 2358.02 914.15 2358.19C914.45 2358.37 914.75 2358.58 915.05 2358.77C900.73 2340.31 887.99 2319.44 876.17 2297.46ZM1299.46 2049.59C1284.98 2064.29 1270.17 2080.77 1255.55 2099.19C1225.16 2137.48 1203 2174.73 1186.82 2207.08C1196.59 2191.73 1206.47 2177.77 1213.7 2166.56C1238.23 2128.54 1266.44 2085.92 1299.46 2049.59Z" /><path id="Path 9" fill-rule="evenodd" class="shp4" d="M2360.29 1393.53C2341.23 1378.47 2325.48 1359.69 2314.5 1337.66C2311.12 1333.27 2307.81 1328.83 2304.62 1324.19C2304.21 1323.58 2303.85 1322.96 2303.54 1322.35C2306.1 1324.08 2308.67 1325.81 2311.23 1327.54C2317.71 1335.04 2324.21 1342.5 2330.56 1350.11C2335.71 1356.29 2343.46 1354.76 2347.73 1350.27C2354.62 1353.99 2361.69 1357.35 2368.96 1360.15C2372.1 1361.36 2375.48 1357.39 2373.06 1354.67C2368.4 1349.38 2363.35 1344.45 2358.08 1339.72C2359.92 1337.32 2360.81 1334.04 2360.54 1330.84C2382.96 1344.73 2405.29 1358.89 2426.54 1374.35L2621.81 1315.64C2654.48 1289.46 2748.06 1216.56 2814.19 1196.93C2797.81 1207.37 2788.29 1225.6 2780.21 1242.71C2774.21 1255.4 2788.29 1270.76 2801.35 1267.48C2811.94 1264.82 2822.5 1262.16 2833.06 1259.5C2834.92 1261.25 2837.19 1262.6 2839.88 1263.34C2858.85 1268.55 2874.4 1258.34 2881.56 1243.81C2882.77 1242.8 2883.92 1241.68 2885 1240.46C2886.52 1279.3 2869.31 1329.14 2865.52 1340.1C2828.96 1445.86 2743.4 1500.74 2709.92 1519.81C2665.06 1542.92 2620.19 1566.04 2575.31 1589.16C2574.29 1587.49 2572.15 1586.6 2570.33 1588.33C2567.71 1590.86 2565.08 1593.35 2562.46 1595.79C2531.58 1611.7 2500.73 1627.6 2469.85 1643.5C2469.65 1644.21 2469.44 1644.92 2469.23 1645.62C2439.96 1649.45 2412.92 1643.13 2382.52 1636.45C2377.52 1635.35 2372.83 1641.98 2378.02 1645.18C2403.23 1660.75 2434.17 1665.32 2464.54 1661.2C2460.94 1673.26 2457.31 1685.32 2453.65 1697.42C2450.33 1698.55 2448.42 1702.9 2451.19 1705.61C2448.6 1714.19 2445.94 1722.81 2443.33 1731.4C2370.5 1706.56 2306.4 1671.37 2251.33 1618.07C2292.58 1577.22 2330.1 1533.16 2362.79 1485.97C2365.35 1482.26 2363.54 1477.5 2360.4 1475.29C2375.65 1476.35 2391.62 1474.19 2408 1468C2412.33 1466.36 2412.63 1461.74 2410.62 1458.52C2415.96 1454.9 2421.21 1450.54 2426.4 1445.34C2434.29 1437.43 2433.15 1420.18 2419.1 1419.71C2411.54 1419.46 2404 1419.29 2396.44 1419.06C2395.46 1418.1 2394.46 1417.14 2393.48 1416.19C2392.08 1414.84 2390.38 1414.62 2388.77 1415.05C2381.77 1411.28 2374.65 1407.69 2367.42 1404.23C2388.52 1408.05 2413 1412.07 2425.35 1391.3C2428.21 1386.53 2422.04 1382.48 2418.46 1386.45C2407.6 1398.49 2385.54 1398.75 2360.29 1393.53ZM2488.25 1501.97C2532.48 1529.35 2603.62 1513.66 2610.17 1455C2611.35 1444.43 2609.19 1434.78 2604.94 1426.39C2604.15 1423.31 2603.13 1420.28 2601.85 1417.34C2604.29 1405.34 2603.79 1393.32 2597.81 1385.3C2592.9 1378.68 2583.98 1374.93 2574.29 1373.2C2558.79 1363.83 2537.4 1364.21 2524.35 1381.59C2523.65 1382.53 2523.19 1383.5 2522.58 1384.46C2520.94 1386.49 2519.54 1388.67 2518.33 1390.95C2515.06 1395.19 2512.48 1399.92 2510.6 1404.9C2499.73 1416.53 2494.04 1432.45 2498.12 1448.57C2499.23 1452.88 2501 1456.78 2503.13 1460.42C2503.98 1462.43 2504.96 1464.37 2506.06 1466.26C2506.15 1469.97 2506.46 1473.63 2506.77 1477.29C2505.42 1476.91 2504.06 1476.55 2502.75 1476.19C2487.9 1472.17 2472.73 1492.38 2488.25 1501.97ZM2815.6 1317.78C2815.92 1317.53 2816.25 1317.28 2816.58 1317.03C2817.69 1316.19 2818.12 1314.67 2817.9 1313.34C2817.83 1312.89 2817.75 1312.43 2817.67 1311.97C2816.67 1305.91 2807.92 1305.42 2805.9 1311.04C2803.79 1316.94 2810.87 1321.35 2815.6 1317.78ZM2830.54 1337.27C2830.71 1337.51 2830.87 1337.76 2831.04 1338.01C2833.21 1341.22 2839.35 1341.01 2841.23 1337.57C2841.27 1337.5 2841.31 1337.43 2841.35 1337.35C2845.13 1336.6 2844.75 1330.64 2841.08 1330.02C2841.02 1329.93 2840.96 1329.84 2840.9 1329.74C2838.73 1326.42 2832.6 1326.84 2830.71 1330.18C2830.56 1330.44 2830.42 1330.69 2830.27 1330.95C2829.02 1333.14 2829.12 1335.17 2830.54 1337.27ZM2842.94 1291.84C2843 1291.96 2843.06 1292.08 2843.12 1292.2C2843.98 1296.41 2848.65 1297.65 2851.92 1295.34C2852 1295.28 2852.1 1295.21 2852.19 1295.15C2857.17 1292.56 2858.31 1285.5 2852.67 1282.47C2847.15 1279.52 2839.42 1285.87 2842.94 1291.84ZM2394.56 1379.89C2395.94 1380.85 2397.37 1381.77 2398.77 1382.7L2399.31 1382.54C2397.73 1381.66 2396.15 1380.79 2394.56 1379.89ZM2352.58 1475.93C2340.58 1487.97 2328.56 1499.93 2316.52 1511.8C2325.1 1498.18 2332.92 1484.83 2340.06 1471.88C2344.73 1473.12 2349.48 1474.06 2354.33 1474.68C2353.73 1474.98 2353.15 1475.37 2352.58 1475.93ZM1942.25 2732.23C1946.49 2732.4 1950.67 2732.31 1954.72 2731.96L1956.95 2737.15L1942.25 2732.23Z" /><path id="Path 10" fill-rule="evenodd" class="shp4" d="M1735.35 2696.87C1732.09 2705.08 1728.83 2713.31 1725.57 2721.52C1723.37 2727.04 1721.17 2732.58 1718.97 2738.13C1661.25 2745.94 1575.01 2748.75 1476.66 2731.75C1458.34 2728.58 1440.93 2724.79 1424.05 2720.73C1354.89 2704.1 1297.86 2681.19 1255.77 2660.88C1255.21 2647.77 1254.64 2634.67 1254.07 2621.56C1252.66 2588.96 1251.25 2556.35 1249.84 2523.73C1235.03 2510.15 1206.05 2480.56 1184.92 2434.33C1191.62 2431.69 1198.19 2428.71 1204.56 2425.31C1212.78 2423.65 1211.77 2408.12 1201.36 2409.77C1158.74 2416.6 1117.21 2420.42 1077.01 2417.85C1067.01 2415 1057.18 2411.58 1047.52 2407.63C1031.65 2405.88 1015.94 2402.62 1000.56 2398.15C923.02 2355.83 891.95 2267.48 853.05 2185.71C901.99 2256.04 959.86 2320.87 1030.18 2359.23C1047.92 2362.85 1066.01 2364.42 1084.11 2363.42C1114.66 2361.71 1138.53 2352.62 1160.71 2339.48C1160.51 2336.77 1160.37 2334.1 1160.26 2331.46C1160.72 2332.19 1161.14 2332.94 1161.64 2333.65C1188.98 2372.79 1246.28 2354.5 1268.28 2319.79C1287.08 2290.15 1284.34 2253.54 1291.3 2220.48C1298.49 2186.35 1314.65 2154.65 1335.29 2126.75C1411.84 2023.31 1535.73 1983.05 1654.93 1947.3C1655.89 1954.35 1658.25 1961.49 1662.35 1968.42C1676.42 1992.17 1701.98 1997.85 1727.76 1995.92C1748.74 1994.34 1773.11 1984.43 1788.21 2002.01C1799.1 2014.7 1799.26 2035.29 1807.53 2049.81C1822.64 2076.37 1851.16 2087.71 1880.79 2080.01C1913.69 2071.47 1934.73 2041.61 1951.66 2014.34C1990.29 1952.08 2026.31 1867.97 2025.14 1791.48C2094.21 1750.22 2159.62 1702.69 2218.58 1649.11C2227.67 1656.97 2238.25 1664.08 2248.17 1670.43C2284.71 1714.74 2334.73 1748.09 2389.88 1764.21C2399.54 1767.03 2416 1772.83 2430.48 1773.41C2418.21 1813.31 2405.71 1853.43 2392.94 1893.77C2377.4 1942.93 2361.71 1991.56 2345.92 2039.78C2338.83 2044.41 2331.9 2049.45 2326.38 2055.61C2323.58 2058.7 2328 2063.25 2331.4 2061.56C2334.6 2059.97 2337.67 2058.01 2340.67 2055.87C2338 2063.99 2335.33 2072.11 2332.65 2080.2C2327.25 2082.39 2321.96 2084.94 2316.67 2087.46C2307.5 2091.83 2296 2095.5 2289.44 2103.5C2286.85 2106.65 2289.42 2112.63 2293.69 2112.46C2304.08 2112.04 2313.79 2105.27 2322.9 2100.56C2324.1 2099.94 2325.31 2099.31 2326.52 2098.69C2323.33 2108.31 2320.15 2117.96 2316.96 2127.54C2303.44 2142.31 2286.5 2158.87 2265.81 2175.54C2274.73 2166.79 2282.73 2157.52 2289.54 2148.33C2291.73 2145.37 2287.35 2141.25 2284.75 2143.92C2270.77 2158.21 2255.52 2171.75 2239 2183.04C2220.63 2195.6 2200.29 2202.9 2181.15 2213.79C2176.96 2216.17 2178.81 2222.67 2183.77 2221.87C2192.4 2220.52 2200.92 2217.98 2209.25 2214.52C2191.81 2224.69 2175.25 2232.87 2160.23 2239.4L1977.82 2586.4L1948.64 2641.9L1931.03 2675.4C1927.92 2676.81 1924.93 2678.37 1922.13 2680.04C1921.02 2680.71 1920.3 2681.71 1919.84 2682.81C1910.19 2687.48 1901.62 2694.44 1895.04 2703.5C1891.11 2702.33 1887.21 2700.94 1883.46 2698.98C1875.33 2694.75 1869.38 2703.4 1873.31 2709.19L1867.71 2707.31L1906.16 2627.42L1931.2 2575.38L2060.56 2306.54L2047.64 2238.92L2036.15 2178.73L2035.03 2172.83C2034.89 2172.94 2034.76 2173.02 2034.63 2173.12C2018.31 2184.4 2002 2195.67 1985.69 2206.96C1982.33 2209.27 1978.97 2211.58 1975.62 2213.92C1940.59 2171.65 1878.39 2168.1 1822.19 2180.33C1821.91 2180.1 1821.65 2179.85 1821.3 2179.69C1796.3 2167.21 1749.86 2169.02 1724.94 2181.31C1720.14 2183.67 1722.8 2190.23 1727.69 2189.75C1743.87 2188.21 1759.11 2183.73 1775.6 2183.67C1783.83 2183.62 1791.9 2184.85 1799.95 2186.04C1781.37 2191.56 1764.03 2198.56 1749.28 2206.15C1744.58 2208.56 1746.79 2216.44 1752.21 2215.17C1834.51 2195.79 1914.56 2160.37 1979.49 2236.81C1985.13 2259.06 1989.73 2290.33 1985.03 2327.08C1977.96 2382.31 1953.63 2420.92 1940.75 2438.67C1917.06 2459.35 1882.29 2486.52 1837.07 2511.38C1824.99 2518 1812.15 2524.48 1798.59 2530.6C1801.61 2527.5 1804.53 2524.31 1807.29 2521.02C1809.65 2518.23 1805.82 2513.81 1802.68 2515.56C1778.28 2529.19 1755.6 2543.21 1732.16 2555.56C1719.71 2559.31 1706.8 2562.67 1693.46 2565.6C1687.57 2566.9 1681.62 2568.13 1675.55 2569.25C1631.15 2577.4 1590.82 2578.94 1556.37 2577.42C1555.76 2577.4 1555.13 2577.37 1554.52 2577.33L1553.84 2578.1L1540.75 2592.75C1522.98 2591.46 1505.07 2589.48 1486.73 2587.38C1479.99 2586.63 1478.19 2596.58 1484.31 2598.81C1497.27 2603.52 1511.23 2607.04 1525.85 2609.44L1504.05 2633.83L1484.22 2656.13L1735.35 2696.87ZM1170.46 2395.04C1169.93 2393.17 1169.42 2391.31 1168.93 2389.46C1164.49 2391.37 1160 2393.17 1155.47 2394.79C1160.42 2395.02 1165.42 2395.06 1170.46 2395.04ZM1467.08 2200.25C1466.99 2217.21 1474.22 2231.56 1485.28 2241.96C1491.79 2262.31 1510.84 2278.15 1536.21 2279.85C1578.99 2282.77 1622.34 2242.38 1642.35 2207.75C1660.59 2176.17 1653.05 2123.56 1608.31 2121.83C1606.94 2121.77 1605.58 2121.9 1604.21 2121.98C1598.06 2119.92 1591.17 2120.87 1587.1 2126.13C1577.28 2130.46 1568.58 2137.6 1562.43 2146.12C1558.78 2151.17 1555.95 2156.71 1553.53 2162.44C1551.27 2160.31 1548.81 2158.25 1545.9 2156.38C1513.11 2135.27 1467.27 2162.5 1467.08 2200.25Z" /><path id="Path 11" class="shp3" d="M1783.12 1858.77C1730.03 1850.46 1671.01 1860.02 1616.34 1876.37C1627.65 1875.37 1638.66 1874.67 1649.09 1874.11C1694.61 1871.68 1739.21 1869.31 1783.12 1858.77ZM1268.28 2319.79C1287.08 2290.15 1284.34 2253.54 1291.3 2220.48C1298.49 2186.35 1314.65 2154.65 1335.29 2126.75C1411.84 2023.31 1535.73 1983.05 1654.93 1947.3C1655.89 1954.35 1658.25 1961.49 1662.35 1968.42C1676.42 1992.17 1701.98 1997.85 1727.76 1995.92C1748.74 1994.34 1773.11 1984.43 1788.21 2002.01C1799.1 2014.7 1799.26 2035.29 1807.53 2049.81C1822.64 2076.37 1851.16 2087.71 1880.79 2080.01C1913.69 2071.47 1934.73 2041.61 1951.66 2014.34C1990.29 1952.08 2026.31 1867.97 2025.14 1791.48C2094.21 1750.22 2159.62 1702.69 2218.58 1649.11C2209.17 1640.96 2201.4 1631.99 2197.65 1622.2C2153.1 1660.52 2106.58 1696.59 2056.41 1729.28C2018.07 1754.25 1978.33 1777.09 1937.51 1797.85C1880.86 1848.27 1803.5 1876.14 1729.13 1884.57C1677.63 1890.42 1625.22 1887.56 1574.17 1897.42C1524.22 1907.08 1487.13 1929.41 1451.12 1964.37C1446.73 1968.63 1441.31 1962.25 1443.81 1957.66C1447.55 1950.8 1451.88 1944.53 1456.68 1938.76C1447.03 1941.11 1436.98 1944.98 1427.55 1949.31C1429.41 1951.85 1429.3 1955.87 1425.69 1957.41C1418.29 1960.58 1411.28 1963.95 1405.36 1969.55C1399.88 1974.75 1397.03 1982.17 1391.38 1986.99C1388.12 1989.77 1383.98 1986.88 1383.85 1983.14C1383.71 1979.21 1385.18 1975.34 1387.39 1971.76C1374.56 1980.21 1360.19 1991.1 1347.84 2003.66C1341.88 2013.23 1336.87 2022.94 1334.42 2034.47C1331.47 2048.37 1333.35 2061.7 1333.71 2075.7C1333.83 2080.39 1327.04 2081.02 1325.2 2077.29C1317.77 2062.21 1317.9 2043.09 1323.16 2025.54C1315 2033.13 1307.1 2041.18 1299.46 2049.59C1266.44 2085.92 1238.23 2128.54 1213.7 2166.56C1206.47 2177.77 1196.59 2191.73 1186.82 2207.08C1161.71 2246.54 1137.36 2295.4 1160.26 2331.46C1160.72 2332.19 1161.14 2332.94 1161.64 2333.65C1188.98 2372.79 1246.28 2354.5 1268.28 2319.79ZM2235.96 1602.49C2241 1607.85 2246.13 1613.04 2251.33 1618.07C2292.58 1577.22 2330.1 1533.16 2362.79 1485.97C2365.35 1482.26 2363.54 1477.5 2360.4 1475.29C2358.35 1475.14 2356.33 1474.93 2354.33 1474.68C2353.73 1474.98 2353.15 1475.37 2352.58 1475.93C2340.58 1487.97 2328.56 1499.93 2316.52 1511.8C2289.27 1538.61 2261.79 1564.89 2233.69 1590.36C2237.94 1592.66 2238.85 1598.86 2235.96 1602.49Z" /><path id="Path 12" fill-rule="evenodd" class="shp3" d="M1204.56 2425.31C1198.19 2428.71 1191.62 2431.69 1184.92 2434.33C1095.64 2469.63 980.38 2439.37 905.88 2386.65C893.22 2377.69 881.56 2367.83 870.71 2357.27C866.35 2356.31 862.36 2353.75 860.15 2349.27C859.19 2347.35 858.3 2345.42 857.35 2343.48C793.64 2273.42 762.23 2176.69 739.6 2085.98C738.59 2081.9 739.57 2078.35 741.68 2075.54C742.39 2074.59 743.24 2073.72 744.18 2072.95C744.36 2071.81 744.55 2070.69 744.74 2069.56C747.08 2055.27 763.2 2052.53 772.08 2058.66C772.46 2058.45 772.83 2058.23 773.21 2058.02C773.41 2057.9 773.62 2057.79 773.82 2057.67C782.86 2052.5 794.5 2060.64 795.85 2069.88C797.08 2078.32 798.48 2086.77 799.95 2095.21C821.1 2122.19 837.69 2153.44 853.05 2185.71C891.95 2267.48 923.02 2355.83 1000.56 2398.15C1010.9 2403.77 1022.05 2408.62 1034.17 2412.5C1048.27 2415.23 1062.56 2416.94 1077.01 2417.85C1117.21 2420.42 1158.74 2416.6 1201.36 2409.77C1211.77 2408.12 1212.78 2423.65 1204.56 2425.31ZM915.17 2358.94C915.13 2358.87 915.09 2358.83 915.05 2358.77C900.73 2340.31 887.99 2319.44 876.17 2297.46C879.41 2307.52 882.41 2317.58 885.36 2327.62C886.76 2327.96 888.1 2328.65 889.13 2330C890.12 2331.29 891.05 2332.63 892.03 2333.94C892.55 2334.12 893.05 2334.42 893.45 2334.94C896.49 2338.69 900.11 2341.85 903 2345.87C904.47 2347.9 905.81 2350.06 907.01 2352.29C909.17 2354.08 911.22 2355.96 913.47 2357.69C913.69 2357.87 913.92 2358.02 914.15 2358.19C914.49 2358.44 914.83 2358.67 915.17 2358.94ZM2232.79 1358.06C2238.5 1376.21 2247.21 1394.04 2258.31 1410.11C2247.46 1398.08 2237.83 1385.65 2229.87 1374.14C2225.56 1367.9 2227.52 1359.99 2232.56 1355.95C2232.5 1356.64 2232.56 1357.35 2232.79 1358.06ZM2265.31 1345.35C2266.9 1346.43 2268.48 1347.5 2270.06 1348.59C2284.79 1358.67 2299.54 1368.73 2314.29 1378.79C2315.52 1379.62 2316.73 1380.46 2317.96 1381.29C2287.83 1370.65 2259.29 1357.29 2244.33 1350.66C2248.19 1343.95 2257.04 1339.68 2265.31 1345.35ZM2426.4 1445.34C2421.21 1450.54 2415.96 1454.9 2410.62 1458.52C2409.27 1456.32 2406.85 1454.78 2403.9 1455.34C2333.67 1468.65 2278.42 1432.96 2252.52 1369.91C2288.94 1384.79 2326.75 1396.87 2365.48 1403.88C2366.12 1404 2366.77 1404.11 2367.42 1404.23C2374.65 1407.69 2381.77 1411.28 2388.77 1415.05C2390.38 1414.62 2392.08 1414.84 2393.48 1416.19C2394.46 1417.14 2395.46 1418.1 2396.44 1419.06C2404 1419.29 2411.54 1419.46 2419.1 1419.71C2433.15 1420.18 2434.29 1437.43 2426.4 1445.34ZM2311.23 1327.54C2308.67 1325.81 2306.1 1324.08 2303.54 1322.35C2299.19 1319.4 2294.83 1316.47 2290.48 1313.62C2281.25 1307.58 2289.71 1292.06 2299.73 1296.16C2300.21 1288.2 2310.4 1280.76 2317.6 1287.34C2330.75 1299.38 2343.9 1311.42 2357.04 1323.46C2359.23 1325.46 2360.29 1328.13 2360.54 1330.84C2360.81 1334.04 2359.92 1337.32 2358.08 1339.72C2363.35 1344.45 2368.4 1349.38 2373.06 1354.67C2375.48 1357.39 2372.1 1361.36 2368.96 1360.15C2361.69 1357.35 2354.62 1353.99 2347.73 1350.27C2343.46 1354.76 2335.71 1356.29 2330.56 1350.11C2324.21 1342.5 2317.71 1335.04 2311.23 1327.54ZM2502.75 1476.19C2504.06 1476.55 2505.42 1476.91 2506.77 1477.29C2506.46 1473.63 2506.15 1469.97 2506.06 1466.26C2504.96 1464.37 2503.98 1462.43 2503.13 1460.42C2501 1456.78 2499.23 1452.88 2498.12 1448.57C2494.04 1432.45 2499.73 1416.53 2510.6 1404.9C2512.48 1399.92 2515.06 1395.19 2518.33 1390.95C2519.54 1388.67 2520.94 1386.49 2522.58 1384.46C2523.19 1383.5 2523.65 1382.53 2524.35 1381.59C2537.4 1364.21 2558.79 1363.83 2574.29 1373.2C2583.98 1374.93 2592.9 1378.68 2597.81 1385.3C2603.79 1393.32 2604.29 1405.34 2601.85 1417.34C2603.13 1420.28 2604.15 1423.31 2604.94 1426.39C2609.19 1434.78 2611.35 1444.43 2610.17 1455C2603.62 1513.66 2532.48 1529.35 2488.25 1501.97C2472.73 1492.38 2487.9 1472.17 2502.75 1476.19ZM2520.71 1412.68C2520.71 1413.63 2521.02 1414.52 2521.75 1415.24C2523.85 1417.29 2526.04 1419.09 2528.4 1420.65C2530.75 1422.21 2533.25 1423.52 2535.94 1424.59C2542 1427 2548.04 1429.4 2554.1 1431.81C2557.65 1433.21 2560.71 1429.85 2561.48 1426.84C2564.83 1425.96 2568.02 1423.19 2569.58 1419.12C2569.6 1419.05 2569.58 1418.96 2569.6 1418.89C2569.65 1418.82 2569.63 1418.76 2569.65 1418.68C2570.54 1416.4 2570.71 1413.99 2571.13 1411.59C2571.27 1410.7 2571.15 1409.82 2571.29 1408.94C2571.11 1407.65 2570.8 1406.76 2570.6 1406.25C2570.63 1406.25 2570.64 1406.26 2570.65 1406.26C2571.5 1401.58 2568.54 1395.92 2564.17 1394.64C2558.1 1392.86 2548.69 1394.68 2548.69 1400.02C2548.69 1400.03 2548.69 1401.42 2548.69 1401.42L2548.75 1401.42C2546.77 1401.42 2546.4 1407.28 2547.06 1410.66C2546.79 1411.82 2546.6 1412.31 2546.54 1413.5C2545.06 1412.82 2543.58 1412.16 2542.08 1411.55C2536.92 1409.41 2531.71 1406.56 2526.02 1406.6C2524.15 1406.61 2522.19 1408.38 2521.27 1410.44C2520.98 1411.11 2520.77 1411.79 2520.75 1412.47C2520.75 1412.54 2520.71 1412.61 2520.71 1412.68ZM2569.58 1406.2C2569.56 1406.23 2569.54 1406.27 2569.54 1406.32C2569.54 1406.27 2569.54 1406.23 2569.54 1406.18C2569.54 1406.19 2569.56 1406.19 2569.58 1406.2ZM2570.41 1405.72C2570.41 1405.71 2570.41 1405.7 2570.42 1405.7C2570.42 1405.7 2570.42 1405.71 2570.41 1405.72ZM2570.6 1406.25C2570.42 1406.22 2569.75 1406.22 2569.58 1406.2C2569.74 1405.95 2570.32 1405.79 2570.41 1405.72C2570.41 1405.78 2570.49 1405.95 2570.6 1406.25ZM1485.28 2241.96C1474.22 2231.56 1466.99 2217.21 1467.08 2200.25C1467.27 2162.5 1513.11 2135.27 1545.9 2156.38C1548.81 2158.25 1551.27 2160.31 1553.53 2162.44C1555.95 2156.71 1558.78 2151.17 1562.43 2146.12C1568.58 2137.6 1577.28 2130.46 1587.1 2126.13C1591.17 2120.87 1598.06 2119.92 1604.21 2121.98C1605.58 2121.9 1606.94 2121.77 1608.31 2121.83C1653.05 2123.56 1660.59 2176.17 1642.35 2207.75C1622.34 2242.38 1578.99 2282.77 1536.21 2279.85C1510.84 2278.15 1491.79 2262.31 1485.28 2241.96ZM2814.19 1196.93C2815.56 1196.06 2816.96 1195.22 2818.44 1194.46C2821.35 1192.95 2824.44 1191.72 2827.6 1190.75C2816.79 1197.54 2806.98 1210.45 2808.9 1222.24C2807.98 1224.18 2808.27 1226.17 2809.31 1227.79C2809.62 1230.99 2810.62 1234.2 2812.52 1237.28C2819.79 1249.24 2835.98 1253.25 2848.85 1249.47C2857.46 1246.94 2864.96 1241.32 2871.23 1235.03C2875.65 1230.57 2882.27 1225.16 2880.17 1218.34C2879.98 1217.7 2879.62 1217.23 2879.23 1216.83C2881.04 1216.34 2882.69 1215.12 2883.63 1213.61C2884.83 1216.99 2885.52 1220.48 2885.71 1223.99C2889 1228.39 2890.02 1234.19 2886.04 1239.31C2885.71 1239.72 2885.35 1240.08 2885 1240.46C2883.92 1241.68 2882.77 1242.8 2881.56 1243.81C2874.4 1258.34 2858.85 1268.55 2839.88 1263.34C2837.19 1262.6 2834.92 1261.25 2833.06 1259.5C2822.5 1262.16 2811.94 1264.82 2801.35 1267.48C2788.29 1270.76 2774.21 1255.4 2780.21 1242.71C2788.29 1225.6 2797.81 1207.37 2814.19 1196.93ZM2865.17 1218.55C2865.35 1218.15 2865.46 1217.76 2865.54 1217.38C2866.5 1217.82 2867.48 1218.27 2868.42 1218.71C2867.08 1219.8 2865.83 1221.07 2864.58 1222.39C2864.44 1221.86 2864.25 1221.34 2863.96 1220.85C2864.38 1220.09 2864.81 1219.34 2865.17 1218.55ZM2851.29 1233.43C2851.42 1233.48 2851.56 1233.49 2851.69 1233.53C2850.17 1234.38 2848.58 1235.14 2846.98 1235.73C2846.83 1234.09 2846.88 1232.46 2847.08 1230.86C2848.08 1232.22 2849.58 1233.21 2851.29 1233.43Z" /><path id="Path 13" fill-rule="evenodd" class="shp0" d="M2827.6 1190.75C2831.08 1188.58 2834.65 1187.02 2837.96 1186.34C2852.17 1183.42 2872.19 1190.29 2878.81 1204.29C2880.17 1205.23 2881.5 1206.25 2882.75 1207.42C2884.87 1209.39 2884.79 1211.73 2883.63 1213.61C2882.69 1215.12 2881.04 1216.34 2879.23 1216.83C2879.62 1217.23 2879.98 1217.7 2880.17 1218.34C2882.27 1225.16 2875.65 1230.57 2871.23 1235.03C2864.96 1241.32 2857.46 1246.94 2848.85 1249.47C2835.98 1253.25 2819.79 1249.24 2812.52 1237.28C2810.62 1234.2 2809.62 1230.99 2809.31 1227.79C2808.27 1226.17 2807.98 1224.18 2808.9 1222.24C2806.98 1210.45 2816.79 1197.54 2827.6 1190.75ZM2847.08 1230.86C2846.88 1232.46 2846.83 1234.09 2846.98 1235.73C2848.58 1235.14 2850.17 1234.38 2851.69 1233.53C2854.54 1234.33 2858.06 1233.25 2859.65 1230.51C2860.25 1230.23 2860.81 1229.92 2861.42 1229.65C2864.54 1228.3 2865.4 1225.15 2864.58 1222.39C2865.83 1221.07 2867.08 1219.8 2868.42 1218.71C2867.48 1218.27 2866.5 1217.82 2865.54 1217.38C2866.5 1212.41 2859.5 1208.09 2855.6 1211.89C2852.08 1215.3 2849.56 1219.56 2846.81 1223.59C2845.17 1226.01 2845.58 1228.85 2847.08 1230.86ZM2842.94 1291.84C2839.42 1285.87 2847.15 1279.52 2852.67 1282.47C2858.31 1285.5 2857.17 1292.56 2852.19 1295.15C2852.1 1295.21 2852 1295.28 2851.92 1295.34C2848.65 1297.65 2843.98 1296.41 2843.12 1292.2C2843.06 1292.08 2843 1291.96 2842.94 1291.84ZM2830.54 1337.27C2829.12 1335.17 2829.02 1333.14 2830.27 1330.95C2830.42 1330.69 2830.56 1330.44 2830.71 1330.18C2832.6 1326.84 2838.73 1326.42 2840.9 1329.74C2840.96 1329.84 2841.02 1329.93 2841.08 1330.02C2844.75 1330.64 2845.13 1336.6 2841.35 1337.35C2841.31 1337.43 2841.27 1337.5 2841.23 1337.57C2839.35 1341.01 2833.21 1341.22 2831.04 1338.01C2830.87 1337.76 2830.71 1337.51 2830.54 1337.27ZM2805.9 1311.04C2807.92 1305.42 2816.67 1305.91 2817.67 1311.97C2817.75 1312.43 2817.83 1312.89 2817.9 1313.34C2818.12 1314.67 2817.69 1316.19 2816.58 1317.03C2816.25 1317.28 2815.92 1317.53 2815.6 1317.78C2810.87 1321.35 2803.79 1316.94 2805.9 1311.04ZM2354.33 1474.68C2349.48 1474.06 2344.73 1473.12 2340.06 1471.88C2307.17 1463.14 2278.69 1439.59 2258.31 1410.11C2247.21 1394.04 2238.5 1376.21 2232.79 1358.06C2232.56 1357.35 2232.5 1356.64 2232.56 1355.95C2232.9 1351.74 2237.96 1348.29 2242 1349.68C2242.15 1349.73 2242.29 1349.76 2242.44 1349.82C2243.04 1350.09 2243.69 1350.37 2244.33 1350.66C2259.29 1357.29 2287.83 1370.65 2317.96 1381.29C2318.92 1381.63 2319.88 1381.96 2320.83 1382.3C2334.1 1386.89 2347.6 1390.9 2360.29 1393.53C2385.54 1398.75 2407.6 1398.49 2418.46 1386.45C2422.04 1382.48 2428.21 1386.53 2425.35 1391.3C2413 1412.07 2388.52 1408.05 2367.42 1404.23C2366.77 1404.11 2366.12 1404 2365.48 1403.88C2326.75 1396.87 2288.94 1384.79 2252.52 1369.91C2278.42 1432.96 2333.67 1468.65 2403.9 1455.34C2406.85 1454.78 2409.27 1456.32 2410.62 1458.52C2412.63 1461.74 2412.33 1466.36 2408 1468C2391.62 1474.19 2375.65 1476.35 2360.4 1475.29C2358.35 1475.14 2356.33 1474.93 2354.33 1474.68ZM2575.31 1589.16C2576 1590.27 2576.17 1591.71 2575.42 1592.98C2553.35 1629.89 2509.56 1655.1 2464.54 1661.2C2434.17 1665.32 2403.23 1660.75 2378.02 1645.18C2372.83 1641.98 2377.52 1635.35 2382.52 1636.45C2412.92 1643.13 2439.96 1649.45 2469.23 1645.62C2476.88 1644.62 2484.67 1642.96 2492.73 1640.38C2520.73 1631.43 2541.73 1615.08 2562.46 1595.79C2565.08 1593.35 2567.71 1590.86 2570.33 1588.33C2572.15 1586.6 2574.29 1587.49 2575.31 1589.16ZM1980.79 2238.35C1980.36 2237.83 1979.93 2237.33 1979.49 2236.81C1914.56 2160.37 1834.51 2195.79 1752.21 2215.17C1746.79 2216.44 1744.58 2208.56 1749.28 2206.15C1764.03 2198.56 1781.37 2191.56 1799.95 2186.04C1791.9 2184.85 1783.83 2183.62 1775.6 2183.67C1759.11 2183.73 1743.87 2188.21 1727.69 2189.75C1722.8 2190.23 1720.14 2183.67 1724.94 2181.31C1749.86 2169.02 1796.3 2167.21 1821.3 2179.69C1821.65 2179.85 1821.91 2180.1 1822.19 2180.33C1878.39 2168.1 1940.59 2171.65 1975.62 2213.92C1976.84 2215.4 1978.03 2216.92 1979.18 2218.48C1982.55 2223.06 1985.64 2228.04 1988.39 2233.48C1990.73 2238.08 1984.09 2242.31 1980.79 2238.35ZM2289.54 2148.33C2282.73 2157.52 2274.73 2166.79 2265.81 2175.54C2249.44 2191.65 2229.98 2205.92 2209.25 2214.52C2200.92 2217.98 2192.4 2220.52 2183.77 2221.87C2178.81 2222.67 2176.96 2216.17 2181.15 2213.79C2200.29 2202.9 2220.63 2195.6 2239 2183.04C2255.52 2171.75 2270.77 2158.21 2284.75 2143.92C2287.35 2141.25 2291.73 2145.37 2289.54 2148.33ZM1982.24 2722.19C1975.13 2728.04 1965.46 2731.02 1954.72 2731.96C1950.67 2732.31 1946.49 2732.4 1942.25 2732.23C1924.68 2731.56 1906.21 2726.94 1892.85 2721.96C1889.07 2720.54 1885.63 2719.1 1882.81 2717.71C1880.68 2716.65 1879.46 2714.94 1878.92 2713.06C1878.17 2712.71 1877.4 2712.48 1876.66 2712.1C1875.13 2711.31 1874.06 2710.29 1873.31 2709.19C1869.38 2703.4 1875.33 2694.75 1883.46 2698.98C1887.21 2700.94 1891.11 2702.33 1895.04 2703.5C1901.62 2694.44 1910.19 2687.48 1919.84 2682.81C1920.3 2681.71 1921.02 2680.71 1922.13 2680.04C1924.93 2678.37 1927.92 2676.81 1931.03 2675.4C1945.54 2668.77 1962.84 2665.65 1977.02 2673.56C1988.65 2680.06 1996.27 2692.5 1992.64 2705.92C1990.75 2712.92 1987.07 2718.21 1982.24 2722.19ZM1443.81 1957.66C1447.55 1950.8 1451.88 1944.53 1456.68 1938.76C1493.46 1894.57 1558.79 1881.46 1616.34 1876.37C1627.65 1875.37 1638.66 1874.67 1649.09 1874.11C1694.61 1871.68 1739.21 1869.31 1783.12 1858.77C1792.06 1856.63 1800.98 1854.17 1809.87 1851.27C1859.43 1835.11 1902.53 1808.47 1945.91 1780.14C1949.7 1777.66 1953.73 1782.27 1950.47 1785.57C1946.29 1789.81 1941.96 1793.89 1937.51 1797.85C1880.86 1848.27 1803.5 1876.14 1729.13 1884.57C1677.63 1890.42 1625.22 1887.56 1574.17 1897.42C1524.22 1907.08 1487.13 1929.41 1451.12 1964.37C1446.73 1968.63 1441.31 1962.25 1443.81 1957.66ZM1383.85 1983.14C1383.71 1979.21 1385.18 1975.34 1387.39 1971.76C1390.15 1967.29 1394.06 1963.27 1397.46 1960.14C1404.39 1953.75 1413.06 1948.89 1422.38 1947.21C1424.6 1946.81 1426.43 1947.79 1427.55 1949.31C1429.41 1951.85 1429.3 1955.87 1425.69 1957.41C1418.29 1960.58 1411.28 1963.95 1405.36 1969.55C1399.88 1974.75 1397.03 1982.17 1391.38 1986.99C1388.12 1989.77 1383.98 1986.88 1383.85 1983.14ZM1323.16 2025.54C1327.71 2010.38 1336.09 1996.4 1346.77 1987.22C1351.16 1983.46 1357.28 1989.25 1354.14 1993.97C1351.97 1997.23 1349.85 2000.44 1347.84 2003.66C1341.88 2013.23 1336.87 2022.94 1334.42 2034.47C1331.47 2048.37 1333.35 2061.7 1333.71 2075.7C1333.83 2080.39 1327.04 2081.02 1325.2 2077.29C1317.77 2062.21 1317.9 2043.09 1323.16 2025.54ZM2521.77 1415.21C2521.02 1414.5 2520.71 1413.57 2520.71 1412.63C2520.71 1412.56 2520.75 1412.43 2520.75 1412.36C2520.77 1411.69 2520.98 1410.9 2521.27 1410.24C2522.19 1408.17 2524.15 1406.19 2526.02 1406.18C2531.71 1406.15 2536.9 1408.58 2542.08 1410.72C2543.58 1411.33 2545.03 1411.84 2546.5 1411.85C2546.56 1411.84 2546.73 1410.29 2546.98 1409.13C2546.31 1405.76 2548.69 1403.03 2548.69 1400.03C2548.69 1400.03 2548.69 1400.03 2548.69 1400.02C2548.69 1394.68 2558.1 1392.86 2564.17 1394.64C2568.54 1395.92 2572.67 1401.58 2571.81 1406.26C2571.81 1406.22 2571.81 1406.22 2571.79 1406.18C2571.67 1405.81 2571.6 1405.67 2571.56 1405.7C2571.46 1405.75 2571.54 1406.77 2571.85 1408.94C2571.71 1409.82 2571.56 1410.7 2571.4 1411.59C2571 1413.99 2570.69 1416.4 2569.79 1418.68C2569.77 1418.76 2569.71 1418.82 2569.69 1418.89C2568.08 1422.85 2564.79 1425.98 2561.5 1426.84C2560.73 1429.85 2557.67 1433.21 2554.12 1431.81C2548.06 1429.4 2542 1427 2535.94 1424.59C2533.25 1423.52 2530.75 1422.21 2528.4 1420.65C2526.04 1419.09 2523.85 1417.26 2521.77 1415.21ZM2546.52 1411.85C2546.51 1411.85 2546.51 1411.85 2546.5 1411.85C2546.5 1411.85 2546.5 1411.85 2546.5 1411.85L2546.52 1411.85Z" /><path id="Path 14" class="shp1" d="M2851.29 1233.43C2851.42 1233.48 2851.56 1233.49 2851.69 1233.53C2854.54 1234.33 2858.06 1233.25 2859.65 1230.51C2860.25 1230.23 2860.81 1229.92 2861.42 1229.65C2864.54 1228.3 2865.4 1225.15 2864.58 1222.39C2864.44 1221.86 2864.25 1221.34 2863.96 1220.85C2864.38 1220.09 2864.81 1219.34 2865.17 1218.55C2865.35 1218.15 2865.46 1217.76 2865.54 1217.38C2866.5 1212.41 2859.5 1208.09 2855.6 1211.89C2852.08 1215.3 2849.56 1219.56 2846.81 1223.59C2845.17 1226.01 2845.58 1228.85 2847.08 1230.86C2848.08 1232.22 2849.58 1233.21 2851.29 1233.43ZM2218.58 1649.11C2227.67 1656.97 2238.25 1664.08 2248.17 1670.43C2284.71 1714.74 2334.73 1748.09 2389.88 1764.21C2399.54 1767.03 2416 1772.83 2430.48 1773.41C2437.75 1773.7 2444.52 1772.71 2449.69 1769.33C2458.54 1767.84 2466.96 1763.83 2472.33 1757.92C2489.13 1739.45 2481.56 1704.41 2456.75 1697.34C2455.65 1697.02 2454.6 1697.1 2453.65 1697.42C2450.33 1698.55 2448.42 1702.9 2451.19 1705.61C2451.46 1705.87 2451.75 1706.11 2452.08 1706.33C2465.96 1715.23 2475.83 1736.91 2460.92 1750C2459.9 1750.89 2458.83 1751.5 2457.79 1752.17C2457.58 1751.02 2457.29 1749.87 2456.85 1748.75C2461.83 1745.93 2463.19 1737.95 2456.15 1735.65C2451.85 1734.27 2447.58 1732.85 2443.33 1731.4C2370.5 1706.56 2306.4 1671.37 2251.33 1618.07C2246.13 1613.04 2241 1607.85 2235.96 1602.49C2238.85 1598.86 2237.94 1592.66 2233.69 1590.36C2232.79 1589.88 2231.75 1589.56 2230.56 1589.48C2225.56 1589.15 2221.33 1589.88 2217.81 1591.34C2215.33 1591.75 2212.85 1592.15 2210.37 1592.56C2207.56 1593.02 2205.54 1595.03 2204.58 1597.48C2202.23 1587.7 2203.4 1575.11 2213.02 1569.49C2220.38 1565.18 2229.46 1566.33 2235.02 1572.72C2240.21 1578.67 2248.75 1571.2 2244.27 1564.95C2230.21 1545.3 2199.98 1554.72 2192.42 1575.33C2188 1587.37 2189.79 1600.4 2195.29 1612.14C2195.54 1615.59 2196.4 1618.93 2197.65 1622.2C2201.4 1631.99 2209.17 1640.96 2218.58 1649.11Z" /><path id="Path 15" class="shp0" d="M2289.44 2103.5C2286.85 2106.65 2289.42 2112.63 2293.69 2112.46C2304.08 2112.04 2313.79 2105.27 2322.9 2100.56C2324.1 2099.94 2325.31 2099.31 2326.52 2098.69C2335.27 2094.17 2343.98 2089.48 2351.44 2082.98C2354.65 2080.2 2352.19 2074.5 2347.85 2075.41C2342.62 2076.5 2337.58 2078.21 2332.65 2080.2C2327.25 2082.39 2321.96 2084.94 2316.67 2087.46C2307.5 2091.83 2296 2095.5 2289.44 2103.5ZM2331.4 2061.56C2334.6 2059.97 2337.67 2058.01 2340.67 2055.87C2347.25 2051.15 2353.33 2045.47 2359.13 2040.17C2362.1 2037.43 2358.85 2031.6 2355.12 2033.94C2352.1 2035.84 2349 2037.77 2345.92 2039.78C2338.83 2044.41 2331.9 2049.45 2326.38 2055.61C2323.58 2058.7 2328 2063.25 2331.4 2061.56ZM1735.03 2576.13C1759.36 2563.81 1781.13 2548.56 1798.59 2530.6C1801.61 2527.5 1804.53 2524.31 1807.29 2521.02C1809.65 2518.23 1805.82 2513.81 1802.68 2515.56C1778.28 2529.19 1755.6 2543.21 1732.16 2555.56C1724.38 2559.65 1716.49 2563.54 1708.44 2567.19C1691 2575.08 1672.74 2581.77 1652.71 2586.35C1614.41 2595.15 1577.91 2595.48 1540.75 2592.75C1522.98 2591.46 1505.07 2589.48 1486.73 2587.38C1479.99 2586.63 1478.19 2596.58 1484.31 2598.81C1497.27 2603.52 1511.23 2607.04 1525.85 2609.44C1592.13 2620.33 1672.1 2608 1735.03 2576.13Z" /></g></svg>