<svg xmlns="http://www.w3.org/2000/svg" viewBox="0 0 3415 4167" width="3415" height="4167"><defs><clipPath clipPathUnits="userSpaceOnUse" id="cp1"><path d="M0 0L3415 0L3415 4167L0 4167Z" /></clipPath></defs><style>tspan { white-space:pre }.shp0 { fill: #95d3ca } .shp1 { fill: #40b3b8 } .shp2 { fill: #2e9999 } .shp3 { fill: #248481 } .shp4 { fill: #52cccc } .shp5 { fill: #ffffff } .shp6 { fill: #403d33 } .shp7 { fill: #3dc1c1 } </style><g id="Page 1" clip-path="url(#cp1)"><path id="Path 6" class="shp0" d="M1025.8 1976.63C1031.46 1968.74 1037.19 1960.82 1043.01 1952.87C1042.55 1952.5 1042.09 1952.13 1041.63 1951.75C1036.34 1960.04 1031.07 1968.34 1025.8 1976.63ZM2268.96 1912.28C2235.46 1930.22 2204.1 1944.12 2176.48 1954.91C2171.19 1966.15 2165.9 1977.39 2160.6 1988.63C2197.31 1967.94 2233.25 1945.91 2268.48 1922.77C2268.56 1919.28 2268.75 1915.78 2268.96 1912.28ZM2357.92 1861.43C2357.13 1860.6 2356.35 1859.75 2355.58 1858.92C2351.19 1862.01 2346.81 1865.01 2342.46 1867.95C2343.29 1868.86 2344.15 1869.76 2344.98 1870.67C2349.29 1867.61 2353.62 1864.54 2357.92 1861.43Z" /><path id="Path 7" fill-rule="evenodd" class="shp0" d="M1320.45 2965.87C1324.14 2972.65 1327.86 2979.25 1331.59 2985.69C1259.63 2978.77 1201.36 2941.12 1145.37 2899.23C1124.09 2883.29 1109.57 2854.96 1075.13 2866.83C1067.5 2869.46 1060.73 2863.69 1056.15 2856.17C1029.84 2812.98 991.53 2782.33 950.11 2754.83C938.38 2747.04 935.83 2732.56 929.57 2722.29C912.26 2693.85 914.9 2650.69 877.7 2637.1C849.81 2626.92 830.92 2611.42 815.62 2585.96C800.56 2560.88 780.93 2539.58 756.67 2519.81C740.93 2507 728.95 2467.56 715.99 2439.71C697.99 2400.96 671.99 2362.27 667.75 2321.62C661.12 2258.29 651.63 2197.25 674.93 2127.9C703.54 2042.73 714.24 1951.83 760.35 1870.67C829.71 1748.59 920.55 1649.1 1042.51 1578.7C1143.93 1520.16 1251.73 1482.01 1369.5 1475.32C1380.94 1474.67 1394.21 1467.98 1395.38 1460.19C1401.58 1418.92 1422.08 1444.18 1438.4 1449.37C1417.3 1429.41 1433.58 1424.34 1450.31 1419.33C1510.32 1401.36 1572.51 1391.88 1632.7 1376.25C1685.71 1362.48 1738.24 1355.32 1790.65 1354.25C1767.98 1360.06 1747.88 1366.54 1730.72 1372.8C1727.92 1374.06 1725.07 1375.39 1722.25 1376.68C1630.9 1387.43 1539.1 1399.96 1455.46 1444.5C1476.32 1453.63 1497.13 1453.64 1520.2 1451.11C1540.95 1448.83 1559.85 1439.73 1580.97 1437.57C1505.35 1475.87 1433.26 1522.7 1366.41 1573.85C1362.8 1573.4 1359.12 1573.01 1355.41 1572.61C1361.23 1571.11 1367.04 1569.59 1372.86 1568.14C1349.61 1556.35 1328.27 1554.35 1309.96 1569.46C1295.63 1569 1282.01 1569.04 1269.23 1569.46C1253.49 1570.64 1230.11 1573.99 1203.62 1583.99C1201.2 1576.13 1194.18 1576.21 1186.42 1579.85C1171.21 1586.97 1156.25 1594.81 1141.86 1603.46C1133.73 1608.35 1119.93 1612.76 1127.3 1625.98C1127.72 1626.73 1128.19 1627.36 1128.68 1627.94C1120.21 1633.47 1112.03 1639.36 1104.23 1645.62C1078.65 1666.13 1056.26 1690.79 1037.83 1718.06C1030.08 1720.08 1022.4 1722.57 1014.81 1725.51C1013.3 1722.79 1010.68 1721.64 1006.33 1722.9C998.25 1725.24 992.71 1730.8 988.64 1737.52C959.2 1753.17 931.98 1774.88 909.16 1799.32C903.74 1803.38 899.54 1808.48 896.09 1814.21C883.39 1829.58 872.43 1845.69 863.73 1861.8C859.2 1870.18 855.1 1878.89 851.41 1887.85C850.71 1886.7 850.08 1885.6 849.61 1884.59C844.64 1874.06 836.89 1878.69 830.96 1884.49C810.07 1904.92 806.9 1932.49 802.11 1959.17C801.17 1964.4 805.44 1968.57 814.32 1968.99C817.08 1965.19 820.76 1960.23 824.32 1955.19C831.77 1944.67 832.89 1930.61 840.4 1919.83C824.36 1976.66 824.53 2039.84 844.4 2095.02C838.07 2127.29 831.18 2159.4 816.31 2189.25C835.55 2176.38 851.58 2157.96 863.33 2135.19C866.38 2140.27 869.63 2145.27 873.11 2150.1C874.95 2152.65 878.44 2150.5 877.25 2147.69C874.06 2140.12 871.06 2132.52 868.23 2124.88C885.22 2085.81 890.46 2035.65 879.09 1979.05C864.27 2006.03 856.63 2035.02 850.48 2064.42C839.25 2011.95 839.29 1958.74 856.78 1907.13C858.59 1905.79 859.03 1903.93 858.68 1901.81C863.46 1888.65 869.35 1875.59 876.54 1862.68C876.69 1862.41 876.85 1862.15 877 1861.89C877.88 1868.03 883.02 1873.99 888.67 1871.29C911.08 1860.58 917.06 1836.93 925.39 1817.74C924.84 1812.36 924.81 1805.42 923.65 1800.52C938.14 1786.01 954.17 1773.03 971.36 1761.8C975.24 1759.27 979.17 1756.92 983.14 1754.68C984.24 1758.8 988.05 1761.6 992.99 1761.5C1008.85 1761.17 1012.23 1748.41 1016.02 1739.06C1019.75 1737.56 1023.5 1736.11 1027.28 1734.71C1021.76 1744 1016.66 1753.52 1012.08 1763.25C1002 1784.64 991.47 1809.98 986.04 1835.48C985.02 1839.73 984.15 1843.73 983.42 1847.4C983.49 1847.91 983.58 1848.51 983.66 1849.08C982.8 1855.48 982.3 1861.85 982.3 1868.12C982.17 1868.57 982.06 1869.02 981.94 1869.47C981.25 1869.71 980.57 1870.03 979.9 1870.44C980.2 1868.92 980.52 1867.4 980.81 1865.87C981.95 1859.92 983.33 1852.05 975.16 1849.08C967.87 1846.44 963.52 1851.82 958.64 1856.38C924.63 1888.2 919.85 1927.98 921.28 1969.32C904.66 2023.84 905.92 2083.9 921.91 2140.19C960.96 2277.69 1085.21 2373.06 1217.28 2434.92C1216.8 2454.52 1216.61 2474.54 1216.79 2495.06C1216.83 2500.35 1216.9 2505.6 1216.99 2510.83C1150.29 2479.02 1087.83 2438.6 1031.54 2390.69C976.05 2343.44 933.49 2288.52 887.3 2232.81C885.33 2230.46 881.21 2233.67 883.04 2236.1C888.34 2242.42 892.85 2249.25 896.56 2256.63C896.6 2256.67 896.66 2256.63 896.7 2256.65C898.47 2260.19 900.33 2263.63 901.66 2265.5C907.25 2273.38 913.02 2281.1 918.91 2288.77C929.77 2302.9 941.08 2316.69 952.87 2330.04C978.43 2359 1006.49 2385.88 1036.16 2410.58C1091.23 2456.5 1152.43 2495.08 1217.31 2525.56C1218.1 2556.75 1219.65 2586.85 1221.81 2615.81C1124.74 2571.46 1039.43 2510.31 954.78 2439.83C952.59 2438 949.81 2440.77 951.65 2442.96C1021.59 2526.35 1120.33 2589.31 1223.14 2632.65C1226.28 2670.15 1230.4 2705.67 1235.14 2738.92C1241.64 2767.88 1250.46 2800.33 1262.59 2835.17C1258.24 2830.81 1253.99 2826.29 1249.86 2821.58C1236.3 2835.69 1245.75 2842.83 1250.88 2848.44C1259.92 2858.27 1269.14 2867.94 1278.51 2877.4C1281.39 2884.48 1284.41 2891.65 1287.58 2898.88C1292.42 2909.9 1297.39 2920.54 1302.44 2930.9C1294.12 2918.1 1286.3 2904.94 1274.91 2894.79C1241.57 2865.08 1205.08 2881.08 1167.11 2886.94C1195.89 2919.71 1259.28 2952.56 1320.45 2965.87ZM954.91 2534.52C954.72 2505.52 940.13 2480.5 931.94 2453.71C930.42 2448.75 926.76 2443.71 920.37 2447.15C911.07 2452.12 909.18 2460.71 911.08 2470.52C910.22 2497.04 933.66 2516.87 931.61 2544.06C931.44 2546.37 939.29 2551.65 943.24 2551.48C953.13 2551.06 954.96 2542.52 954.91 2534.52ZM1020.4 2627.04C1033 2643.42 1054.1 2654.9 1070.3 2670C1076.27 2675.54 1085.62 2683.79 1093.74 2673.75C1099 2667.25 1094.48 2659.62 1089.3 2652.79C1055.29 2607.96 1015.31 2567.06 993.71 2512.38C976.2 2557.35 995.5 2594.71 1020.4 2627.04ZM845.11 2395.5C836.33 2364.46 847.12 2331.69 838.78 2298.67C813.45 2323.04 808.41 2378.35 827.48 2402.5C829.44 2404.98 835.3 2407.69 836.75 2406.65C840.48 2403.98 845.92 2398.38 845.11 2395.5ZM833.69 2226.46C830.79 2220.71 829.39 2213.48 821.22 2213.94C811.82 2214.46 806.29 2221.77 807.78 2229.63C811.68 2250.29 797.56 2270.1 807.71 2296.21C834.38 2276.69 849.28 2257.33 833.69 2226.46ZM775.75 2151.56C760.9 2147.9 760.17 2160.81 757.59 2170.83C744.44 2221.9 740.64 2273.25 753.26 2324.98C755.38 2333.67 758.44 2344 771.03 2340.35C780.52 2337.6 779.34 2328.56 779.64 2324.23C772.71 2272.71 777.28 2225.02 785 2177.46C786.69 2167.06 789.48 2154.94 775.75 2151.56ZM739.65 2159.21C763.93 2127.44 770.92 2096.42 772.21 2063.44C772.47 2056.71 767.92 2050.13 760.44 2050.82C756.51 2051.19 750.43 2056.34 749.81 2060.07C744.84 2090.17 726.14 2118.58 739.65 2159.21ZM1159.4 2836.63C1171.72 2859.48 1194.69 2856.31 1212.99 2864.27C1216.9 2865.96 1224.46 2865.48 1227.01 2862.81C1232.15 2857.44 1229.36 2849.79 1225.01 2845.06C1168.46 2783.56 1123.44 2710.46 1040.39 2676.4C1008.02 2663.13 985.42 2633.6 978.7 2596.33C976.52 2584.27 979.18 2570.06 961.7 2563.63C947.54 2596.69 952.91 2629.37 972.65 2652.4C1019.46 2707.02 1053.59 2775.02 1125.95 2804.85C1139.39 2810.4 1152.39 2823.63 1159.4 2836.63ZM1444.33 2681.04C1451.76 2655.6 1458.95 2629.4 1465.85 2602.44C1495.37 2606.81 1524.97 2609.31 1554.14 2609.5C1556.22 2620.44 1560.78 2629.81 1566.42 2636.71C1585.26 2659.71 1610.44 2675.79 1637.27 2689C1572.46 2691.85 1508.5 2690.19 1444.33 2681.04ZM1235.07 2265.37C1237.94 2267.54 1240.83 2269.6 1243.72 2271.62C1237.69 2275.42 1232.2 2279.15 1227.27 2282.67C1223.52 2317.54 1220.57 2354.79 1218.75 2394.04C1129.27 2349.94 1042.22 2290.17 987.7 2206.71C948.31 2146.42 928.23 2072.17 938.85 2002.96C942.07 2001.71 944.81 1998.71 947.11 1995.67C959.94 1978.68 967.53 1959.85 965.59 1937.99C966.9 1931.85 968.24 1925.71 969.57 1919.57C975.83 1909.57 983.02 1899.91 991.2 1890.68C992.94 1893.87 994.82 1896.97 996.9 1899.97C997.16 1900.34 997.33 1900.59 997.44 1900.76C997.55 1900.89 997.63 1900.98 997.8 1901.18C999.04 1902.69 1000.36 1904.13 1001.74 1905.51C1002.51 1906.29 1003.33 1907.03 1004.16 1907.76C1009.44 1916.88 1016.03 1926.22 1024.31 1935.34C1009.1 1957.85 994.84 1981.01 982.5 2004.78C986.23 2010.64 989.91 2016.52 993.59 2022.39C992.83 2023.49 992.04 2024.6 991.29 2025.7C1017.82 2072.99 1062.72 2138.77 1135.5 2198.77C1170.46 2227.58 1204.72 2249.17 1235.07 2265.37ZM2474.9 2312.54C2474.35 2315.46 2473.81 2318.38 2473.27 2321.29C2470.02 2315.58 2467.52 2309.96 2465.48 2304.4C2468.67 2307.04 2471.79 2309.79 2474.9 2312.54Z" /><path id="Shape 1" class="shp0" d="M1181 2275L1238.01 2275L1523 2362L1497 2484L1421 2772C1421 2772 1422 2764.05 1419 2829C1416 2893.95 1413 2931 1413 2931C1413 2931 1252.5 2921.55 1236 2856C1219.5 2790.45 1213 2427.55 1220 2378C1227 2328.45 1181 2275 1181 2275Z" /><path id="Path 8" fill-rule="evenodd" class="shp0" d="M2350.52 2557.6C2350.42 2558.6 2350.58 2559.58 2351.13 2560.5C2370.08 2592.38 2339.81 2607.1 2329.17 2627.67C2260.9 2759.71 2155.71 2848.56 2011.85 2887.29C1976.65 2896.77 1954.4 2921.48 1925.96 2938.75C1918.35 2943.35 1912.07 2952.31 1914.36 2962.06C1917.36 2974.88 1928.69 2970.21 1937.25 2970.08C1984.28 2969.42 2031.03 2965.92 2075.94 2950.73C2116.02 2937.17 2155.69 2922.42 2200.79 2906.31C2144.65 2951.25 2012.06 2985.85 1933.25 2978.37C1909.78 2976.15 1887.22 2973.52 1865 2987.17C1725.5 3072.79 1579.66 3072.79 1432.45 3012.15C1423.96 3008.65 1415.56 3005.35 1407.17 3002.35C1405.81 2999.1 1404.46 2995.87 1403.1 2992.65C1403.63 2986.88 1404.11 2981.02 1404.56 2975.15C1423.54 2985.25 1443.48 2993.88 1464.61 3000.6C1539.03 3024.29 1616.65 3034.1 1694.44 3015.48C1707.82 3012.29 1719.88 3013.23 1732.7 3013.02C1762.25 3012.52 1791.03 3007.44 1797.37 2972.5C1801.05 2952.27 1807.94 2949.44 1827.57 2951.1C1860.45 2953.87 1885.67 2937.02 1907.68 2907.52C1868.72 2899.27 1833.76 2897.25 1800.06 2887.17C1771.19 2878.54 1774.14 2914.4 1756.15 2920.02C1760.61 2940.48 1795.43 2925.75 1785.14 2944.63C1773.35 2966.27 1758.25 2993.81 1724.78 2992.58C1693.52 2991.44 1661.84 2993.04 1631.09 2988.46C1563.86 2978.46 1495.81 2979.9 1425.74 2972.42C1440.88 2959.73 1459.4 2975.4 1476.83 2954.52C1453.48 2945.13 1430.15 2935.96 1407.33 2926.1C1407.85 2912.04 1408.19 2897.75 1408.2 2883.15C1408.23 2854.85 1407.28 2827.73 1405.58 2801.85C1417.36 2768.21 1428.91 2732.81 1439.99 2695.75C1545.8 2713.58 1657.51 2713.58 1757.36 2682.71C1759.08 2682.19 1758.84 2679.25 1756.92 2679.46C1730.87 2682.29 1705.05 2684.71 1679.4 2686.54C1679.44 2679.33 1672.87 2675.9 1665.82 2672.9C1634.89 2659.73 1604.18 2646.23 1586.21 2615.27C1582.04 2613.94 1579 2611.83 1576.61 2609.17C1596.49 2608.44 1616.1 2606.52 1635.26 2603.31C1672.33 2620.42 1710.66 2634.37 1749.22 2647.79C1761.36 2652 1772.33 2653.5 1775.73 2637.35C1773.75 2626.98 1765.76 2625.42 1758.23 2623.42C1728.36 2615.54 1699.62 2604.85 1671.41 2592.75C1671.16 2591.48 1670.18 2590.33 1668.61 2590.31C1667.66 2590.29 1666.71 2590.29 1665.76 2590.27C1651.86 2584.21 1638.06 2577.83 1624.33 2571.27C1616.85 2567.69 1604.73 2555.63 1597.34 2569.31C1591.84 2579.52 1599.69 2585.5 1608.26 2590.17C1594.43 2590.23 1580.64 2590.29 1566.88 2590.23C1564.49 2584.58 1561.6 2578.69 1556.69 2573.27C1554.82 2579.04 1553.74 2584.67 1553.25 2590.1C1525.63 2589.73 1498.02 2588.56 1470.13 2585.44C1473.92 2570.15 1477.61 2554.65 1481.19 2538.9C1485.73 2545.62 1491.71 2550.96 1501.66 2552.56C1507.52 2553.5 1511.95 2547.71 1510.7 2542.6C1509.12 2536.13 1508.82 2529.17 1508.39 2522.27C1566.85 2530.67 1626.06 2533.96 1684.98 2532.08C1782.98 2529 1897.65 2517.33 1984.93 2469.42C1997.38 2462.58 1988.16 2446.04 1975.93 2448.08C1915.8 2458.1 1857.71 2477.12 1797.12 2485.81C1738.41 2494.25 1678.96 2497.29 1619.69 2495.1C1577.44 2493.54 1535.17 2489.23 1493.3 2482.31C1501.38 2442.29 1508.14 2403.52 1513.79 2366.19C1527.32 2368.48 1540.24 2370.33 1552.42 2371.83C1605.23 2388.08 1709.81 2412.08 1835.61 2384.94C1909.66 2368.96 1967.18 2340.4 2006.05 2316.75C2006.09 2316.67 2006.13 2316.58 2006.17 2316.5C2049.05 2300.67 2089.46 2273.06 2119.46 2243.79C2142.33 2221.44 2178.54 2155.54 2122.35 2146.77C2118.92 2146.23 2115.96 2151.29 2119.75 2152.94C2132.5 2155.9 2136.62 2165.67 2132.12 2182.23C2141.67 2199.23 2139.06 2213.29 2124.31 2224.42C2119.17 2230.21 2113.27 2235.52 2107.5 2240.67C2090.75 2255.6 2072.22 2268.46 2052.63 2279.35C2040.45 2286.15 2028.21 2291.46 2015.85 2295.94C2059.97 2202.27 2104.08 2108.62 2148.19 2014.96C2154.37 2011.5 2160.5 2008.04 2166.58 2004.63C2201.56 1985.01 2235.87 1964.18 2269.38 1942.13C2270.56 1950.5 2273.08 1958.7 2278 1966.61C2288.65 1983.73 2284.44 2010.04 2306.1 2023.54C2312.58 2027.57 2313.44 2032.52 2308.63 2039.65C2296.77 2057.18 2289.69 2072.59 2323.37 2066.87C2332.92 2065.25 2332.5 2074.86 2329.67 2080.56C2324.5 2090.94 2318.08 2100.77 2311.65 2110.46C2310.87 2111.62 2310.17 2112.77 2309.48 2113.94C2296.29 2136.06 2298.19 2157.13 2312.31 2170.56C2319.29 2177.23 2329.25 2182.02 2341.87 2184.15C2355.5 2186.46 2370.9 2182.35 2382.04 2195.6C2388.19 2202.87 2394.1 2216.37 2406.75 2208.5C2412.69 2204.77 2415.04 2200.56 2415.42 2196.08C2415.98 2189 2411.52 2181.29 2408.21 2173.98C2407.31 2172 2408.54 2169.08 2408.79 2166.5C2417.44 2159.75 2423.15 2168.79 2430.19 2170.42C2441.35 2173.04 2450.67 2182.5 2463.38 2179.54C2462.06 2174.98 2462.69 2170.75 2464.21 2166.67C2468.9 2153.96 2482.02 2142.58 2471.4 2126.98C2462.52 2113.94 2456.29 2099.37 2463.29 2082.99C2443.19 2063.74 2434.62 2038.09 2424.15 2013.27C2404.79 1967.37 2386.52 1921.32 2354.69 1881.95C2358.83 1878.89 2363.15 1875.7 2367.6 1872.37C2418.71 1932.8 2444.23 2006.72 2464.17 2083.61C2487.29 2107.27 2489.92 2138.27 2491.37 2168.4C2491.67 2174.08 2494.5 2181.94 2495.23 2189.04C2496.29 2199.48 2492.77 2208.29 2469.73 2206.08C2462.73 2205.42 2461 2212.35 2461.08 2220.13C2461.1 2224.5 2461.73 2229.17 2462.29 2232.85C2463.08 2238.13 2462.48 2244.56 2464.96 2249.19C2450.31 2239.44 2434.85 2231.67 2418.85 2226.56C2415.02 2225.33 2413.63 2230.46 2416.33 2232.52C2420.17 2235.42 2423.98 2238.25 2427.79 2241.06C2420.71 2240.73 2413.31 2241.83 2406.88 2242.79C2404.1 2243.21 2401.77 2243.92 2399.79 2244.83C2390.15 2240.4 2380.31 2236.69 2370.44 2234.08C2380.48 2230.35 2386.46 2221.92 2378.54 2212.77C2367.65 2200.19 2351.31 2192.42 2333.67 2192.27C2320.13 2192.17 2315.15 2202.65 2317.08 2213.9C2321.02 2236.96 2321.23 2263.69 2333.63 2281.48C2347.12 2300.79 2353 2318.98 2352.02 2342.15C2393.62 2300.4 2394.71 2291.9 2364.48 2252.37C2362.08 2249.25 2359.4 2246.67 2357.79 2244.42C2368.62 2250.08 2379.52 2255.23 2390.38 2260.37C2390.08 2266.96 2391.85 2274.42 2393.77 2281.02C2406.48 2324.83 2410.52 2373.02 2453.67 2402.08C2459.6 2406.08 2457.38 2485.02 2451.92 2485.96C2425.9 2490.42 2419.25 2513 2407.4 2530.56C2405.83 2532.85 2404.21 2535.08 2402.42 2537.17C2401.65 2538.06 2400.92 2539.02 2400.21 2540.04C2391.94 2551.92 2387.19 2570.06 2366.37 2549.88C2361.67 2545.31 2351.04 2551.65 2350.52 2557.6ZM1985.32 2837.27C1998.33 2826.06 2001.38 2806.54 2022.59 2800.38C2033.94 2797.08 2033.14 2777.54 2029.18 2764.71C2025.63 2753.21 2015.56 2753.35 2006.48 2757.52C1949.17 2783.73 1885.77 2797.23 1835.98 2839.29C1828.25 2845.81 1814.86 2848.92 1818.09 2861.77C1820.65 2871.96 1832.45 2871.46 1841.38 2873.02C1856.85 2875.75 1872.34 2878.42 1887.82 2881.1C1931.6 2891.83 1957.35 2861.4 1985.32 2837.27ZM1824.39 2819.96C1832.49 2813.25 1848.85 2809.4 1843.34 2794.63C1838.62 2782.02 1822.96 2786.65 1811.07 2781.23C1785.16 2787.38 1770.25 2808.65 1755.75 2829.08C1751.25 2835.44 1759.39 2843.17 1766.48 2847.19C1773.78 2851.35 1783.72 2852.94 1787.59 2845.94C1796.06 2830.58 1812.95 2829.42 1824.39 2819.96ZM1721.18 2935.71C1689.05 2948.17 1656.07 2956.27 1621.64 2958.12C1624.89 2994.63 1661.51 2982.54 1672.08 2979.73C1692.15 2974.4 1711.78 2976.02 1731.26 2972.81C1746.96 2970.23 1761.79 2963.13 1757.36 2946.5C1752.98 2930.06 1735.53 2930.15 1721.18 2935.71ZM1613.75 2941.15C1567.22 2923.67 1525.47 2897.33 1482.87 2872.46C1476.32 2868.65 1468.17 2867.15 1460.55 2865.71C1454.25 2864.52 1446.15 2864.02 1444.91 2872.5C1444.36 2876.29 1448.38 2883.56 1451.82 2884.69C1469.49 2890.48 1473.56 2903.17 1476.86 2920.04C1480.63 2939.27 1499.01 2954.96 1515.33 2954.81C1550.56 2954.46 1585.43 2974.6 1620.73 2957.71C1621.02 2951 1620.21 2943.58 1613.75 2941.15ZM1748.27 2712.48C1774.66 2765.06 1818.37 2757.29 1854.29 2766.73C1857.44 2767.56 1863.18 2762.67 1865.94 2759.06C1867.19 2757.44 1864.41 2749.6 1862.87 2749.42C1825.09 2744.83 1792.9 2720.56 1748.27 2712.48ZM1787.58 2703.65C1837.48 2718.52 1888.93 2723.81 1940.55 2727.83C1955.48 2729 1963.05 2717.85 1963.91 2706.46C1965.66 2683.23 1947.47 2693.48 1933.21 2691.92C1887.62 2698.85 1840.94 2686.94 1793.9 2678.29C1783.11 2676.31 1768.22 2668.79 1765.43 2686.52C1763.34 2699.83 1777.92 2700.77 1787.58 2703.65ZM1803.47 2652.46C1804.14 2661.77 1812.83 2663.56 1820.86 2664.33C1859.49 2668.04 1898.1 2671.94 1936.97 2668.21C1943.84 2667.54 1950.94 2665.65 1951.31 2658.02C1951.88 2646.1 1942.1 2648.63 1934.76 2648.33C1921.84 2647.81 1908.93 2647.23 1888.32 2646.31C1871.1 2649.35 1847.2 2640.83 1822.71 2639.46C1814.32 2639 1802.51 2639.02 1803.47 2652.46ZM1878.8 2599.06C1880.78 2612.63 1892.85 2607.04 1903.83 2610.69C1944.76 2606.17 1981.84 2584.23 2019.15 2563.77C2027.14 2559.37 2036.43 2547.79 2028.89 2537.17C2021.69 2527 2010.44 2536.94 2004.65 2540.6C1968.48 2563.56 1933.91 2589.17 1888.01 2588.48C1882.68 2588.4 1877.96 2593.38 1878.8 2599.06ZM1904.99 2564.31C1944.36 2556.6 1983.05 2536.67 2020.31 2522.08C2021.33 2521.69 2020.93 2520.06 2019.86 2520.42C1981.79 2532.96 1939.15 2542.29 1903.8 2561.5C1902.19 2562.38 1903.36 2564.62 1904.99 2564.31ZM2068.53 2675.94C2044.25 2684.19 2010.23 2677.96 2001.58 2711.35C1997.15 2728.46 2014.36 2730.38 2038.74 2730.48C2058.58 2732.29 2076.99 2715.48 2085.94 2688.88C2089.77 2677.54 2078.25 2672.65 2068.53 2675.94ZM2342.96 2501.25C2332.13 2495 2326.35 2503.48 2322.54 2512.52C2321.33 2515.42 2320 2518.23 2318.62 2520.98C2292.21 2574.02 2238.42 2600.75 2191.35 2621.27C2158.54 2635.58 2159.15 2651.48 2153.29 2673.1C2150.69 2682.71 2147.9 2697.35 2162 2698.69C2172.46 2699.67 2188.29 2711.21 2195.69 2691.56C2199.79 2680.67 2202.77 2666.62 2219.15 2680.52C2234.54 2693.58 2225.06 2699.52 2214.35 2710.04C2189.42 2734.56 2155.71 2733.81 2126.27 2745.06C2119.12 2747.79 2107.83 2746.21 2104.33 2750.96C2075.21 2790.27 2037.88 2822.46 1999.88 2866.1C2052.74 2863.25 2087.48 2838.31 2123.58 2820.35C2183.69 2790.44 2232.33 2745.94 2267.37 2687.71C2274.42 2676 2288.1 2665.83 2270.65 2651.27C2260.69 2642.96 2265.92 2636.46 2275.56 2630.35C2308.69 2609.42 2325.71 2578 2337.79 2543.4C2340.21 2536.5 2342.46 2529.46 2344.56 2522.35C2346.81 2514.77 2351.35 2506.1 2342.96 2501.25ZM2058.19 2546.35C2073.86 2577.04 2098.42 2583.23 2115.4 2560.96C2127.56 2545.02 2119.54 2528.37 2115.63 2512.42C2113.56 2504.08 2105.63 2500.27 2096.88 2502.85C2076.71 2508.77 2084.04 2528.81 2077.19 2544.52C2067.04 2533.54 2073.8 2511.17 2056.55 2517.33C2040.66 2523.02 2053.33 2536.83 2058.19 2546.35ZM2131.79 2478.83C2145.5 2494.38 2144.13 2520.56 2163.96 2529.56C2179.37 2536.58 2192.31 2529.42 2207.31 2516.58C2229.9 2497.29 2250.21 2476.92 2267.92 2454.27C2274.79 2445.46 2281.29 2436.27 2287.33 2426.69C2290.04 2422.42 2292.62 2418.06 2295.15 2413.63C2297.69 2409.17 2300.15 2404.67 2302.5 2400.02C2315.25 2374.85 2306.63 2354.58 2300.33 2332.77C2295.4 2315.65 2284.94 2318.31 2274.42 2329.06C2260.04 2343.73 2246.42 2359.1 2232.44 2374.15C2228.75 2378.08 2225.06 2382 2221.33 2385.9C2206.04 2401.79 2190.04 2417 2171.98 2430.29C2152.31 2444.77 2167.19 2465.83 2174.94 2484.44C2159.6 2485.02 2158.38 2468.25 2146.13 2470.31C2139.54 2471.44 2128.6 2475.23 2131.79 2478.83ZM1744.77 2674.4C1691.35 2657.17 1649.26 2609.42 1587.22 2615.35C1637.36 2641.4 1683.15 2679 1744.77 2674.4ZM2379.81 2492.71C2380.08 2493.21 2380.31 2493.71 2380.6 2494.23C2380.67 2494.1 2380.71 2494 2380.77 2493.88C2391.12 2471.04 2400.79 2450.48 2409.71 2429.63C2412.75 2422.54 2414.69 2413.67 2406.12 2409.06C2396.88 2404.1 2392.21 2411.6 2388.46 2418.65C2376.6 2440.94 2363.63 2463.13 2379.81 2492.71ZM2026.96 2648.56C2024.8 2654.75 2034.52 2660.58 2040.5 2658.33C2060.05 2650.98 2085.4 2655.38 2097.21 2634.08C2097.23 2623.98 2092.25 2616.56 2086.08 2619.69C2066.37 2629.63 2036.73 2620.6 2026.96 2648.56ZM2454.17 2260.79C2463.21 2267.73 2472.02 2274.75 2480.54 2282.15C2479.67 2286.88 2478.79 2291.6 2477.9 2296.33C2475.35 2294.23 2472.87 2292.21 2470.52 2290.31C2466.81 2287.35 2462.94 2284.33 2458.94 2281.31C2457.58 2275.29 2456.38 2269.38 2454.96 2263.48C2454.73 2262.52 2454.44 2261.69 2454.17 2260.79ZM2487.48 2238.33C2487.85 2238.4 2488.23 2238.48 2488.65 2238.58C2488.6 2238.77 2488.56 2238.96 2488.54 2239.17C2487.02 2247.29 2485.52 2255.35 2484.04 2263.4C2480.37 2260.37 2476.67 2257.5 2472.9 2254.73C2482.5 2256.29 2475 2236 2487.48 2238.33ZM1569.28 3131.29C1596.57 3127.83 1625.05 3122.02 1653.8 3121.56C1641.01 3137 1625.38 3143.44 1607.2 3147.87C1568.4 3157.31 1529.99 3154.75 1490.74 3152.5C1400.6 3147.29 1319.59 3119.31 1247.37 3065.12C1227.61 3050.31 1210.77 3030.56 1186.41 3022.98C1068.65 2986.33 976.78 2907.4 881.22 2834.98C867.3 2824.44 847.1 2813.79 840.39 2784.54C861.53 2799.13 875.91 2809.04 890.29 2818.96C870.43 2764.81 821.16 2729.4 805.36 2673.96C837.56 2689.58 848 2723.83 867.54 2749.77C919.53 2818.77 961.38 2897.79 1055.63 2919.83C1058.56 2920.52 1062.12 2925.04 1062.68 2928.25C1067.26 2954.58 1087.49 2956.54 1108.51 2962.73C1136.49 2970.94 1164.77 2978.69 1191.2 2993.71C1218.35 3009.15 1236.7 3034.31 1260.09 3050.4C1352.16 3113.65 1454.07 3145.94 1569.28 3131.29ZM2433.54 2685.33C2434.13 2709.44 2438.15 2735.23 2425.73 2762.92C2417.17 2736.13 2440.94 2717.69 2420.4 2698.15C2404.44 2713.9 2409.25 2739.6 2382.33 2759.08C2389.88 2721.17 2404.87 2693.81 2423.1 2669.23C2427.73 2663 2432.56 2656.94 2437.54 2650.94C2433.79 2662 2433.27 2673.46 2433.54 2685.33ZM804.92 2672.46C805.06 2672.98 805.22 2673.46 805.36 2673.96C804.91 2673.75 804.5 2673.5 804.03 2673.27C803.98 2672.42 803.89 2671.56 803.83 2670.71C804.23 2671.27 804.6 2671.83 805.01 2672.4C805 2672.4 804.95 2672.44 804.92 2672.46ZM757.65 2550.42C782.74 2587 800.61 2626.21 803.83 2670.71C777.73 2634.56 769.02 2591.98 757.65 2550.42ZM2463.92 2523.6C2499.52 2561.79 2468.77 2592.71 2452.65 2625.5C2457.67 2591.92 2469.83 2559.08 2463.92 2523.6ZM1359.7 3031.04C1363.6 3039 1367.64 3046.83 1371.95 3054.4C1370.4 3054.52 1368.88 3054.65 1367.48 3054.85C1357.26 3051.92 1342.32 3054.67 1340.57 3039.65C1339.51 3030.56 1346.04 3023.33 1355.54 3024.69C1356.93 3026.81 1358.32 3028.96 1359.7 3031.04Z" /><path id="Path 9" class="shp1" d="M1508.39 2522.27C1566.85 2530.67 1626.06 2533.96 1684.98 2532.08C1782.98 2529 1897.65 2517.33 1984.93 2469.42C1997.38 2462.58 1988.16 2446.04 1975.93 2448.08C1915.8 2458.1 1857.71 2477.12 1797.12 2485.81C1738.41 2494.25 1678.96 2497.29 1619.69 2495.1C1577.44 2493.54 1535.17 2489.23 1493.3 2482.31C1490.87 2494.35 1488.33 2506.48 1485.65 2518.75C1493.22 2520 1500.8 2521.17 1508.39 2522.27ZM987.7 2206.71C948.31 2146.42 928.23 2072.17 938.85 2002.96C943.33 1973.79 953.32 1945.53 969.57 1919.57C975.83 1909.57 983.02 1899.91 991.2 1890.68C989.49 1887.52 987.93 1884.29 986.48 1880.99C985.24 1878.18 983.23 1875.96 980.8 1874.27C981.13 1872.67 981.51 1871.08 981.94 1869.47C981.25 1869.71 980.57 1870.03 979.9 1870.44C979.05 1870.96 978.22 1871.57 977.44 1872.4C950.51 1900.63 932.11 1933.8 921.28 1969.32C904.66 2023.84 905.92 2083.9 921.91 2140.19C960.96 2277.69 1085.21 2373.06 1217.28 2434.92C1217.61 2421.04 1218.13 2407.44 1218.75 2394.04C1129.27 2349.94 1042.22 2290.17 987.7 2206.71ZM1554.14 2609.5C1561.66 2609.54 1569.15 2609.44 1576.61 2609.17C1596.49 2608.44 1616.1 2606.52 1635.26 2603.31C1646.81 2601.4 1658.21 2599.02 1669.39 2596.1C1671.1 2595.67 1671.69 2594.13 1671.41 2592.75C1671.16 2591.48 1670.18 2590.33 1668.61 2590.31C1667.66 2590.29 1666.71 2590.29 1665.76 2590.27C1646.43 2589.98 1627.3 2590.06 1608.26 2590.17C1594.43 2590.23 1580.64 2590.29 1566.88 2590.23C1562.33 2590.21 1557.79 2590.17 1553.25 2590.1C1525.63 2589.73 1498.02 2588.56 1470.13 2585.44C1468.72 2591.15 1467.29 2596.81 1465.85 2602.44C1495.37 2606.81 1524.97 2609.31 1554.14 2609.5ZM887.3 2232.81C885.33 2230.46 881.21 2233.67 883.04 2236.1C888.34 2242.42 892.85 2249.25 896.56 2256.63C896.6 2256.67 896.66 2256.63 896.7 2256.65C898.47 2260.19 900.33 2263.63 901.66 2265.5C907.25 2273.38 913.02 2281.1 918.91 2288.77C929.77 2302.9 941.08 2316.69 952.87 2330.04C978.43 2359 1006.49 2385.88 1036.16 2410.58C1091.23 2456.5 1152.43 2495.08 1217.31 2525.56C1217.19 2520.69 1217.08 2515.77 1216.99 2510.83C1150.29 2479.02 1087.83 2438.6 1031.54 2390.69C976.05 2343.44 933.49 2288.52 887.3 2232.81ZM1904.99 2564.31C1944.36 2556.6 1983.05 2536.67 2020.31 2522.08C2021.33 2521.69 2020.93 2520.06 2019.86 2520.42C1981.79 2532.96 1939.15 2542.29 1903.8 2561.5C1902.19 2562.38 1903.36 2564.62 1904.99 2564.31ZM951.65 2442.96C1021.59 2526.35 1120.33 2589.31 1223.14 2632.65C1222.67 2627.08 1222.23 2621.46 1221.81 2615.81C1124.74 2571.46 1039.43 2510.31 954.78 2439.83C952.59 2438 949.81 2440.77 951.65 2442.96ZM1444.33 2681.04C1442.89 2685.98 1441.44 2690.87 1439.99 2695.75C1545.8 2713.58 1657.51 2713.58 1757.36 2682.71C1759.08 2682.19 1758.84 2679.25 1756.92 2679.46C1730.87 2682.29 1705.05 2684.71 1679.4 2686.54C1665.31 2687.54 1651.27 2688.38 1637.27 2689C1572.46 2691.85 1508.5 2690.19 1444.33 2681.04ZM1014.81 1725.51C1005.93 1728.95 997.19 1732.97 988.64 1737.52C959.2 1753.17 931.98 1774.88 909.16 1799.32C904.62 1804.18 900.27 1809.16 896.09 1814.21C883.39 1829.58 872.43 1845.69 863.73 1861.8C859.2 1870.18 855.1 1878.89 851.41 1887.85C847.16 1898.2 843.49 1908.9 840.4 1919.83C824.36 1976.66 824.53 2039.84 844.4 2095.02C849.43 2109 855.71 2122.48 863.33 2135.19C866.38 2140.27 869.63 2145.27 873.11 2150.1C874.95 2152.65 878.44 2150.5 877.25 2147.69C874.06 2140.12 871.06 2132.52 868.23 2124.88C860.86 2104.92 854.83 2084.73 850.48 2064.42C839.25 2011.95 839.29 1958.74 856.78 1907.13C857.39 1905.35 858.04 1903.59 858.68 1901.81C863.46 1888.65 869.35 1875.59 876.54 1862.68C876.69 1862.41 876.85 1862.15 877 1861.89C889.65 1839.36 905.44 1818.74 923.65 1800.52C938.14 1786.01 954.17 1773.03 971.36 1761.8C975.24 1759.27 979.17 1756.92 983.14 1754.68C993.84 1748.63 1004.83 1743.57 1016.02 1739.06C1019.75 1737.56 1023.5 1736.11 1027.28 1734.71C1030.63 1729.06 1034.15 1723.51 1037.83 1718.06C1030.08 1720.08 1022.4 1722.57 1014.81 1725.51Z" /><path id="Path 10" class="shp2" d="M1137.05 1622.66C1202.48 1582.76 1284.26 1564.84 1359.34 1579.3C1361.69 1577.48 1364.05 1575.66 1366.41 1573.85C1362.8 1573.4 1359.12 1573.01 1355.41 1572.61C1353.77 1572.44 1352.18 1572.24 1350.51 1572.08C1336.44 1570.7 1322.91 1569.88 1309.96 1569.46C1295.63 1569 1282.01 1569.04 1269.23 1569.46C1253.49 1570.64 1230.11 1573.99 1203.62 1583.99C1196.83 1586.55 1189.83 1589.53 1182.7 1593.05C1164.5 1602.04 1149.39 1612.45 1137.05 1622.66ZM1153.38 1636.14C1141.2 1643.46 1129.34 1651.73 1117.89 1661.15C1104.26 1672.37 1091.71 1684.76 1080.19 1698.04C1101.94 1673.96 1126.6 1652.94 1153.38 1636.14ZM1119.59 1839.45C1090.98 1875.29 1066.08 1913.4 1041.63 1951.75C1042.09 1952.13 1042.55 1952.5 1043.01 1952.87C1064.05 1924.16 1086.1 1895.1 1109.28 1865.76C1167.2 1792.45 1225.41 1725.84 1282.44 1665.46C1223.67 1719.01 1169.19 1777.31 1119.59 1839.45ZM983.42 1847.4C983.49 1847.91 983.58 1848.51 983.66 1849.08C984.27 1844.56 985.07 1840.01 986.04 1835.48C985.02 1839.73 984.15 1843.73 983.42 1847.4ZM1180.17 1624.52C1187.21 1620.3 1194.37 1616.3 1201.73 1612.64C1193.76 1615.67 1185.9 1619.05 1178.15 1622.77C1179.11 1622.96 1179.82 1623.64 1180.17 1624.52ZM1290.41 1635.63C1308.11 1620.36 1326.31 1605.32 1344.92 1590.58C1326.25 1590.08 1307.73 1590.63 1289.48 1592.45C1147.53 1639.4 1041.18 1746.31 1024.82 1902.58C1023.98 1910.63 1014.34 1912.76 1009.9 1908.79C1009.65 1909.62 1009.39 1910.45 1009.14 1911.28C1008.8 1911.05 1008.52 1910.76 1008.17 1910.55C1008.15 1910.54 1004.58 1908.01 1004.65 1908.22C1004.48 1908.07 1004.32 1907.91 1004.16 1907.76C1009.44 1916.88 1016.03 1926.22 1024.31 1935.34C1046.76 1902.09 1071.29 1870.28 1094.89 1840.14C1153.15 1765.73 1218.84 1697.33 1290.41 1635.63Z" /><path id="Path 11" fill-rule="evenodd" class="shp3" d="M980.8 1874.27C981.13 1872.67 981.51 1871.08 981.94 1869.47C982.06 1869.02 982.17 1868.57 982.3 1868.12C982.3 1861.85 982.8 1855.48 983.66 1849.08C984.27 1844.56 985.07 1840.01 986.04 1835.48C991.47 1809.98 1002 1784.64 1012.08 1763.25C1016.66 1753.52 1021.76 1744 1027.28 1734.71C1030.63 1729.06 1034.15 1723.51 1037.83 1718.06C1056.26 1690.79 1078.65 1666.13 1104.23 1645.62C1112.03 1639.36 1120.21 1633.47 1128.68 1627.94C1131.44 1626.14 1134.23 1624.38 1137.05 1622.66C1202.48 1582.76 1284.26 1564.84 1359.34 1579.3C1354.51 1583.04 1349.7 1586.8 1344.92 1590.58C1326.25 1590.08 1307.73 1590.63 1289.48 1592.45C1147.53 1639.4 1041.18 1746.31 1024.82 1902.58C1023.98 1910.63 1014.34 1912.76 1009.9 1908.79C1009.65 1909.62 1009.39 1910.45 1009.14 1911.28C1008.8 1911.05 1008.52 1910.76 1008.17 1910.55C1008.15 1910.54 1004.58 1908.01 1004.65 1908.22C1004.48 1908.07 1004.32 1907.91 1004.16 1907.76C1003.33 1907.03 1002.51 1906.29 1001.74 1905.51C1000.36 1904.13 999.04 1902.69 997.8 1901.18C997.63 1900.98 997.55 1900.89 997.44 1900.76C997.33 1900.59 997.16 1900.34 996.9 1899.97C994.82 1896.97 992.94 1893.87 991.2 1890.68C989.49 1887.52 987.93 1884.29 986.48 1880.99C985.24 1878.18 983.23 1875.96 980.8 1874.27ZM1178.15 1622.77C1179.11 1622.96 1179.82 1623.64 1180.17 1624.52C1187.21 1620.3 1194.37 1616.3 1201.73 1612.64C1193.76 1615.67 1185.9 1619.05 1178.15 1622.77ZM1080.19 1698.04C1101.94 1673.96 1126.6 1652.94 1153.38 1636.14C1141.2 1643.46 1129.34 1651.73 1117.89 1661.15C1104.26 1672.37 1091.71 1684.76 1080.19 1698.04Z" /><path id="Path 12" class="shp1" d="M2136.69 1576.27C2180.17 1558.34 2239.5 1558.63 2279.81 1564.35C2299.31 1567.11 2329 1571.37 2355.23 1580.77C2406.75 1576.64 2457.85 1583.8 2500.15 1617.27C2500.52 1617.56 2500 1618.24 2499.62 1617.94C2460.85 1588.68 2414.44 1581.82 2367.12 1585.51C2380.12 1591.31 2391.56 1598.69 2399.54 1608.14C2431.54 1611.58 2497.83 1620.24 2503.75 1660.91C2503.87 1661.79 2502.67 1662.52 2502.17 1661.57C2485.27 1628.84 2443.56 1618.63 2405.12 1616.11C2406.67 1618.82 2407.96 1621.66 2408.94 1624.66C2409.98 1627.89 2406.94 1630.75 2403.98 1630.68C2396.71 1651.62 2364.27 1675.54 2350.52 1685.17C2283.1 1732.44 2210.77 1772.41 2135.12 1804.89C2064.42 1835.24 1990.84 1858.77 1915.63 1875.08C1895.04 1879.54 1874.33 1883.4 1853.54 1886.72C1869.5 1885.65 1885.25 1884.63 1900.06 1882.54C1953.99 1874.94 2006.64 1868.3 2059.13 1853.19C2160.94 1823.88 2252.81 1775.27 2350.77 1736.74C2352.17 1736.19 2353.46 1738.37 2352.27 1739.31C2272.6 1802.71 2167.48 1840.88 2071.04 1870.02C2017.79 1886.11 1963.37 1903.8 1908.62 1913.61C1863.99 1921.6 1805.85 1936.65 1761.9 1923.22C1761 1922.95 1760.19 1922.49 1759.41 1921.97C1743.23 1950.81 1723.49 1978.18 1705.96 2005.37C1675.56 2052.54 1644.98 2099.65 1613.34 2146C1599.74 2165.92 1585.85 2185.69 1571.5 2205.1C1561.37 2242.08 1550.35 2279.23 1540.84 2316.6C1572.97 2267.75 1605.99 2219.44 1638.3 2170.75C1678.78 2109.77 1717.64 2032.83 1773.52 1984.77C1774.83 1983.65 1777.2 1984.68 1776.6 1986.56C1754.47 2056.38 1699.18 2122.15 1659.17 2182.94C1619.4 2243.38 1580.5 2304.56 1539.81 2364.42C1531.58 2362.13 1523.34 2359.87 1515.07 2357.69C1514.66 2360.52 1514.22 2363.35 1513.79 2366.19C1527.32 2368.48 1540.24 2370.33 1552.42 2371.83C1605.23 2388.08 1709.81 2412.08 1835.61 2384.94C1909.66 2368.96 1967.18 2340.4 2006.05 2316.75C2006.09 2316.67 2006.13 2316.58 2006.17 2316.5C2049.05 2300.67 2089.46 2273.06 2119.46 2243.79C2142.33 2221.44 2178.54 2155.54 2122.35 2146.77C2118.92 2146.23 2115.96 2151.29 2119.75 2152.94C2132.5 2155.9 2136.62 2165.67 2132.12 2182.23C2141.67 2199.23 2139.06 2213.29 2124.31 2224.42C2119.17 2230.21 2113.27 2235.52 2107.5 2240.67C2090.75 2255.6 2072.22 2268.46 2052.63 2279.35C2040.45 2286.15 2028.21 2291.46 2015.85 2295.94C2059.97 2202.27 2104.08 2108.62 2148.19 2014.96C2095.69 2044.44 2040.03 2074.92 1982.31 2090.12C1977.25 2091.46 1974.25 2084.42 1978.75 2081.7C2028.12 2052.04 2082.96 2030.93 2133.71 2003.51C2142.73 1998.64 2151.69 1993.66 2160.6 1988.63C2165.9 1977.39 2171.19 1966.15 2176.48 1954.91C2204.1 1944.12 2235.46 1930.22 2268.96 1912.28C2292.56 1899.64 2317.25 1884.97 2342.46 1867.95C2346.81 1865.01 2351.19 1862.01 2355.58 1858.92C2370.94 1848.12 2386.44 1836.45 2401.98 1823.8C2428.94 1801.87 2452.73 1779.71 2473.65 1758.2C2498.44 1723.61 2510.54 1684.27 2504.92 1635.04C2504.77 1633.66 2506.98 1633.09 2507.56 1634.33C2520.9 1663.25 2519.67 1691.75 2509.46 1718.96C2509.46 1718.95 2509.48 1718.93 2509.5 1718.92C2515.1 1706.49 2521.67 1687.54 2522.6 1663.85C2524.48 1616.53 2502.58 1581.95 2493.75 1569.46C2463 1561.78 2426.9 1554.91 2386.25 1551.1C2351.56 1547.85 2319.83 1547.42 2291.85 1548.48C2291.04 1545.37 2290.08 1541.97 2288.98 1538.35C2268.23 1539.23 2247.5 1541.62 2226.85 1545.49C2194.38 1551.58 2165.38 1563.17 2136.69 1576.27ZM2194.6 1692.96C2176.5 1699.45 2158.38 1705.91 2140.23 1712.34C2128.31 1716.56 2116.4 1720.75 2104.46 1724.95C2113.08 1722.23 2121.69 1719.49 2130.27 1716.66C2151.92 1709.53 2173.31 1701.42 2194.6 1692.96ZM1530.17 2258.1C1517.8 2272.98 1503.45 2291.98 1487.2 2308.42C1495.41 2321.4 1503.62 2334.37 1511.83 2347.33C1521.58 2315 1529.72 2281.96 1537.54 2248.94C1535.07 2251.98 1532.68 2255.08 1530.17 2258.1ZM1722.25 1376.68C1718.01 1378.62 1713.79 1380.54 1709.52 1382.53C1726.55 1376.59 1743.7 1371.14 1760.95 1366.26C1763.16 1365.63 1764.78 1369.1 1762.56 1370.08C1595.79 1443.94 1440.42 1526.3 1302.35 1647.57C1295.65 1653.46 1289.03 1659.45 1282.44 1665.46C1225.41 1725.84 1167.2 1792.45 1109.28 1865.76C1086.1 1895.1 1064.05 1924.16 1043.01 1952.87C1037.19 1960.82 1031.46 1968.74 1025.8 1976.63C1015.61 1992.63 1005.37 2008.6 994.86 2024.4C994.44 2023.73 994.01 2023.06 993.59 2022.39C992.83 2023.49 992.04 2024.6 991.29 2025.7C1017.82 2072.99 1062.72 2138.77 1135.5 2198.77C1170.46 2227.58 1204.72 2249.17 1235.07 2265.37C1230.74 2262.15 1226.43 2258.73 1222.11 2255.17C1200.65 2237.42 1179.71 2221.23 1155.85 2208.79C1158.01 2191.9 1161.16 2175.04 1165.3 2158.35C1165.9 2147.1 1167.14 2135.83 1169.17 2124.52C1172.8 2104.27 1179.79 2086.37 1188.6 2069.4C1200.3 2020.82 1228.65 1972.81 1254.86 1929.06C1257.81 1916.22 1260.52 1903.27 1265.22 1890.96C1265.99 1888.94 1269.56 1888.98 1269.33 1891.51C1268.75 1897.61 1267.72 1903.61 1266.49 1909.59C1266.74 1909.18 1266.99 1908.76 1267.23 1908.35C1297.1 1857.91 1329.79 1808.85 1367.14 1763.62C1395.7 1729.03 1426.78 1696.24 1459.99 1665.73C1528.78 1548.29 1649.17 1454.91 1774.83 1431.51C1779.19 1430.7 1780.84 1436.63 1776.66 1438.15C1679.2 1473.56 1593.53 1519.23 1525.93 1600.37C1518.95 1608.75 1512.42 1617.25 1506.28 1625.86C1552.36 1588.67 1601.87 1555.81 1654.17 1528.61C1761.64 1472.73 1883.19 1440.45 2004.82 1445.91C2048.11 1447.85 2099.21 1454.42 2126.06 1492.71C2140.19 1512.84 2145.33 1536.54 2140.6 1558.73C2185.46 1539.02 2236.71 1531.04 2286.94 1531.91C2278.58 1506.55 2263.17 1471.96 2234.17 1438.35C2187.85 1384.67 2131.83 1362.39 2099.94 1353.15C2100.83 1353.58 2101.77 1353.99 2102.67 1354.43C2105.04 1355.6 2103.23 1358.71 2101.02 1358.36C2061.32 1352.22 2023.68 1343.04 1983.11 1344.88C1942.05 1346.73 1906.53 1359.89 1867.12 1368.58C1864.21 1369.22 1862.49 1365.37 1865.08 1363.75C1889.67 1348.35 1921.23 1338.62 1954.5 1334.38C1937.52 1334.21 1919.71 1334.71 1901.16 1336.09C1896.97 1336.4 1892.83 1336.76 1888.74 1337.14C1888.66 1337.17 1888.59 1337.22 1888.5 1337.23C1875.17 1339.53 1862.69 1341.02 1850.65 1347.81C1838.52 1354.65 1831.07 1364.75 1821.3 1374.1C1820.17 1375.18 1818.19 1374.11 1818.64 1372.54C1822.05 1360.43 1832.15 1350.01 1844.48 1342.91C1825.21 1346.11 1807.23 1349.99 1790.65 1354.25C1767.98 1360.06 1747.88 1366.54 1730.72 1372.8C1727.92 1374.06 1725.07 1375.39 1722.25 1376.68Z" /><path id="Path 13" class="shp4" d="M2307.29 1597.53C2305.27 1597.46 2303.19 1597.37 2301.17 1597.31C2297.77 1597.86 2294.4 1598.35 2291 1598.81C2287.23 1599.76 2283.48 1600.72 2279.75 1601.72C2282 1601.72 2284.23 1601.76 2286.44 1601.82C2293.35 1600.29 2300.31 1598.86 2307.29 1597.53ZM2228.17 1617.06C2227.75 1617.15 2227.33 1617.21 2226.92 1617.3C2226.31 1617.42 2225.71 1617.59 2225.08 1617.71C2218.44 1619.79 2211.83 1621.96 2205.31 1624.2C2205.35 1624.22 2205.4 1624.23 2205.44 1624.25C2212.98 1621.75 2220.56 1619.36 2228.17 1617.06ZM2347.27 1592.47C2350.29 1593.5 2350.4 1598 2347.62 1598.93C2347.48 1599.75 2347 1600.5 2345.94 1600.96C2337.88 1604.46 2329.65 1607.65 2321.35 1610.71C2347.19 1606.16 2373.69 1605.37 2399 1608.08C2399.17 1608.1 2399.35 1608.12 2399.54 1608.14C2391.56 1598.69 2380.12 1591.31 2367.12 1585.51C2357.02 1586.3 2346.85 1587.59 2336.71 1589.23C2340.29 1590.23 2343.83 1591.3 2347.27 1592.47ZM2321.38 1598.04C2313.42 1600.37 2305.5 1602.77 2297.58 1605.16C2307.08 1602.65 2316.58 1600.27 2326.13 1598.21C2324.52 1598.15 2322.96 1598.11 2321.38 1598.04ZM2077.63 1654.13C2081.25 1652.82 2084.87 1651.52 2088.54 1650.29C2091.75 1647.6 2095 1644.99 2098.35 1642.56C2091.44 1646.33 2084.54 1650.21 2077.63 1654.13Z" /><path id="Path 14" fill-rule="evenodd" class="shp4" d="M1477.81 2293.56C1474.62 2284.77 1469.63 2277.1 1463.4 2270.79C1453.74 2255.52 1444.08 2240.25 1434.42 2224.98C1406.38 2222.81 1360.63 2222.94 1308.56 2240.73C1282.51 2249.6 1260.88 2260.88 1243.72 2271.62C1240.83 2269.6 1237.94 2267.54 1235.07 2265.37C1230.74 2262.15 1226.43 2258.73 1222.11 2255.17C1200.65 2237.42 1179.71 2221.23 1155.85 2208.79C1158.01 2191.9 1161.16 2175.04 1165.3 2158.35C1165.9 2147.1 1167.14 2135.83 1169.17 2124.52C1172.8 2104.27 1179.79 2086.37 1188.6 2069.4C1200.3 2020.82 1228.65 1972.81 1254.86 1929.06C1254.56 1930.35 1254.27 1931.64 1253.96 1932.93C1251.07 1945.17 1247.21 1957.53 1247.21 1970.17C1247.21 1971.75 1249.56 1972.53 1250.3 1971.01C1256.33 1958.79 1258.39 1944.98 1261.43 1931.77C1263.14 1924.38 1264.97 1917.01 1266.49 1909.59C1266.74 1909.18 1266.99 1908.76 1267.23 1908.35C1297.1 1857.91 1329.79 1808.85 1367.14 1763.62C1395.7 1729.03 1426.78 1696.24 1459.99 1665.73C1528.78 1548.29 1649.17 1454.91 1774.83 1431.51C1779.19 1430.7 1780.84 1436.63 1776.66 1438.15C1679.2 1473.56 1593.53 1519.23 1525.93 1600.37C1518.95 1608.75 1512.42 1617.25 1506.28 1625.86C1552.36 1588.67 1601.87 1555.81 1654.17 1528.61C1761.64 1472.73 1883.19 1440.45 2004.82 1445.91C2048.11 1447.85 2099.21 1454.42 2126.06 1492.71C2140.19 1512.84 2145.33 1536.54 2140.6 1558.73C2118.19 1568.58 2097.37 1581.34 2079.09 1597.39C2076.6 1599.58 2079.79 1602.81 2082.37 1601.64C2100.9 1593.23 2118.73 1584.46 2136.69 1576.27C2180.17 1558.34 2239.5 1558.63 2279.81 1564.35C2299.31 1567.11 2329 1571.37 2355.23 1580.77C2343.46 1581.71 2331.67 1583.26 2319.94 1585.2C2224.48 1566.06 2092.06 1598.94 2030.42 1669.64C2029.13 1671.11 2028.9 1672.84 2029.35 1674.32C1989.58 1693.32 1952.14 1717.28 1917.83 1745.88C1915.72 1747.64 1915.96 1749.87 1917.21 1751.51C1827.78 1779.42 1724.8 1763.97 1647.19 1824.1C1636.35 1832.5 1605.67 1856.2 1628.54 1870.55C1647.42 1882.4 1658.66 1857.93 1645.39 1844.92C1642.36 1841.94 1636.99 1845.86 1639.41 1849.54C1625.4 1828.2 1721.7 1796.37 1730.9 1794.12C1762.73 1786.32 1795.37 1783.28 1827.8 1779.14C1865.52 1774.32 1904.41 1767.31 1938.41 1750.16C1939.13 1750.17 1939.85 1750.03 1940.55 1749.54C1941.09 1749.16 1941.62 1748.74 1942.16 1748.35C1947.55 1745.48 1952.84 1742.38 1957.94 1738.92C1958.98 1739.22 1960.11 1739.19 1961.18 1738.67C1992.84 1723.02 2023.6 1706.8 2054.43 1691.05C2054.61 1691.04 2054.79 1691.05 2054.97 1691.01C2106.67 1682.14 2157.92 1661.86 2207.92 1646.18C2223.85 1641.19 2240.02 1636.52 2256.23 1631.75C2248.44 1635.62 2240.87 1639.89 2233.69 1644.7C2231.25 1646.34 2232.79 1651.01 2235.83 1649.75C2278.48 1632.07 2319.08 1617.36 2365.87 1615.71C2377.63 1615.3 2391.17 1615.2 2405.12 1616.11C2406.67 1618.82 2407.96 1621.66 2408.94 1624.66C2409.98 1627.89 2406.94 1630.75 2403.98 1630.68C2396.71 1651.62 2364.27 1675.54 2350.52 1685.17C2283.1 1732.44 2210.77 1772.41 2135.12 1804.89C2064.42 1835.24 1990.84 1858.77 1915.63 1875.08C1895.04 1879.54 1874.33 1883.4 1853.54 1886.72C1869.5 1885.65 1885.25 1884.63 1900.06 1882.54C1953.99 1874.94 2006.64 1868.3 2059.13 1853.19C2160.94 1823.88 2252.81 1775.27 2350.77 1736.74C2352.17 1736.19 2353.46 1738.37 2352.27 1739.31C2272.6 1802.71 2167.48 1840.88 2071.04 1870.02C2017.79 1886.11 1963.37 1903.8 1908.62 1913.61C1863.99 1921.6 1805.85 1936.65 1761.9 1923.22C1761 1922.95 1760.19 1922.49 1759.41 1921.97C1743.23 1950.81 1723.49 1978.18 1705.96 2005.37C1675.56 2052.54 1644.98 2099.65 1613.34 2146C1599.74 2165.92 1585.85 2185.69 1571.5 2205.1C1561.37 2242.08 1550.35 2279.23 1540.84 2316.6C1572.97 2267.75 1605.99 2219.44 1638.3 2170.75C1678.78 2109.77 1717.64 2032.83 1773.52 1984.77C1774.83 1983.65 1777.2 1984.68 1776.6 1986.56C1754.47 2056.38 1699.18 2122.15 1659.17 2182.94C1619.4 2243.38 1580.5 2304.56 1539.81 2364.42C1531.58 2362.13 1523.34 2359.87 1515.07 2357.69C1515.28 2356.29 1515.5 2354.88 1515.71 2353.48C1514.42 2351.42 1513.12 2349.38 1511.83 2347.33C1521.58 2315 1529.72 2281.96 1537.54 2248.94C1535.07 2251.98 1532.68 2255.08 1530.17 2258.1C1517.8 2272.98 1503.45 2291.98 1487.2 2308.42C1484.07 2303.46 1480.94 2298.5 1477.81 2293.56ZM1371.06 2030.95C1371.16 2030.73 1370.91 2030.51 1370.72 2030.69C1309.88 2088.63 1254.18 2170.67 1224.07 2254.33C1226.8 2256.27 1229.5 2258.25 1232.21 2260.23C1244.88 2228.04 1258.03 2196.21 1275.26 2165.6C1287.2 2144.4 1300.23 2123.83 1314.16 2103.9C1324.2 2089.5 1334.66 2075.5 1345.69 2061.84C1347.19 2059.99 1365.58 2042.52 1366.09 2041.35C1365.99 2041.56 1366.31 2041.75 1366.4 2041.54C1367.96 2038.01 1369.51 2034.48 1371.06 2030.95ZM1288.31 1926.57C1288.7 1928.44 1291.53 1928.33 1291.99 1926.57C1296.68 1908.38 1296.9 1889.77 1303.11 1871.74C1310.98 1848.88 1323.46 1830.47 1338.41 1811.69C1339.28 1810.59 1337.93 1809.16 1336.84 1810.13C1307.74 1835.95 1279.99 1886.44 1288.31 1926.57ZM1592.5 1732.86C1591.45 1735.91 1592.35 1739.48 1596.34 1740.14C1602.14 1741.1 1608.58 1741.22 1615.28 1740.62C1622.08 1741.5 1628.76 1740.08 1634.54 1736.99C1636.57 1736.41 1638.59 1735.79 1640.59 1735.09C1641.01 1734.96 1641.42 1734.79 1641.84 1734.64C1674.31 1722.93 1702.07 1695.95 1685.17 1660.98C1675.31 1640.56 1651.31 1635.6 1631.36 1643.3C1615.03 1649.61 1603.36 1663.25 1595.39 1678.69C1583.15 1681.6 1573.12 1689.31 1571.67 1703.57C1570.18 1718.25 1580.05 1728.09 1592.5 1732.86ZM1702.01 1542.55C1701.77 1543.67 1702.16 1544.86 1703.2 1545.46C1707.12 1547.73 1711.39 1544.97 1715.09 1543.19C1719.96 1540.85 1725.32 1538.64 1729.62 1535.35C1732.32 1533.28 1730.78 1529.2 1727.3 1529.84C1721.97 1530.82 1716.8 1533.33 1711.79 1535.35C1708.06 1536.86 1702.95 1538.18 1702.01 1542.55ZM1756.86 1526.05C1786.46 1513.79 1814.3 1498.88 1845.62 1490.91C1874.97 1483.44 1953.36 1465.45 1975.06 1499.35C1976.2 1501.14 1979.53 1499.97 1978.65 1497.83C1965.57 1465.86 1916.24 1471.64 1888.47 1473.95C1842.02 1477.82 1790.77 1491.52 1754.29 1521.63C1752.32 1523.26 1754.44 1527.05 1756.86 1526.05ZM2104.46 1724.95C2113.08 1722.23 2121.69 1719.49 2130.27 1716.66C2151.92 1709.53 2173.31 1701.42 2194.6 1692.96C2176.5 1699.45 2158.38 1705.91 2140.23 1712.34C2128.31 1716.56 2116.4 1720.75 2104.46 1724.95ZM2131.94 1689.91C2185.23 1695.69 2252.85 1674.96 2298.17 1647.37C2299.92 1646.3 2298.77 1643.36 2296.75 1644C2269.48 1652.65 2243.29 1663.6 2215.42 1670.45C2187.65 1677.27 2158.96 1678.73 2131.37 1685.81C2128.92 1686.44 2129.73 1689.67 2131.94 1689.91ZM1440.92 2185.65C1441.48 2181.4 1435.65 2181.02 1433.7 2183.71C1430.69 2187.81 1428.98 2192.77 1427.06 2197.46C1424.67 2203.29 1434.25 2205.94 1436.54 2200.06C1438.39 2195.33 1440.25 2190.73 1440.92 2185.65Z" /><path id="Path 15" fill-rule="evenodd" class="shp5" d="M1359.34 1579.3C1361.69 1577.48 1364.05 1575.66 1366.41 1573.85C1433.26 1522.7 1505.35 1475.87 1580.97 1437.57C1622.84 1416.37 1665.78 1397.78 1709.52 1382.53C1726.55 1376.59 1743.7 1371.14 1760.95 1366.26C1763.16 1365.63 1764.78 1369.1 1762.56 1370.08C1595.79 1443.94 1440.42 1526.3 1302.35 1647.57C1295.65 1653.46 1289.03 1659.45 1282.44 1665.46C1223.67 1719.01 1169.19 1777.31 1119.59 1839.45C1090.98 1875.29 1066.08 1913.4 1041.63 1951.75C1036.34 1960.04 1031.07 1968.34 1025.8 1976.63C1015.61 1992.63 1005.37 2008.6 994.86 2024.4C994.44 2023.73 994.01 2023.06 993.59 2022.39C989.91 2016.52 986.23 2010.64 982.5 2004.78C994.84 1981.01 1009.1 1957.85 1024.31 1935.34C1046.76 1902.09 1071.29 1870.28 1094.89 1840.14C1153.15 1765.73 1218.84 1697.33 1290.41 1635.63C1308.11 1620.36 1326.31 1605.32 1344.92 1590.58C1349.7 1586.8 1354.51 1583.04 1359.34 1579.3ZM2321.35 1610.71C2298.67 1614.71 2276.54 1621.67 2256.23 1631.75C2240.02 1636.52 2223.85 1641.19 2207.92 1646.18C2157.92 1661.86 2106.67 1682.14 2054.97 1691.01C2054.79 1691.05 2054.61 1691.04 2054.43 1691.05C2103.31 1666.1 2152.35 1642.41 2205.31 1624.2C2205.35 1624.22 2205.4 1624.23 2205.44 1624.25C2212.98 1621.75 2220.56 1619.36 2228.17 1617.06C2227.75 1617.15 2227.33 1617.21 2226.92 1617.3C2226.31 1617.42 2225.71 1617.59 2225.08 1617.71C2225.98 1617.44 2226.85 1617.13 2227.75 1616.86C2244.31 1611.79 2261.77 1606.51 2279.75 1601.72C2282 1601.72 2284.23 1601.76 2286.44 1601.82C2293.35 1600.29 2300.31 1598.86 2307.29 1597.53C2305.27 1597.46 2303.19 1597.37 2301.17 1597.31C2297.77 1597.86 2294.4 1598.35 2291 1598.81C2306.02 1595.04 2321.33 1591.71 2336.71 1589.23C2340.29 1590.23 2343.83 1591.3 2347.27 1592.47C2350.29 1593.5 2350.4 1598 2347.62 1598.93C2347.48 1599.75 2347 1600.5 2345.94 1600.96C2337.88 1604.46 2329.65 1607.65 2321.35 1610.71ZM2297.58 1605.16C2307.08 1602.65 2316.58 1600.27 2326.13 1598.21C2324.52 1598.15 2322.96 1598.11 2321.38 1598.04C2313.42 1600.37 2305.5 1602.77 2297.58 1605.16ZM2077.63 1654.13C2061.2 1660.07 2045.09 1666.8 2029.35 1674.32C2028.9 1672.84 2029.13 1671.11 2030.42 1669.64C2092.06 1598.94 2224.48 1566.06 2319.94 1585.2C2296.6 1589.07 2273.58 1594.55 2251.67 1600.25C2212.44 1610.46 2171.33 1622.83 2130.88 1637.93C2116.56 1641.47 2102.46 1645.6 2088.54 1650.29C2091.75 1647.6 2095 1644.99 2098.35 1642.56C2091.44 1646.33 2084.54 1650.21 2077.63 1654.13ZM2509.46 1718.96C2486.54 1779.99 2418.4 1834.47 2367.6 1872.37C2363.15 1875.7 2358.83 1878.89 2354.69 1881.95C2350.19 1885.29 2345.88 1888.46 2341.83 1891.47C2318.19 1909.08 2294 1925.92 2269.38 1942.13C2235.87 1964.18 2201.56 1985.01 2166.58 2004.63C2160.5 2008.04 2154.37 2011.5 2148.19 2014.96C2095.69 2044.44 2040.03 2074.92 1982.31 2090.12C1977.25 2091.46 1974.25 2084.42 1978.75 2081.7C2028.12 2052.04 2082.96 2030.93 2133.71 2003.51C2142.73 1998.64 2151.69 1993.66 2160.6 1988.63C2197.31 1967.94 2233.25 1945.91 2268.48 1922.77C2273.15 1919.7 2277.81 1916.63 2282.46 1913.52C2303.31 1899.57 2324.29 1885.33 2344.98 1870.67C2349.29 1867.61 2353.62 1864.54 2357.92 1861.43C2381.1 1844.66 2403.83 1827.28 2425.44 1808.97C2444.46 1792.86 2460.75 1776.17 2473.65 1758.2C2498.44 1723.61 2510.54 1684.27 2504.92 1635.04C2504.77 1633.66 2506.98 1633.09 2507.56 1634.33C2520.9 1663.25 2519.67 1691.75 2509.46 1718.96ZM1865.08 1363.75C1889.67 1348.35 1921.23 1338.62 1954.5 1334.38C2005.2 1327.93 2059.85 1334.31 2099.94 1353.15C2100.83 1353.58 2101.77 1353.99 2102.67 1354.43C2105.04 1355.6 2103.23 1358.71 2101.02 1358.36C2061.32 1352.22 2023.68 1343.04 1983.11 1344.88C1942.05 1346.73 1906.53 1359.89 1867.12 1368.58C1864.21 1369.22 1862.49 1365.37 1865.08 1363.75ZM1844.48 1342.91C1858.4 1334.9 1875.17 1331.13 1888.5 1334.15C1889.89 1334.47 1890.03 1336.66 1888.74 1337.14C1888.66 1337.17 1888.59 1337.22 1888.5 1337.23C1875.17 1339.53 1862.69 1341.02 1850.65 1347.81C1838.52 1354.65 1831.07 1364.75 1821.3 1374.1C1820.17 1375.18 1818.19 1374.11 1818.64 1372.54C1822.05 1360.43 1832.15 1350.01 1844.48 1342.91Z" /><path id="Path 16" fill-rule="evenodd" class="shp2" d="M1571.67 1703.57C1573.12 1689.31 1583.15 1681.6 1595.39 1678.69C1603.36 1663.25 1615.03 1649.61 1631.36 1643.3C1651.31 1635.6 1675.31 1640.56 1685.17 1660.98C1702.07 1695.95 1674.31 1722.93 1641.84 1734.64C1641.42 1734.79 1641.01 1734.96 1640.59 1735.09C1638.59 1735.79 1636.57 1736.41 1634.54 1736.99C1628.76 1740.08 1622.08 1741.5 1615.28 1740.62C1608.58 1741.22 1602.14 1741.1 1596.34 1740.14C1592.35 1739.48 1591.45 1735.91 1592.5 1732.86C1580.05 1728.09 1570.18 1718.25 1571.67 1703.57ZM1591.4 1698.35C1591.55 1699.29 1591.78 1700.22 1592.05 1701.14C1591.53 1703.16 1591.2 1705.23 1591.37 1707.38C1591.53 1709.5 1592.44 1711.96 1594.54 1712.91C1597.22 1714.13 1599.85 1714.62 1602.33 1714.53C1608.26 1718.21 1615.61 1718.93 1622 1713.96C1632.82 1705.54 1631.16 1687.34 1616.51 1684.77C1611.25 1683.84 1606.05 1685.24 1601.72 1688.02C1605.03 1677.27 1619.12 1669.81 1628.06 1665.1C1632.79 1662.6 1628.62 1655.69 1623.9 1657.99C1608.29 1665.57 1588.25 1677.85 1591.4 1698.35Z" /><path id="Path 17" class="shp6" d="M2251.67 1600.25C2212.44 1610.46 2171.33 1622.83 2130.88 1637.93C2116.56 1641.47 2102.46 1645.6 2088.54 1650.29C2084.87 1651.52 2081.25 1652.82 2077.63 1654.13C2061.2 1660.07 2045.09 1666.8 2029.35 1674.32C1989.58 1693.32 1952.14 1717.28 1917.83 1745.88C1915.72 1747.64 1915.96 1749.87 1917.21 1751.51C1827.78 1779.42 1724.8 1763.97 1647.19 1824.1C1636.35 1832.5 1605.67 1856.2 1628.54 1870.55C1647.42 1882.4 1658.66 1857.93 1645.39 1844.92C1642.36 1841.94 1636.99 1845.86 1639.41 1849.54C1625.4 1828.2 1721.7 1796.37 1730.9 1794.12C1762.73 1786.32 1795.37 1783.28 1827.8 1779.14C1865.52 1774.32 1904.41 1767.31 1938.41 1750.16C1939.13 1750.17 1939.85 1750.03 1940.55 1749.54C1941.09 1749.16 1941.62 1748.74 1942.16 1748.35C1947.55 1745.48 1952.84 1742.38 1957.94 1738.92C1958.98 1739.22 1960.11 1739.19 1961.18 1738.67C1992.84 1723.02 2023.6 1706.8 2054.43 1691.05C2103.31 1666.1 2152.35 1642.41 2205.31 1624.2C2211.83 1621.96 2218.44 1619.79 2225.08 1617.71C2225.98 1617.44 2226.85 1617.13 2227.75 1616.86C2244.31 1611.79 2261.77 1606.51 2279.75 1601.72C2283.48 1600.72 2287.23 1599.76 2291 1598.81C2306.02 1595.04 2321.33 1591.71 2336.71 1589.23C2346.85 1587.59 2357.02 1586.3 2367.12 1585.51C2414.44 1581.82 2460.85 1588.68 2499.62 1617.94C2500 1618.24 2500.52 1617.56 2500.15 1617.27C2457.85 1583.8 2406.75 1576.64 2355.23 1580.77C2343.46 1581.71 2331.67 1583.26 2319.94 1585.2C2296.6 1589.07 2273.58 1594.55 2251.67 1600.25ZM1592.05 1701.14C1591.53 1703.16 1591.2 1705.23 1591.37 1707.38C1591.53 1709.5 1592.44 1711.96 1594.54 1712.91C1597.22 1714.13 1599.85 1714.62 1602.33 1714.53C1608.26 1718.21 1615.61 1718.93 1622 1713.96C1632.82 1705.54 1631.16 1687.34 1616.51 1684.77C1611.25 1683.84 1606.05 1685.24 1601.72 1688.02C1605.03 1677.27 1619.12 1669.81 1628.06 1665.1C1632.79 1662.6 1628.62 1655.69 1623.9 1657.99C1608.29 1665.57 1588.25 1677.85 1591.4 1698.35C1591.55 1699.29 1591.78 1700.22 1592.05 1701.14ZM2321.35 1610.71C2298.67 1614.71 2276.54 1621.67 2256.23 1631.75C2248.44 1635.62 2240.87 1639.89 2233.69 1644.7C2231.25 1646.34 2232.79 1651.01 2235.83 1649.75C2278.48 1632.07 2319.08 1617.36 2365.87 1615.71C2377.63 1615.3 2391.17 1615.2 2405.12 1616.11C2443.56 1618.63 2485.27 1628.84 2502.17 1661.57C2502.67 1662.52 2503.87 1661.79 2503.75 1660.91C2497.83 1620.24 2431.54 1611.58 2399.54 1608.14C2399.35 1608.12 2399.17 1608.1 2399 1608.08C2373.69 1605.37 2347.19 1606.16 2321.35 1610.71ZM1291.99 1926.57C1296.68 1908.38 1296.9 1889.77 1303.11 1871.74C1310.98 1848.88 1323.46 1830.47 1338.41 1811.69C1339.28 1810.59 1337.93 1809.16 1336.84 1810.13C1307.74 1835.95 1279.99 1886.44 1288.31 1926.57C1288.7 1928.44 1291.53 1928.33 1291.99 1926.57ZM1247.21 1970.17C1247.21 1971.75 1249.56 1972.53 1250.3 1971.01C1256.33 1958.79 1258.39 1944.98 1261.43 1931.77C1263.14 1924.38 1264.97 1917.01 1266.49 1909.59C1267.72 1903.61 1268.75 1897.61 1269.33 1891.51C1269.56 1888.98 1265.99 1888.94 1265.22 1890.96C1260.52 1903.27 1257.81 1916.22 1254.86 1929.06C1254.56 1930.35 1254.27 1931.64 1253.96 1932.93C1251.07 1945.17 1247.21 1957.53 1247.21 1970.17ZM2079.09 1597.39C2076.6 1599.58 2079.79 1602.81 2082.37 1601.64C2100.9 1593.23 2118.73 1584.46 2136.69 1576.27C2165.38 1563.17 2194.38 1551.58 2226.85 1545.49C2247.5 1541.62 2268.23 1539.23 2288.98 1538.35C2324.02 1536.88 2359.08 1539.76 2393.73 1547.34C2393.79 1547.35 2393.83 1547.24 2393.75 1547.22C2360.75 1538.02 2324.12 1532.55 2286.94 1531.91C2236.71 1531.04 2185.46 1539.02 2140.6 1558.73C2118.19 1568.58 2097.37 1581.34 2079.09 1597.39ZM1370.72 2030.69C1309.88 2088.63 1254.18 2170.67 1224.07 2254.33C1226.8 2256.27 1229.5 2258.25 1232.21 2260.23C1244.88 2228.04 1258.03 2196.21 1275.26 2165.6C1287.2 2144.4 1300.23 2123.83 1314.16 2103.9C1324.2 2089.5 1334.66 2075.5 1345.69 2061.84C1347.19 2059.99 1365.58 2042.52 1366.09 2041.35C1365.99 2041.56 1366.31 2041.75 1366.4 2041.54C1367.96 2038.01 1369.51 2034.48 1371.06 2030.95C1371.16 2030.73 1370.91 2030.51 1370.72 2030.69Z" /><path id="Path 18" class="shp5" d="M1756.86 1526.05C1786.46 1513.79 1814.3 1498.88 1845.62 1490.91C1874.97 1483.44 1953.36 1465.45 1975.06 1499.35C1976.2 1501.14 1979.53 1499.97 1978.65 1497.83C1965.57 1465.86 1916.24 1471.64 1888.47 1473.95C1842.02 1477.82 1790.77 1491.52 1754.29 1521.63C1752.32 1523.26 1754.44 1527.05 1756.86 1526.05ZM1715.09 1543.19C1719.96 1540.85 1725.32 1538.64 1729.62 1535.35C1732.32 1533.28 1730.78 1529.2 1727.3 1529.84C1721.97 1530.82 1716.8 1533.33 1711.79 1535.35C1708.06 1536.86 1702.95 1538.18 1702.01 1542.55C1701.77 1543.67 1702.16 1544.86 1703.2 1545.46C1707.12 1547.73 1711.39 1544.97 1715.09 1543.19ZM2131.94 1689.91C2185.23 1695.69 2252.85 1674.96 2298.17 1647.37C2299.92 1646.3 2298.77 1643.36 2296.75 1644C2269.48 1652.65 2243.29 1663.6 2215.42 1670.45C2187.65 1677.27 2158.96 1678.73 2131.37 1685.81C2128.92 1686.44 2129.73 1689.67 2131.94 1689.91Z" /><path id="pletwa prawa" class="shp2" d="M2244 2104C2244 2104 2484 2116.1 2553 2233C2622 2349.9 2697 2542.1 2673 2674C2649 2805.9 2592 2866 2592 2866L2220 2380C2220 2380 2421 2218.1 2244 2104Z" /><path id="pletwa lewa" class="shp7" d="M1431 2167L1230 2232.35C1230 2232.35 1176 2528.08 1221 2692.91C1266 2857.73 1392 3085 1392 3085C1392 3085 1419 2929.51 1419 2832.94C1419 2736.37 1524 2325.71 1524 2325.71L1431 2167Z" /></g></svg>