<svg xmlns="http://www.w3.org/2000/svg" viewBox="0 0 3415 4167" width="3415" height="4167"><defs><clipPath clipPathUnits="userSpaceOnUse" id="cp1"><path d="M0 0L3415 0L3415 4167L0 4167Z" /></clipPath></defs><style>tspan { white-space:pre }.shp0 { fill: #95d3ca } .shp1 { fill: #ff4217 } .shp2 { fill: #ff9a66 } .shp3 { fill: #e2794b } .shp4 { fill: #40b3b8 } .shp5 { fill: #403d33 } </style><g id="Page 1" clip-path="url(#cp1)"><path id="Path 2" class="shp0" d="M2262.17 2898.54C2269.04 2901.15 2268.81 2893 2270.85 2888.94C2278.85 2872.81 2283.73 2855.79 2285.54 2837.83C2285.6 2837.21 2285.81 2836.6 2285.92 2835.98C2282.94 2839.35 2279.75 2842.6 2276.44 2845.77C2271.27 2860.06 2266.33 2872.98 2262.1 2886.08C2260.83 2890.04 2257.54 2896.79 2262.17 2898.54ZM2219.58 2695.79C2220.69 2697.25 2221.71 2699.06 2222.12 2700.85C2225.27 2702.79 2228.21 2705.06 2230.54 2708.1C2231.88 2709.83 2232.9 2711.71 2233.79 2713.63C2234.96 2714.12 2236.1 2714.77 2237.19 2715.71C2241.42 2719.29 2242.37 2724.29 2241.19 2728.77C2244.67 2731.1 2246.67 2735.27 2244.58 2740.1C2244.08 2741.23 2243.54 2742.29 2243.02 2743.4C2243.17 2744.31 2243.21 2745.31 2243.29 2746.27C2245.44 2747.08 2247.48 2748.19 2249.25 2749.67C2259.29 2742.6 2274.62 2752.52 2274.42 2765.27C2273.75 2805.46 2242.69 2840.17 2210.67 2862.81C2222.42 2856.19 2233.75 2848.85 2244.69 2840.71C2250.17 2836.6 2255.44 2832.21 2260.65 2827.75C2260.56 2827.56 2260.56 2827.35 2260.44 2827.19C2260.5 2824.48 2259.85 2821.67 2260.75 2819.5C2262.5 2815.27 2262.56 2807 2268.65 2809.04C2274.58 2811.04 2268.85 2816.58 2267.62 2820.56C2267.46 2821.06 2267.29 2821.58 2267.12 2822.12C2275.88 2814.48 2284.69 2806.96 2293.92 2800.06C2293.67 2797.92 2293.77 2795.52 2290.96 2794.73C2276.35 2790.56 2289.13 2776.83 2282.27 2769.98C2295.73 2763.98 2285.85 2754.73 2285.33 2746.94C2283.56 2720.94 2268.06 2699.96 2257.6 2677.46C2253.37 2668.35 2252.19 2657.29 2243.98 2649.5C2226.23 2632.65 2212.44 2612.63 2193.08 2596.31C2185.04 2589.54 2177.21 2582.54 2169.42 2575.5C2172.71 2592.52 2175.75 2609.56 2178.6 2626.67C2198.48 2645.83 2203.44 2674.17 2219.58 2695.79ZM2190.21 2699.19C2193.4 2697.71 2196.81 2696.73 2199.96 2696.27C2202.44 2695.9 2204.96 2695.94 2207.42 2696.1C2199.62 2684.33 2191.85 2672.56 2184.15 2660.73C2186.1 2673.38 2188.19 2686.17 2190.21 2699.19ZM1425.42 2740.81C1425.56 2740.98 1425.73 2741.15 1425.88 2741.31C1435.69 2737.56 1439.17 2739.4 1438.42 2745.85C1439.59 2745.81 1440.8 2745.94 1442.04 2746.48C1449.61 2749.79 1456.87 2753.35 1464.02 2756.98C1464.06 2756.56 1464.09 2756.15 1464.13 2755.73C1454.15 2746.65 1446.27 2736.08 1441.36 2723.88C1440.6 2724.23 1439.89 2724.58 1439.32 2724.98C1433.34 2729.04 1431.59 2735.6 1425.42 2740.81ZM1399.52 2700.58C1394.12 2712.48 1392.54 2726 1391.52 2739.69C1391.37 2741.67 1391.45 2743.6 1391.48 2745.52C1393.72 2739.96 1396.61 2734.69 1400.17 2729.81C1396.51 2720.75 1395.65 2710.98 1399.52 2700.58ZM1483.19 2834.29C1488.49 2835.83 1493.86 2837.25 1499.27 2838.48C1493.72 2835.44 1488.34 2831.81 1483.4 2827.73C1483.51 2828.37 1483.69 2829 1483.74 2829.69C1483.85 2831.23 1483.94 2832.94 1483.19 2834.29ZM1408.12 2697.44C1410.05 2693.02 1412.43 2688.75 1415.69 2684.71C1416.78 2683.35 1416.74 2681.08 1417.15 2679.17C1426.48 2677.25 1430.18 2668.77 1435.96 2662.77C1440.59 2657.96 1445.01 2655.65 1452.12 2658.62C1459.95 2661.88 1455.49 2666.58 1455.22 2671.17C1455.01 2674.88 1455.26 2678.67 1455.29 2682.44C1455.91 2682.35 1456.54 2682.17 1457.16 2682.15C1462.49 2680.4 1468.28 2680.42 1473.89 2682.13C1480.44 2642.54 1489.16 2601.92 1499.99 2560.29C1496.1 2566.02 1492.36 2571.9 1488.78 2577.92C1486.4 2581.92 1484.03 2586.67 1479.39 2587.5C1467.7 2589.58 1468.79 2598.25 1469.2 2606.19C1470.04 2622.71 1464.21 2635 1450.22 2644.69C1437.03 2653.81 1423.55 2663.4 1416.86 2679.15C1409.07 2684.83 1403.79 2691.6 1400.15 2699.06C1401.88 2695.85 1405.68 2695.6 1408.12 2697.44ZM1436.45 2774.35C1435.34 2775.04 1433.22 2774.81 1429.13 2772.71C1422.83 2769.5 1423.73 2777.31 1424.66 2780.06C1427.25 2787.69 1431.01 2794.9 1434.29 2802.29C1435.29 2804.56 1437.15 2807.15 1434.55 2809.21C1434.28 2809.42 1433.99 2809.46 1433.7 2809.62C1445.53 2819.98 1460.66 2827.15 1476.99 2832.42C1476.61 2831.73 1476.24 2831.1 1475.88 2830.4C1473.79 2826.27 1467.39 2823.9 1470.38 2817.85C1470.62 2817.38 1471.41 2816.96 1472.3 2816.67C1468.13 2811.5 1464.79 2805.81 1462.71 2799.65C1453.57 2791.56 1444.84 2782.85 1436.45 2774.35Z" /><path id="Path 3" fill-rule="evenodd" class="shp0" d="M2290.98 2829.81C2293.21 2827 2295.29 2824.13 2297.25 2821.19C2299.9 2844.92 2298.06 2868.44 2289.31 2891.46C2269.4 2943.81 2242.42 2991.23 2202.5 3031.98C2181.38 3053.56 2155.19 3068.67 2135.5 3091.46C2132.02 3095.48 2127.17 3102.73 2119.4 3095.58C2117.96 3094.27 2074.45 3123.54 2073.97 3126.06C2072.41 3134.29 2079.16 3128.54 2082.85 3131.52C2070.69 3137.52 2059.49 3144.08 2047.55 3148.73C2010.37 3163.21 1973.87 3179.58 1933.29 3183.73C1898.03 3187.35 1863.2 3189.65 1828.86 3178.37C1821.45 3175.94 1814.91 3176.33 1807.01 3179.71C1792.64 3185.85 1777.02 3180.65 1761.71 3179.17C1774.6 3177.25 1787.5 3175.31 1802.2 3173.1C1786.5 3156.92 1762.38 3162.25 1749.58 3145.27C1766.82 3150.44 1784.87 3152.92 1800.44 3162.79C1811.46 3169.79 1823.55 3167.19 1834.51 3164.52C1882.61 3152.83 1929.91 3138.6 1972.76 3112.73C1974.42 3111.71 1976 3110.56 1978.11 3109.15C1974.73 3104.33 1971.26 3103.92 1966.21 3105.29C1925.06 3116.52 1883.89 3128.23 1841.3 3132.25C1822.16 3134.06 1802.01 3134.75 1783.43 3130.77C1745.34 3122.62 1706.6 3122.56 1668.31 3117.67C1635.31 3113.44 1603.66 3104.25 1572.45 3093.25C1569.28 3092.13 1566.65 3089.5 1564.22 3086.08C1609.45 3104.92 1656.63 3112.17 1704.95 3113.88C1679.87 3101.15 1654.95 3089.06 1627.72 3082.9C1597.43 3076.04 1571.76 3059.37 1544.55 3045.4C1519.81 3032.67 1507.11 3009.94 1488.03 2992.79C1473.09 2979.37 1461.08 2964.1 1451.79 2946.6C1448.25 2939.92 1444.33 2932.46 1444.06 2925.23C1443.25 2903.9 1426.55 2895.31 1412.84 2885.17C1401.59 2876.83 1405.86 2891.56 1401.5 2895.25C1396.37 2885.02 1403.89 2875.27 1402.72 2864.75C1395.05 2865.19 1394.58 2876.85 1386.02 2873.83C1388.19 2861.6 1380.56 2849.79 1385.27 2836.6C1387.29 2830.96 1387.09 2829.06 1393.64 2828.65C1402.15 2828.1 1407.2 2826.33 1409.48 2822.62C1421.9 2835.17 1438.04 2844.79 1454.81 2851.81C1463.9 2857.5 1473.03 2862.71 1481.91 2867.31C1496.06 2874.65 1512.46 2881.35 1529.98 2886.85C1536.18 2891.9 1542 2897.33 1547.25 2903.48C1549.47 2906.06 1554.52 2903.69 1552.62 2900.38C1551.12 2897.77 1549.89 2894.94 1548.62 2892.13C1588.62 2902.06 1632.43 2904.81 1668.86 2893.15C1689.61 2893.52 1710.48 2892.46 1730.88 2889.21C1751.8 2885.88 1781.89 2881.19 1792.98 2861.19C1794.81 2857.9 1794.16 2853.54 1790.2 2852.1C1788.03 2851.33 1785.89 2850.81 1783.76 2850.44C1787.45 2849.4 1791.12 2848.25 1794.76 2847.06C1825.56 2872.87 1865.88 2885.65 1905.02 2893.29C1936.57 2899.44 1969.21 2903.6 2001.85 2905.5C2057.93 2924.63 2118.42 2923.02 2175.46 2903.92C2200.92 2895.4 2229.85 2881.88 2254.79 2863.81C2254.44 2866.6 2254.46 2869.67 2255.1 2873.19C2255.79 2876.94 2255.35 2882.13 2253.21 2884.92C2248.23 2891.37 2250.54 2897.6 2254.69 2901.29C2263.96 2909.5 2259.83 2917.35 2253.94 2922.92C2239.58 2936.42 2241.17 2958.31 2222.83 2971.6C2209.25 2981.46 2201.27 3001.71 2191.04 3017.48C2187.27 3023.31 2183.27 3028.1 2175.73 3028.12C2178.02 3039.33 2167.31 3045.27 2164.17 3054.83C2189.79 3042.54 2246.35 2970.44 2271.21 2917.75C2284.33 2889.94 2294.79 2861.33 2290.98 2829.81ZM2175.4 3028.12C2166.54 3025.58 2160.83 3031.31 2155.54 3036.58C2122.83 3069.06 2083.16 3087.69 2038.35 3096.52C2020.95 3099.96 2003.36 3102.83 1987.99 3112.96C1950.55 3137.58 1909.37 3153.58 1866.25 3165.06C1861.44 3166.33 1855.25 3166.06 1851.85 3173.21C1886.3 3176.94 1918.21 3170.37 1950.56 3163.9C1988.24 3156.35 2020.4 3133.83 2058.49 3128.21C2055.14 3114.04 2045.76 3119.21 2038.87 3121.5C2023.22 3126.71 2007.74 3126.58 1990.88 3124.52C1994.82 3117.6 1999.85 3120.17 2004.06 3119.46C2032.05 3114.67 2061.09 3116.33 2087.44 3101.81C2121.77 3082.9 2149.83 3057.17 2175.4 3028.12ZM1869.94 3106.73C1867.99 3101.15 1861.85 3103.15 1857.99 3104.92C1850.05 3108.52 1842.08 3111.21 1833.32 3111.96C1828.83 3112.33 1821.07 3109.85 1821.37 3117.46C1821.67 3125.17 1829.7 3120.1 1835.07 3123.04C1843.33 3121.25 1852.64 3119 1862.04 3117.23C1868.2 3116.08 1871.82 3112.15 1869.94 3106.73ZM1836.45 3098.48C1844.08 3095.17 1851.26 3093.21 1859.17 3091.96C1879 3088.79 1896.83 3079.98 1914.69 3071.37C1918.59 3069.5 1920.15 3066.23 1918.08 3062.65C1915.62 3058.35 1913.04 3063.04 1910.45 3063.33C1898.8 3064.6 1887.43 3066.5 1876.41 3071.02C1855.83 3079.44 1834.41 3085.04 1812.8 3090.42C1795.57 3094.71 1777.31 3092.81 1757.89 3100.58C1761.6 3103.6 1763.07 3105.85 1764.61 3105.9C1788.91 3106.6 1813.69 3108.35 1836.45 3098.48ZM1783.2 3082.35C1808.95 3077.6 1834.74 3072.87 1861.65 3063.83C1854.51 3055.65 1847.38 3056.88 1841.2 3057.65C1782.88 3064.9 1729.01 3048.67 1678.49 3022.79C1648.19 3007.29 1615.64 3000.21 1584.54 2988.15C1580.08 2986.44 1575.12 2987.25 1571.94 2991.19C1568.74 2995.15 1571.81 2999.25 1573.74 3002.44C1577.41 3008.48 1582.17 3013.85 1586.27 3019.67C1609.53 3052.6 1643.47 3072.9 1680.13 3082.6C1712.89 3091.27 1748.84 3088.69 1783.2 3082.35ZM1630.84 3070.44C1604.1 3049.94 1576.36 3032.71 1559.12 3004.04C1552.6 2993.19 1544.02 2983.58 1537.31 2972.83C1532.54 2965.19 1524.67 2962.98 1517.7 2959.1C1514.23 2957.17 1509.03 2957.46 1510.22 2962.44C1513.7 2976.92 1519.64 2990.9 1515.31 3006.35C1514.95 3007.67 1518.31 3010.15 1520.1 3011.92C1545.17 3036.75 1576.04 3052.31 1607.98 3065.79C1614.38 3068.48 1621.55 3072.37 1630.84 3070.44ZM1509.95 2936.71C1513.85 2937.88 1516.12 2933.54 1514.87 2931.04C1510.75 2922.85 1511.89 2910.71 1500.19 2907.94C1496.11 2906.98 1496.91 2911.92 1496.76 2916.4C1498.12 2923.98 1499.24 2933.5 1509.95 2936.71ZM1494.05 2965.46C1491.56 2942.73 1472.63 2934 1458.38 2921.23C1457.16 2920.15 1454.18 2919.63 1452.96 2920.37C1451.76 2921.1 1450.82 2924.15 1451.36 2925.56C1462.04 2953.79 1478.66 2977.65 1503.63 2997.1C1506.93 2982.71 1495.17 2975.69 1494.05 2965.46ZM1477.29 2916.87C1478.62 2918.23 1482.46 2918.5 1484.33 2917.6C1487.9 2915.87 1486.6 2912.19 1485.24 2909.62C1480.11 2900 1472.28 2891.71 1471.27 2880.02C1471.15 2878.67 1468.45 2876.85 1466.66 2876.4C1458.95 2874.46 1452.88 2870.42 1448.38 2863.83C1446.96 2861.75 1444.87 2859.98 1441.97 2861.08C1439.12 2862.17 1438.78 2864.67 1438.81 2867.33C1439.2 2868.79 1439.38 2870.35 1440 2871.71C1448.4 2890.08 1463.51 2902.96 1477.29 2916.87ZM1537.19 2939.83C1541.7 2945.5 1542.31 2954.48 1549.35 2959.35C1568.04 2972.29 1589.41 2979.31 1610.66 2986.52C1613.46 2987.48 1617.32 2988.52 1619.12 2985.48C1621.77 2981.02 1617.12 2979.73 1614.56 2977.46C1594.16 2959.4 1567.93 2950.58 1546.36 2934.35C1541.36 2930.58 1537.77 2932.23 1537.19 2939.83ZM1645.4 2993.81C1663.37 3001.19 1682.63 3001.29 1702.57 3002.08C1684.68 2994.31 1671.65 2978.48 1651.96 2974.25C1644.22 2972.58 1639.47 2977.77 1637.11 2981.96C1633.61 2988.19 1640.2 2991.69 1645.4 2993.81ZM1704.22 3014.35C1738.45 3041.33 1850.65 3047.9 1871.8 3030C1815.2 3032.29 1759.95 3021.27 1704.22 3014.35ZM1772.81 3003.98C1772.97 3007.81 1776.98 3007.83 1779.93 3008.23C1796.24 3010.5 1812.62 3008.23 1828.55 3006.17C1842.94 3004.31 1858.3 3004.63 1872.85 2998.67C1870.7 2994.27 1868.28 2993.17 1865.77 2993.5C1837.13 2997.29 1808.33 2998.67 1779.49 2999.46C1776.37 2999.54 1772.64 3000.17 1772.81 3003.98ZM1879.66 2994.33C1892.7 2994.33 1905.44 2992.96 1915.92 2984.5C1902.42 2982.73 1891 2988.29 1879.66 2994.33ZM2004.47 3068.71C2013.61 3074.77 2014.96 3079.27 2004.72 3084.87C2002.32 3086.19 2000.45 3087.98 2002.7 3090.79C2004 3092.44 2005.9 3093.29 2008.02 3092.1C2030.07 3079.81 2050.38 3065.04 2069.34 3048.42C2071.21 3046.79 2073.06 3044.15 2071.3 3041.73C2068.65 3038.08 2065.93 3040.73 2063.73 3042.71C2051.56 3053.67 2035.47 3046.6 2022.85 3052.67C2014.45 3045.31 2013.39 3057.17 2006.94 3057.19C1995.91 3057.21 1998.68 3064.85 2004.47 3068.71ZM2054.07 3072.81C2051.24 3074.77 2046.34 3076.42 2048.24 3080.48C2050.54 3085.44 2055.59 3082.48 2059 3081.25C2119.81 3059.29 2172.25 3025.77 2209.44 2971.44C2213.71 2965.17 2217.96 2958.79 2221.44 2952.06C2222.96 2949.13 2222.94 2944.9 2217.21 2944.06C2215.54 2945.75 2213.56 2947.37 2212.04 2949.35C2187.85 2981.1 2157.15 3004.44 2121.19 3021.6C2112.73 3025.65 2102.67 3026.62 2095.98 3035.06C2084.23 3049.94 2069.67 3062.02 2054.07 3072.81ZM2129.67 3002.1C2133.25 3005.94 2136.75 3001.25 2140.29 2999.73C2153.81 2993.96 2159.23 2979.65 2171.42 2971.56C2186.79 2961.4 2197.4 2944.94 2205.56 2927.85C2207.15 2924.56 2209.13 2920.06 2202.44 2917.67C2201.02 2919.48 2199.67 2921.52 2198.02 2923.27C2188.83 2933.04 2180.69 2944.25 2170.06 2952.1C2155.04 2963.19 2144.33 2977.75 2132.42 2991.44C2129.77 2994.48 2126.33 2998.52 2129.67 3002.1ZM2224.65 2914.29C2225.92 2914.56 2228.08 2914.27 2228.71 2913.42C2233.6 2906.56 2239.31 2899.83 2238.88 2890.75C2238.67 2886.69 2234.58 2885.58 2232.65 2888.54C2228.4 2895.1 2225.35 2902.44 2222.85 2907.4C2221.71 2911.88 2222.33 2913.79 2224.65 2914.29ZM1991.01 3060C1956.94 3057.46 1930.49 3066.04 1906.24 3081.42C1899.49 3085.71 1885.84 3084.92 1887.34 3095.87C1888.9 3107.29 1902.65 3098.33 1910.06 3105.13C1902.99 3094.67 1907.53 3091.12 1916.31 3087.9C1924.35 3084.92 1932.23 3082.23 1940.65 3080.21C1956.89 3076.29 1973.6 3072.54 1991.01 3060ZM1396.53 2911.94C1396.48 2911.96 1396.44 2911.96 1396.39 2912L1396.39 2912C1396.24 2911.98 1396.15 2911.92 1396.01 2911.9C1396.02 2911.79 1396.01 2911.69 1396.03 2911.58C1396.22 2911.69 1396.34 2911.83 1396.53 2911.94ZM1465.82 3034.12C1460 3035.19 1457.36 3036.06 1453.36 3029.9C1446.64 3019.5 1440.09 3009.6 1440.86 2996.92C1441.66 2983.81 1427.67 2980.19 1424.58 2969.35C1419.82 2952.71 1413.9 2936.35 1405.67 2920.98C1403.51 2916.92 1400.57 2913.92 1396.53 2911.94C1404.31 2906.25 1411.21 2918.88 1418.43 2911.73C1415.3 2928.23 1430.17 2936.92 1431.83 2950.92C1433.53 2965.29 1439.45 2979.42 1445.14 2993C1450.9 3006.71 1451.62 3023.08 1465.82 3034.12ZM1396.01 2911.9C1393.91 2927.69 1401.87 2941.94 1402.46 2957.54C1397.4 2936.77 1378.72 2920.94 1381.1 2896.21C1389.83 2898.96 1387.42 2910.9 1396.01 2911.9Z" /><path id="Path 4" class="shp1" d="M977.28 1142.31L1003.13 1172.71C994.77 1162.27 986.56 1151.74 978.55 1141.1C978.13 1141.51 977.7 1141.9 977.28 1142.31Z" /><path id="Path 5" fill-rule="evenodd" class="shp1" d="M1435.71 1593.52C1426.85 1601.53 1422.03 1610.4 1417 1619.94L1430.47 1642.63L1430.55 1643.11C1422.06 1644.32 1413.15 1644.86 1403.74 1644.28L1401.74 1642.23C1405.83 1639.81 1408.54 1635.08 1408.02 1630.39C1407.99 1627.18 1406.68 1623.94 1403.42 1621.41C1318.48 1555.54 1260.93 1465.76 1195.74 1381.95C1159.8 1335.73 1123.07 1290.06 1086.02 1244.73C1051.57 1202.58 1016.69 1158.78 979.01 1119.15C1008.5 1114.37 1032.81 1085.42 1030.65 1054.39C1030.34 1049.99 1032.91 1039.87 1036.85 1037.75C1036.8 1037.82 1036.72 1037.85 1036.68 1037.92C1033.9 1042.73 1034.92 1042.79 1036.61 1047.76C1038.22 1052.5 1047.39 1059.68 1051.06 1064.2C1056.01 1070.3 1060.65 1076.7 1065.35 1082.99C1083.66 1107.53 1099.15 1138.46 1121.91 1158.97C1123.68 1160.56 1125.6 1158.07 1125.04 1156.35C1117.68 1133.99 1100.64 1114.5 1086.88 1095.7C1079.91 1086.17 1072.82 1076.75 1065.6 1067.41C1061.59 1062.23 1057.61 1057.02 1053.46 1051.94C1053.94 1052.52 1048.38 1046.41 1044.31 1043.3C1044.64 1042.94 1044.87 1042.5 1044.86 1042C1044.85 1039.57 1044.53 1038.53 1042.61 1037.13C1043.26 1037.3 1043.91 1037.43 1044.58 1037.78C1065.16 1048.45 1086.99 1049.13 1105.59 1042.15C1112.24 1038.14 1118.92 1034.23 1125.66 1030.47C1139.73 1018.89 1149.69 1001.73 1151.97 980.55C1153.06 970.41 1164.54 968.28 1171.19 974.53C1204.19 1005.54 1236.42 954.4 1247.09 929.49C1247.38 928.81 1247.77 928.27 1248.13 927.68C1245.98 942.47 1257.36 965.54 1260.16 976.62C1268.59 1009.85 1273.98 1046.09 1288.15 1077.38C1290.17 1081.84 1296.31 1079.35 1295.9 1074.9C1293.44 1048.09 1283.66 1021.62 1276.55 995.7C1273.19 983.44 1269.83 971.19 1266.46 958.93C1265.51 955.45 1256.53 932.74 1253.99 925.99C1254.31 926.21 1254.7 926.36 1255.15 926.27C1255.61 926.17 1256.06 926.08 1256.52 925.99C1257.73 925.74 1258.89 924.42 1258.51 923.11C1258.42 922.78 1258.33 922.46 1258.24 922.14C1261.35 922.25 1264.54 923.53 1267.14 926.06C1275.82 934.5 1285.06 940.21 1295.18 943.79C1302.95 940.54 1306.45 930.55 1308.97 922.99C1309.43 921.63 1310.13 920.6 1310.97 919.8C1311.07 919.38 1311.17 918.95 1311.28 918.52C1311.3 918.41 1311.34 918.31 1311.36 918.21C1311.43 917.97 1311.47 917.73 1311.53 917.5C1311.56 917.51 1311.59 917.52 1311.62 917.53C1312.66 915.28 1315.92 913.9 1317.93 916.41C1318.51 917.14 1318.95 917.99 1319.49 918.75C1322.53 920.12 1324.86 923.1 1324.33 926.92C1328.15 934.74 1330.67 943.5 1332.5 952.55C1334.15 954.87 1334.75 957.9 1334.37 960.89L1510.92 1592.73C1505.34 1600.06 1499.38 1606.65 1493.06 1612.54C1484.91 1600.55 1476.97 1588.42 1469.22 1576.2C1462.99 1577.52 1457.14 1579.59 1451.63 1582.44C1446.01 1585.35 1440.71 1589.01 1435.71 1593.52ZM1216.3 1112.88C1212.03 1090.66 1201.36 1069.48 1192.31 1048.84C1182.04 1025.4 1172.78 1000.85 1159.04 979.2C1157.16 976.24 1151.45 977.14 1152.55 981.28C1158.78 1004.92 1169.78 1027.18 1179.46 1049.56C1189 1071.59 1197.75 1095.45 1212.03 1114.88C1213.5 1116.88 1216.74 1115.19 1216.3 1112.88ZM1419.15 1576.11C1424.6 1570.05 1430.85 1564.88 1437.63 1560.58C1442.86 1557.26 1448.42 1554.51 1454.21 1552.28C1450.56 1546.41 1446.91 1540.54 1443.25 1534.67C1451.27 1534.66 1454.98 1522.01 1446.07 1518.8C1412.3 1506.6 1376.34 1531.13 1377.57 1567.64C1377.81 1574.55 1385.68 1577.26 1389.93 1574.49L1404.4 1598.79C1408.24 1590.26 1413.57 1582.31 1419.15 1576.11Z" /><path id="Path 6" class="shp2" d="M1467.7 2758.87C1466.48 2757.83 1465.29 2756.79 1464.13 2755.73C1464.09 2756.15 1464.06 2756.56 1464.02 2756.98C1465.25 2757.6 1466.47 2758.23 1467.7 2758.87ZM1421.16 1532.46C1404.77 1535.47 1392.35 1550.1 1392.6 1568.98C1392.63 1571.66 1391.53 1573.45 1389.93 1574.49L1404.4 1598.79C1408.24 1590.26 1413.57 1582.31 1419.15 1576.11C1424.6 1570.05 1430.85 1564.88 1437.63 1560.58C1431.89 1551.32 1426.37 1541.95 1421.16 1532.46ZM1471.92 2695.08C1471.91 2695.6 1471.85 2696.12 1471.71 2696.62C1471.63 2703.17 1470.81 2709.77 1470.3 2716.27C1469.93 2721.19 1469.75 2725.77 1467.13 2729.48C1467.04 2730.23 1466.95 2730.96 1466.86 2731.69C1505.22 2765.87 1561.22 2780 1611.12 2784.12C1647.04 2787.1 1683.37 2784.67 1718.57 2776.92C1723.39 2775.83 1728.58 2774.67 1733.95 2773.35C1746.38 2699.46 1760.72 2625.94 1777.34 2552.85C1786.45 2512.81 1796.56 2473.15 1807.38 2433.54C1813.75 2410.23 1819.24 2385.85 1827.17 2362.6C1834.16 2316.06 1842.17 2269.65 1851.12 2223.35C1851.76 2205.31 1852.37 2187.27 1853.03 2169.23C1845.73 2166.21 1838.98 2161.06 1831.3 2158.1C1814.11 2151.5 1796.13 2148.67 1777.75 2149.63C1768.69 2150.08 1765.83 2136.23 1775.17 2135.44C1794.15 2133.81 1813.17 2135.1 1831.4 2140.98C1792.66 2094.04 1754.59 2046.51 1720.96 1995.76C1681.73 1936.56 1649.97 1872.86 1610.75 1813.61C1572.79 1756.27 1531.74 1701.06 1493.37 1644C1479.86 1623.91 1465.45 1603.44 1451.63 1582.44C1446.01 1585.35 1440.71 1589.01 1435.71 1593.52C1426.85 1601.53 1422.03 1610.4 1417 1619.94L1430.47 1642.55L1430.55 1642.96L1493.04 1963.54C1533.8 2064.82 1589.06 2123.9 1649.65 2167.52C1581.94 2306.92 1531.81 2437.96 1499.99 2560.29C1489.16 2601.92 1480.44 2642.54 1473.89 2682.13C1473.17 2686.48 1472.59 2690.75 1471.92 2695.08ZM1875.37 2159.73C1878.74 2160.83 1881.21 2163.79 1880.37 2168.5C1874.84 2199.19 1869.68 2229.96 1864.8 2260.77C1862.16 2422.98 1859 2585.17 1856.46 2747.37C1897.83 2793.65 1982.1 2798.96 2039.17 2800.54C2074.05 2801.5 2109.73 2797.87 2142.67 2785.79C2135.31 2737.13 2132.54 2687.33 2124.08 2638.73C2114.9 2586 2104.52 2533.48 2092.88 2481.25C2068.97 2373.96 2034.58 2269.27 2010.17 2162.27C2002.66 2160.65 1994.86 2156.48 1987.95 2155.15C1976.73 2152.96 1965.13 2153.98 1954.19 2150.77C1950.48 2149.67 1951.15 2144.85 1953.88 2143.21C1965.43 2136.25 1980.97 2137.79 1993.68 2140.48C1999.09 2141.62 2005.98 2142.92 2011.88 2145.46C2011.85 2142.27 2012.68 2138.83 2014.9 2135.29C2045.96 2085.71 2055.98 2027.41 2055.31 1967.39C2054.09 1953.15 2053.05 1938.92 2053.18 1924.73C2047.94 1863.31 2034.17 1801.81 2022.59 1747.53C2008.68 1682.34 1991.24 1617.94 1969.48 1554.92C1949.32 1496.56 1922.4 1441.31 1900.16 1383.96C1895.54 1382.2 1892.24 1378.02 1893.5 1371.58C1896.13 1358.23 1897.63 1344.9 1898.52 1331.56C1897.03 1331.83 1895.54 1332.13 1894.03 1332.5C1888.34 1333.89 1883.06 1336.6 1877.78 1339.18L1877.49 1370.56L1870.02 2151.42C1871.01 2152.62 1871.99 2153.81 1872.98 2155.02C1874.24 2156.54 1874.99 2158.15 1875.37 2159.73ZM1915.93 1380.33C1921.41 1389.94 1926.65 1399.74 1931.62 1409.75C1927.48 1397.84 1923.31 1385.88 1919.12 1373.89C1918.6 1376.55 1917.44 1378.66 1915.93 1380.33ZM2089.29 2276.58C2079.08 2247.15 2068.1 2217.67 2056.44 2188.15C2060.75 2200.65 2064.53 2213.38 2068.26 2225.83C2075.85 2242.38 2082.8 2259.35 2089.29 2276.58ZM2079.5 2051.25C2086.81 2017.9 2085.33 1994.49 2081.1 1974.2C2080.51 1943.52 2075.91 1907.51 2068.2 1867.35C2072.61 1898.88 2075.58 1930.57 2076.32 1962.17C2081.79 1990.87 2082.84 2021.4 2079.5 2051.25ZM1878.16 1300.32L1877.96 1320.23C1884.48 1317.33 1891.82 1315.33 1899.33 1314.14C1899.55 1306.15 1899.6 1298.16 1899.51 1290.15C1899.17 1290.16 1898.83 1290.18 1898.49 1290.19C1893.6 1292.5 1889.15 1295.62 1884.75 1299.27C1882.57 1301.08 1880.17 1301.18 1878.16 1300.32Z" /><path id="Path 7" class="shp3" d="M1421.16 1532.46C1426.37 1541.95 1431.89 1551.32 1437.63 1560.58C1442.86 1557.26 1448.42 1554.51 1454.21 1552.28C1450.56 1546.41 1446.91 1540.54 1443.25 1534.67C1442.32 1534.67 1441.35 1534.55 1440.32 1534.17C1433.68 1531.77 1427.16 1531.36 1421.16 1532.46ZM1451.63 1582.44C1465.45 1603.44 1479.86 1623.91 1493.37 1644C1531.74 1701.06 1572.79 1756.27 1610.75 1813.61C1649.97 1872.86 1681.73 1936.56 1720.96 1995.76C1754.59 2046.51 1792.66 2094.04 1831.4 2140.98C1813.17 2135.1 1794.15 2133.81 1775.17 2135.44C1765.83 2136.23 1768.69 2150.08 1777.75 2149.63C1796.13 2148.67 1814.11 2151.5 1831.3 2158.1C1838.98 2161.06 1845.73 2166.21 1853.03 2169.23C1852.37 2187.27 1851.76 2205.31 1851.12 2223.35C1842.17 2269.65 1834.16 2316.06 1827.17 2362.6C1819.24 2385.85 1813.75 2410.23 1807.38 2433.54C1796.56 2473.15 1786.45 2512.81 1777.34 2552.85C1760.72 2625.94 1746.38 2699.46 1733.95 2773.35C1738.65 2772.21 1743.48 2770.94 1748.38 2769.54C1757.57 2763.1 1767.79 2758.19 1777.34 2752.23C1784.28 2746.52 1791.21 2740.81 1798.27 2735.27C1805.4 2727.9 1811.51 2719.71 1817.48 2711.02C1817.86 2707.63 1820.27 2705.35 1823.3 2704.44C1831.24 2700.08 1843.65 2707.9 1839.45 2717.42C1844.02 2720.15 1846.96 2725.58 1845.25 2732.04C1848.49 2737.6 1852.27 2742.69 1856.46 2747.37C1859 2585.17 1862.16 2422.98 1864.8 2260.77C1869.68 2229.96 1874.84 2199.19 1880.37 2168.5C1881.21 2163.79 1878.74 2160.83 1875.37 2159.73C1874.99 2158.15 1874.24 2156.54 1872.98 2155.02C1871.99 2153.81 1871.01 2152.62 1870.02 2151.42C1825.46 2097.4 1780.83 2043.16 1742.06 1984.74C1702.8 1925.56 1670.32 1862.28 1630.6 1803.36C1593.14 1747.79 1552.69 1694.32 1512.78 1640.51C1505.97 1631.32 1499.46 1621.96 1493.06 1612.54C1484.91 1600.55 1476.97 1588.42 1469.22 1576.2C1462.99 1577.52 1457.14 1579.59 1451.63 1582.44ZM1898.52 1331.56C1897.63 1344.9 1896.13 1358.23 1893.5 1371.58C1892.24 1378.02 1895.54 1382.2 1900.16 1383.96C1922.4 1441.31 1949.32 1496.56 1969.48 1554.92C1991.24 1617.94 2008.68 1682.34 2022.59 1747.53C2034.17 1801.81 2047.94 1863.31 2053.18 1924.73C2053.05 1938.92 2054.09 1953.15 2055.31 1967.39C2055.98 2027.41 2045.96 2085.71 2014.9 2135.29C2012.68 2138.83 2011.85 2142.27 2011.88 2145.46C2005.98 2142.92 1999.09 2141.62 1993.68 2140.48C1980.97 2137.79 1965.43 2136.25 1953.88 2143.21C1951.15 2144.85 1950.48 2149.67 1954.19 2150.77C1965.13 2153.98 1976.73 2152.96 1987.95 2155.15C1994.86 2156.48 2002.66 2160.65 2010.17 2162.27C2034.58 2269.27 2068.97 2373.96 2092.88 2481.25C2104.52 2533.48 2114.9 2586 2124.08 2638.73C2132.54 2687.33 2135.31 2737.13 2142.67 2785.79C2144.79 2785.02 2146.94 2784.31 2149.02 2783.46C2166.48 2776.4 2180.79 2766.48 2194.65 2755.71C2193.98 2754.23 2193.62 2752.58 2193.62 2751.08C2193.46 2737.08 2191.92 2723.12 2191.75 2709.15C2191.23 2705.81 2190.73 2702.5 2190.21 2699.19C2188.19 2686.17 2186.1 2673.38 2184.15 2660.73C2183.79 2658.5 2183.42 2656.17 2183.08 2653.96C2181.69 2644.83 2180.12 2635.75 2178.6 2626.67C2175.75 2609.56 2172.71 2592.52 2169.42 2575.5C2162.79 2541.27 2155.37 2507.21 2146.94 2473.4C2131.02 2409.46 2113.6 2341.17 2089.29 2276.58C2082.8 2259.35 2075.85 2242.38 2068.26 2225.83C2064.53 2213.38 2060.75 2200.65 2056.44 2188.15C2052.94 2178.02 2049.03 2168.1 2044.55 2158.56C2044.65 2158.42 2044.77 2158.29 2044.87 2158.12C2063.53 2127.58 2075.15 2090.02 2079.5 2051.25C2082.84 2021.4 2081.79 1990.87 2076.32 1962.17C2075.58 1930.57 2072.61 1898.88 2068.2 1867.35C2063.05 1830.64 2055.97 1794.16 2048.24 1758.3C2034.16 1693.1 2015.32 1628.89 1993.51 1565.88C1975.59 1514.11 1956.47 1459.75 1931.62 1409.75C1926.65 1399.74 1921.67 1390.06 1916.2 1380.45C1917.71 1378.78 1919.65 1376.31 1919.65 1374.13C1919.65 1374.12 1919.65 1374.12 1919.65 1374.12C1919.65 1371.92 1920.1 1369.64 1920.47 1367.47C1922.49 1355.61 1924.48 1343.61 1925.22 1331.71C1916.67 1330.11 1907.29 1329.98 1898.52 1331.56ZM1925.08 1312.91C1925.21 1306.08 1925.21 1299.25 1925.11 1292.41C1916.33 1290.99 1907.79 1289.97 1899.51 1290.15C1899.6 1298.16 1899.55 1306.15 1899.33 1314.14C1908.16 1312.75 1917.13 1312.44 1925.08 1312.91Z" /><path id="Path 8" fill-rule="evenodd" class="shp1" d="M962.74 1119.5C964.04 1121.34 965.37 1123.17 966.69 1125.01C965.85 1124.06 965.03 1123.11 964.18 1122.16C963.43 1121.32 963.01 1120.41 962.74 1119.5ZM1877.78 1339.18L1877.49 1370.56C1858.6 1367.66 1840.05 1359.06 1821.83 1344.95L1809.19 1268.36C1810.94 1273.04 1812.77 1277.68 1814.77 1282.22C1816.98 1287.25 1825.3 1285.95 1825.52 1280.31C1827.7 1224.88 1811.22 1166.83 1800.37 1112.78C1788.61 1054.24 1776.35 995.84 1763.21 937.59C1750.07 879.36 1738.75 820.76 1727.6 762.11C1722.35 734.48 1716.75 706.87 1711.93 679.15L1709.92 666.95C1707.96 653.94 1706.37 640.52 1703.47 627.56C1704.08 627.42 1704.67 627.31 1705.28 627.18C1704.58 625.3 1703.82 623.44 1703.07 621.58C1702.62 621.27 1702.18 620.96 1701.73 620.64C1699.62 612.81 1696.9 605.21 1693.1 598.09C1697.94 591.37 1708.64 588.12 1716.07 596.01C1726.27 606.84 1741.18 601.16 1742.8 586.87C1744.09 575.47 1760.41 568.49 1767.83 579.03C1793.72 615.78 1840.44 587.65 1868.11 567.31C1873.88 563.07 1883.5 562.56 1888.11 569.1C1911.93 602.89 1959.51 607.26 1989.04 578.4C1997.57 570.07 2009.19 577.6 2012.11 586.75C2025.49 628.68 2075.99 639.27 2107.73 611.45C2108.9 610.42 2110.25 609.69 2111.67 609.2C2107.35 620.03 2106.44 631.98 2104.75 643.45C2103.06 654.95 2099.67 667.12 2103.06 678.49C2103.92 681.34 2107.94 683 2109.83 680C2116.06 670.25 2116.33 658.49 2117.79 647.24C2119.4 634.74 2122.02 622.06 2120.58 609.46C2120.56 609.27 2120.48 609.14 2120.44 608.97C2126.98 610.66 2132.54 616.22 2130.98 623.6C2128.13 637.05 2129.88 648.44 2138.67 659.42C2145.52 668.01 2140.38 677.98 2132.69 681.49C2132.69 681.61 2132.67 681.73 2132.67 681.85L1946.24 1356.05C1937.49 1361.04 1928.82 1364.75 1920.21 1367.35C1922.22 1355.49 1923.53 1343.61 1924.27 1331.71C1915.72 1330.11 1907.29 1329.98 1898.52 1331.56C1897.03 1331.83 1895.54 1332.13 1894.03 1332.5C1888.34 1333.89 1883.06 1336.6 1877.78 1339.18ZM1872.74 634.09C1872.42 651.77 1870.47 671.13 1876.88 687.83C1878.14 691.13 1883.08 690.58 1884.23 687.53C1891.28 668.83 1888.19 646.55 1887.55 626.85C1886.99 609.61 1888.65 590.11 1881.71 574.09C1881.08 572.62 1879.02 572.87 1878.44 574.22C1870.81 592.19 1873.08 614.79 1872.74 634.09ZM1790.84 712.15C1786.65 669.97 1775.84 625.16 1761.94 585.11C1760.28 580.33 1753.1 583.07 1753.77 587.73C1759.83 629.56 1770.95 674.16 1786.65 713.5C1787.63 715.96 1791.07 714.52 1790.84 712.15ZM1981.6 742.16C1982.6 747.33 1989.93 747.99 1991.83 743.07C2002.02 716.6 2001.93 685.7 2004.33 657.65C2006.36 633.95 2014.81 603.35 2003.78 581.54C2002.71 579.43 1999.86 579.18 1998.44 581.06C1983.8 600.48 1986.6 632.37 1984.42 655.87C1981.81 683.99 1976.24 714.24 1981.6 742.16ZM1878.16 1300.32L1877.96 1320.23C1884.48 1317.33 1891.82 1315.33 1899.33 1314.14C1908.16 1312.75 1917.13 1312.44 1925.08 1312.91C1925.21 1306.08 1925.21 1299.25 1925.11 1292.41C1916.33 1290.99 1907.79 1289.97 1899.51 1290.15C1899.17 1290.16 1898.83 1290.18 1898.49 1290.19C1901.74 1288.64 1905.15 1287.39 1908.99 1286.8C1918.75 1285.31 1926.49 1288.55 1935.48 1291.58C1943.84 1294.39 1948.55 1283.99 1942.39 1278.56C1923.77 1262.16 1887.86 1270.58 1874.98 1290.24C1872.36 1294.24 1874.62 1298.81 1878.16 1300.32Z" /><path id="Path 9" class="shp0" d="M1442.04 2746.48C1440.8 2745.94 1439.59 2745.81 1438.42 2745.85C1436.14 2745.94 1434.04 2746.92 1432.46 2748.54C1442.65 2758.58 1454.62 2767.46 1464.44 2776.13C1484.4 2793.77 1503.15 2807.31 1529.56 2813.5C1548.34 2817.92 1567.38 2819.65 1586.49 2820.54C1584 2815.62 1586.49 2808.92 1591.57 2805.73C1552.08 2799.73 1500.46 2786.31 1467.7 2758.87C1466.47 2758.23 1465.25 2757.6 1464.02 2756.98C1456.87 2753.35 1449.61 2749.79 1442.04 2746.48ZM1454.81 2851.81C1433.43 2838.42 1412.28 2822.04 1394.79 2803.12C1398.6 2810.33 1403.67 2816.77 1409.48 2822.62C1421.9 2835.17 1438.04 2844.79 1454.81 2851.81ZM1423.92 2739.17C1428.74 2733.37 1434.56 2727.9 1440.78 2722.62C1439.77 2719.96 1438.94 2717.19 1438.23 2714.35C1433.84 2711.63 1432.04 2706.71 1432.37 2701.75C1425.02 2706 1418.06 2710.96 1411.9 2716.67C1414.11 2724.9 1418.4 2732.33 1423.92 2739.17ZM1471.73 2693.58C1471.76 2694.6 1471.72 2695.6 1471.71 2696.62C1471.85 2696.12 1471.91 2695.6 1471.92 2695.08C1471.93 2694.58 1471.83 2694.08 1471.73 2693.58ZM1496.77 2852.69C1528.48 2866.21 1562 2874.94 1596.42 2877.35C1628.55 2879.63 1660.27 2873.5 1692.12 2875.19C1696.15 2875.4 1696.39 2880.6 1693.39 2882.35C1685.74 2886.83 1677.5 2890.37 1668.86 2893.15C1689.61 2893.52 1710.48 2892.46 1730.88 2889.21C1751.8 2885.88 1781.89 2881.19 1792.98 2861.19C1794.81 2857.9 1794.16 2853.54 1790.2 2852.1C1788.03 2851.33 1785.89 2850.81 1783.76 2850.44C1787.45 2849.4 1791.12 2848.25 1794.76 2847.06C1825.56 2872.87 1865.88 2885.65 1905.02 2893.29C1936.57 2899.44 1969.21 2903.6 2001.85 2905.5C1992.57 2902.33 1983.41 2898.67 1974.41 2894.35C1971.25 2892.85 1972.98 2888.63 1976.27 2889.37C2040.29 2903.98 2109.44 2905.71 2171.31 2881.52C2184.96 2876.19 2198.04 2869.92 2210.67 2862.81C2242.69 2840.17 2273.75 2805.46 2274.42 2765.27C2274.62 2752.52 2259.29 2742.6 2249.25 2749.67C2247.48 2748.19 2245.44 2747.08 2243.29 2746.27C2242.83 2746.08 2242.4 2745.83 2241.92 2745.69C2221.17 2786.81 2175.5 2808.77 2127.29 2819.19C2129.33 2821.48 2129.67 2824.6 2127.96 2827.33C2124.65 2832.63 2119.75 2835.71 2114.15 2837.5C2115.54 2838.33 2116.81 2839.37 2117.88 2840.65C2125.56 2838.23 2133.15 2835.42 2140.67 2832.58C2164.92 2823.48 2185.33 2812.85 2206.69 2798.27C2209.35 2796.48 2213.1 2798.67 2211.94 2802C2200.94 2833.42 2151.48 2848.58 2118.02 2856.42C2117.65 2856.75 2117.38 2857.15 2116.94 2857.46C2080.52 2883.44 2015.2 2865.79 1975.29 2855.27C1941.76 2846.44 1894.08 2831.9 1863.34 2806.92C1841.84 2834.04 1807.05 2845.54 1771.88 2851.54C1720.74 2860.27 1662.18 2862.81 1612.74 2844.31C1603.16 2843.94 1593.78 2843.27 1584.9 2842.5C1556 2840.02 1522.29 2837.19 1496.04 2823.54C1484.39 2817.48 1473.31 2809 1462.71 2799.65C1464.79 2805.81 1468.13 2811.5 1472.3 2816.67C1475.55 2820.69 1479.32 2824.35 1483.4 2827.73C1488.34 2831.81 1493.72 2835.44 1499.27 2838.48C1493.86 2837.25 1488.49 2835.83 1483.19 2834.29C1481.11 2833.69 1479.04 2833.06 1476.99 2832.42C1460.66 2827.15 1445.53 2819.98 1433.7 2809.62C1431.82 2807.96 1429.95 2806.29 1428.25 2804.48C1409.53 2784.5 1408.11 2767.52 1415.18 2752.54C1408.96 2745.56 1403.47 2737.98 1400.17 2729.81C1396.61 2734.69 1393.72 2739.96 1391.48 2745.52C1388.88 2752 1387.18 2758.87 1386.78 2766.21C1419.47 2800.21 1450.24 2832.85 1496.77 2852.69ZM1825.05 2786C1824.33 2786.71 1823.59 2787.42 1822.85 2788.08C1823.57 2787.69 1824.31 2787.33 1825.02 2786.92C1825.02 2786.6 1825.05 2786.31 1825.05 2786ZM1783.75 2747.98C1789.13 2744.1 1793.88 2739.83 1798.27 2735.27C1791.21 2740.81 1784.28 2746.52 1777.34 2752.23C1779.52 2750.88 1781.67 2749.48 1783.75 2747.98Z" /><path id="Path 10" fill-rule="evenodd" class="shp4" d="M1399.52 2700.58C1399.64 2700.27 1399.66 2699.96 1399.79 2699.65C1399.88 2699.42 1400.04 2699.27 1400.15 2699.06C1401.88 2695.85 1405.68 2695.6 1408.12 2697.44C1409.46 2698.42 1410.4 2699.98 1410.29 2702.04C1410.01 2707.21 1410.66 2712.04 1411.9 2716.67C1414.11 2724.9 1418.4 2732.33 1423.92 2739.17C1424.38 2739.73 1424.94 2740.25 1425.42 2740.81C1425.56 2740.98 1425.73 2741.15 1425.88 2741.31C1427.99 2743.77 1430.11 2746.23 1432.46 2748.54C1442.65 2758.58 1454.62 2767.46 1464.44 2776.13C1484.4 2793.77 1503.15 2807.31 1529.56 2813.5C1548.34 2817.92 1567.38 2819.65 1586.49 2820.54C1584 2815.62 1586.49 2808.92 1591.57 2805.73C1552.08 2799.73 1500.46 2786.31 1467.7 2758.87C1466.48 2757.83 1465.29 2756.79 1464.13 2755.73C1454.15 2746.65 1446.27 2736.08 1441.36 2723.88C1441.19 2723.44 1440.95 2723.06 1440.78 2722.62C1439.77 2719.96 1438.94 2717.19 1438.23 2714.35C1433.84 2711.63 1432.04 2706.71 1432.37 2701.75C1432.6 2698.29 1433.81 2694.83 1435.97 2692.13C1440.09 2686.92 1447.85 2683.27 1455.29 2682.44C1455.91 2682.35 1456.54 2682.17 1457.16 2682.15C1462.49 2680.4 1468.28 2680.42 1473.89 2682.13C1473.17 2686.48 1472.59 2690.75 1471.92 2695.08C1471.93 2694.58 1471.83 2694.08 1471.73 2693.58C1471.76 2694.6 1471.72 2695.6 1471.71 2696.62C1471.63 2703.17 1470.81 2709.77 1470.3 2716.27C1469.93 2721.19 1469.75 2725.77 1467.13 2729.48C1467.04 2730.23 1466.95 2730.96 1466.86 2731.69C1505.22 2765.87 1561.22 2780 1611.12 2784.12C1647.04 2787.1 1683.37 2784.67 1718.57 2776.92C1723.39 2775.83 1728.58 2774.67 1733.95 2773.35C1738.65 2772.21 1743.48 2770.94 1748.38 2769.54C1757.57 2763.1 1767.79 2758.19 1777.34 2752.23C1779.52 2750.88 1781.67 2749.48 1783.75 2747.98C1789.13 2744.1 1793.88 2739.83 1798.27 2735.27C1805.4 2727.9 1811.51 2719.71 1817.48 2711.02C1817.86 2707.63 1820.27 2705.35 1823.3 2704.44C1831.24 2700.08 1843.65 2707.9 1839.45 2717.42C1844.02 2720.15 1846.96 2725.58 1845.25 2732.04C1848.49 2737.6 1852.27 2742.69 1856.46 2747.37C1897.83 2793.65 1982.1 2798.96 2039.17 2800.54C2074.05 2801.5 2109.73 2797.87 2142.67 2785.79C2144.79 2785.02 2146.94 2784.31 2149.02 2783.46C2166.48 2776.4 2180.79 2766.48 2194.65 2755.71C2193.98 2754.23 2193.62 2752.58 2193.62 2751.08C2193.46 2737.08 2191.92 2723.12 2191.75 2709.15C2191.23 2705.81 2190.73 2702.5 2190.21 2699.19C2193.4 2697.71 2196.81 2696.73 2199.96 2696.27C2202.44 2695.9 2204.96 2695.94 2207.42 2696.1C2212.69 2696.48 2217.69 2698.15 2222.12 2700.85C2225.27 2702.79 2228.21 2705.06 2230.54 2708.1C2231.88 2709.83 2232.9 2711.71 2233.79 2713.63C2234.96 2714.12 2236.1 2714.77 2237.19 2715.71C2241.42 2719.29 2242.37 2724.29 2241.19 2728.77C2244.67 2731.1 2246.67 2735.27 2244.58 2740.1C2244.08 2741.23 2243.54 2742.29 2243.02 2743.4C2242.65 2744.15 2242.29 2744.94 2241.92 2745.69C2221.17 2786.81 2175.5 2808.77 2127.29 2819.19C2129.33 2821.48 2129.67 2824.6 2127.96 2827.33C2124.65 2832.63 2119.75 2835.71 2114.15 2837.5C2115.54 2838.33 2116.81 2839.37 2117.88 2840.65C2125.56 2838.23 2133.15 2835.42 2140.67 2832.58C2164.92 2823.48 2185.33 2812.85 2206.69 2798.27C2209.35 2796.48 2213.1 2798.67 2211.94 2802C2200.94 2833.42 2151.48 2848.58 2118.02 2856.42C2117.65 2856.75 2117.38 2857.15 2116.94 2857.46C2080.52 2883.44 2015.2 2865.79 1975.29 2855.27C1941.76 2846.44 1894.08 2831.9 1863.34 2806.92C1841.84 2834.04 1807.05 2845.54 1771.88 2851.54C1720.74 2860.27 1662.18 2862.81 1612.74 2844.31C1603.16 2843.94 1593.78 2843.27 1584.9 2842.5C1556 2840.02 1522.29 2837.19 1496.04 2823.54C1484.39 2817.48 1473.31 2809 1462.71 2799.65C1453.57 2791.56 1444.84 2782.85 1436.45 2774.35C1431.61 2769.44 1426.85 2764.58 1422.26 2760C1419.85 2757.6 1417.47 2755.1 1415.18 2752.54C1408.96 2745.56 1403.47 2737.98 1400.17 2729.81C1396.51 2720.75 1395.65 2710.98 1399.52 2700.58ZM1822.85 2788.08C1823.57 2787.69 1824.31 2787.33 1825.02 2786.92C1825.02 2786.6 1825.05 2786.31 1825.05 2786C1824.33 2786.71 1823.59 2787.42 1822.85 2788.08Z" /><path id="Path 11" class="shp5" d="M1403.42 1621.41C1318.48 1555.54 1260.93 1465.76 1195.74 1381.95C1159.8 1335.73 1123.07 1290.06 1086.02 1244.73C1051.57 1202.58 1016.69 1158.78 979.01 1119.15C976.14 1116.14 973.39 1112.97 970.49 1110.01C969.6 1109.1 968.73 1108.16 967.83 1107.25C962.69 1102.05 954.98 1108.52 959.16 1114.51C960.32 1116.18 961.55 1117.83 962.74 1119.5C964.04 1121.34 965.37 1123.17 966.69 1125.01C970.58 1130.4 974.53 1135.77 978.55 1141.1C986.56 1151.74 994.77 1162.27 1003.13 1172.71C1025.77 1200.98 1049.31 1228.69 1071.79 1256.63C1110.85 1305.18 1148.9 1354.39 1185.28 1405C1245.88 1489.3 1305.26 1578.2 1389.67 1640.76C1393.94 1643.92 1398.31 1643.65 1401.74 1641.61C1405.54 1639.36 1408.08 1634.91 1408.02 1630.39C1407.99 1627.18 1406.68 1623.94 1403.42 1621.41ZM1036.61 1047.76C1038.22 1052.5 1047.39 1059.68 1051.06 1064.2C1056.01 1070.3 1060.65 1076.7 1065.35 1082.99C1083.66 1107.53 1099.15 1138.46 1121.91 1158.97C1123.68 1160.56 1125.6 1158.07 1125.04 1156.35C1117.68 1133.99 1100.64 1114.5 1086.88 1095.7C1079.91 1086.17 1072.82 1076.75 1065.6 1067.41C1061.59 1062.23 1057.61 1057.02 1053.46 1051.94C1053.94 1052.52 1048.38 1046.41 1044.31 1043.3C1044.64 1042.94 1044.87 1042.5 1044.86 1042C1044.85 1039.57 1044.53 1038.53 1042.61 1037.13C1042.53 1037.07 1042.49 1037.01 1042.4 1036.95C1040.77 1035.82 1038.05 1036.01 1036.85 1037.75C1036.8 1037.82 1036.72 1037.85 1036.68 1037.92C1033.9 1042.73 1034.92 1042.79 1036.61 1047.76ZM1159.04 979.2C1157.16 976.24 1151.45 977.14 1152.55 981.28C1158.78 1004.92 1169.78 1027.18 1179.46 1049.56C1189 1071.59 1197.75 1095.45 1212.03 1114.88C1213.5 1116.88 1216.74 1115.19 1216.3 1112.88C1212.03 1090.66 1201.36 1069.48 1192.31 1048.84C1182.04 1025.4 1172.78 1000.85 1159.04 979.2ZM1260.16 976.62C1268.59 1009.85 1273.98 1046.09 1288.15 1077.38C1290.17 1081.84 1296.31 1079.35 1295.9 1074.9C1293.44 1048.09 1283.66 1021.62 1276.55 995.7C1273.19 983.44 1269.83 971.19 1266.46 958.93C1265.51 955.45 1256.53 932.74 1253.99 925.99C1254.31 926.21 1254.7 926.36 1255.15 926.27C1255.61 926.17 1256.06 926.08 1256.52 925.99C1257.73 925.74 1258.89 924.42 1258.51 923.11C1258.42 922.78 1258.33 922.46 1258.24 922.14C1258.15 921.83 1258.06 921.52 1257.97 921.22C1257.3 918.88 1254.12 916.86 1252.01 919.06C1249.83 921.34 1248.62 924.29 1248.13 927.68C1245.98 942.47 1257.36 965.54 1260.16 976.62ZM1421.16 1532.46C1427.16 1531.36 1433.68 1531.77 1440.32 1534.17C1441.35 1534.55 1442.32 1534.67 1443.25 1534.67C1451.27 1534.66 1454.98 1522.01 1446.07 1518.8C1412.3 1506.6 1376.34 1531.13 1377.57 1567.64C1377.81 1574.55 1385.68 1577.26 1389.93 1574.49C1391.53 1573.45 1392.63 1571.66 1392.6 1568.98C1392.35 1550.1 1404.77 1535.47 1421.16 1532.46ZM1884.75 1299.27C1889.15 1295.62 1893.6 1292.5 1898.49 1290.19C1901.74 1288.64 1905.15 1287.39 1908.99 1286.8C1918.75 1285.31 1926.49 1288.55 1935.48 1291.58C1943.84 1294.39 1948.55 1283.99 1942.39 1278.56C1923.77 1262.16 1887.86 1270.58 1874.98 1290.24C1872.36 1294.24 1874.62 1298.81 1878.16 1300.32C1880.17 1301.18 1882.57 1301.08 1884.75 1299.27ZM1753.77 587.73C1759.83 629.56 1770.95 674.16 1786.65 713.5C1787.63 715.96 1791.07 714.52 1790.84 712.15C1786.65 669.97 1775.84 625.16 1761.94 585.11C1760.28 580.33 1753.1 583.07 1753.77 587.73ZM1876.88 687.83C1878.14 691.13 1883.08 690.58 1884.23 687.53C1891.28 668.83 1888.19 646.55 1887.55 626.85C1886.99 609.61 1888.65 590.11 1881.71 574.09C1881.08 572.62 1879.02 572.87 1878.44 574.22C1870.81 592.19 1873.08 614.79 1872.74 634.09C1872.42 651.77 1870.47 671.13 1876.88 687.83ZM1991.83 743.07C2002.02 716.6 2001.93 685.7 2004.33 657.65C2006.36 633.95 2014.81 603.35 2003.78 581.54C2002.71 579.43 1999.86 579.18 1998.44 581.06C1983.8 600.48 1986.6 632.37 1984.42 655.87C1981.81 683.99 1976.24 714.24 1981.6 742.16C1982.6 747.33 1989.93 747.99 1991.83 743.07ZM2103.06 678.49C2103.92 681.34 2107.94 683 2109.83 680C2116.06 670.25 2116.33 658.49 2117.79 647.24C2119.4 634.74 2122.02 622.06 2120.58 609.46C2120.56 609.27 2120.48 609.14 2120.44 608.97C2119.48 604.84 2113.4 604.92 2111.85 608.68C2111.79 608.85 2111.73 609.02 2111.67 609.2C2107.35 620.03 2106.44 631.98 2104.75 643.45C2103.06 654.95 2099.67 667.12 2103.06 678.49ZM1825.52 1280.31C1827.7 1224.88 1811.22 1166.83 1800.37 1112.78C1788.61 1054.24 1776.35 995.84 1763.21 937.59C1750.07 879.36 1738.75 820.76 1727.6 762.11C1722.35 734.48 1716.75 706.87 1711.93 679.15C1711.64 677.48 1711.33 675.82 1711.05 674.15C1710.64 671.77 1710.28 669.36 1709.92 666.95C1707.96 653.94 1706.37 640.52 1703.47 627.56C1702.95 625.23 1702.35 622.93 1701.73 620.64C1699.62 612.81 1696.9 605.21 1693.1 598.09C1692.95 597.81 1692.84 597.5 1692.68 597.22C1691.47 595.01 1688.16 595.5 1687.84 598.08C1684.51 624.25 1693.59 650.87 1698.95 676.35C1705.09 705.54 1710.25 734.96 1715.82 764.26C1726.96 822.89 1737.92 881.55 1747.06 940.53C1756.19 999.52 1766.2 1058.32 1776.74 1117.08C1785.6 1166.48 1791.35 1220.73 1809.19 1268.36C1810.94 1273.04 1812.77 1277.68 1814.77 1282.22C1816.98 1287.25 1825.3 1285.95 1825.52 1280.31Z" /><path id="Path 12" class="shp4" d="M1454.81 2851.81C1463.9 2857.5 1473.03 2862.71 1481.91 2867.31C1496.06 2874.65 1512.46 2881.35 1529.98 2886.85C1536.08 2888.75 1542.29 2890.54 1548.62 2892.13C1588.62 2902.06 1632.43 2904.81 1668.86 2893.15C1677.5 2890.37 1685.74 2886.83 1693.39 2882.35C1696.39 2880.6 1696.15 2875.4 1692.12 2875.19C1660.27 2873.5 1628.55 2879.63 1596.42 2877.35C1562 2874.94 1528.48 2866.21 1496.77 2852.69C1450.24 2832.85 1419.47 2800.21 1386.78 2766.21C1377.87 2756.96 1368.84 2747.6 1359.29 2738.35C1358.51 2737.6 1356.79 2738.06 1357.15 2739.35C1363.64 2762.96 1377.4 2784.29 1394.79 2803.12C1412.28 2822.04 1433.43 2838.42 1454.81 2851.81ZM2301.85 2794.19C2299.1 2796 2296.54 2798.08 2293.92 2800.06C2284.69 2806.96 2275.88 2814.48 2267.12 2822.12C2264.98 2824 2262.81 2825.88 2260.65 2827.75C2255.44 2832.21 2250.17 2836.6 2244.69 2840.71C2233.75 2848.85 2222.42 2856.19 2210.67 2862.81C2198.04 2869.92 2184.96 2876.19 2171.31 2881.52C2109.44 2905.71 2040.29 2903.98 1976.27 2889.37C1972.98 2888.63 1971.25 2892.85 1974.41 2894.35C1983.41 2898.67 1992.57 2902.33 2001.85 2905.5C2057.93 2924.63 2118.42 2923.02 2175.46 2903.92C2200.92 2895.4 2229.85 2881.88 2254.79 2863.81C2262.48 2858.23 2269.75 2852.21 2276.44 2845.77C2279.75 2842.6 2282.94 2839.35 2285.92 2835.98C2287.69 2833.98 2289.35 2831.9 2290.98 2829.81C2293.21 2827 2295.29 2824.13 2297.25 2821.19C2301.92 2814.19 2305.92 2806.88 2308.85 2799.15C2310.54 2794.67 2305.31 2791.9 2301.85 2794.19Z" /></g></svg>