<?xml version="1.0" encoding="utf-8"?>
<!-- Generator: Adobe Illustrator 13.0.0, SVG Export Plug-In . SVG Version: 6.00 Build 14948)  -->
<!DOCTYPE svg PUBLIC "-//W3C//DTD SVG 1.1//EN" "http://www.w3.org/Graphics/SVG/1.1/DTD/svg11.dtd">
<svg version="1.1" id="Layer_1" xmlns="http://www.w3.org/2000/svg" xmlns:xlink="http://www.w3.org/1999/xlink" x="0px" y="0px"
	 width="2524.028px" height="371.969px" viewBox="0 0 2524.028 371.969" enable-background="new 0 0 2524.028 371.969"
	 xml:space="preserve">
<path fill="#C2E1DB" d="M2294.417,25.486c-124.934-1.5-133.377,53.998-205.975,79.496c-72.597,25.498-133.377-67.496-211.038-92.995
	c-77.662-25.499-97.923,64.497-168.833,82.496c-70.908,17.999-202.597-43.498-330.909-85.496
	C1249.351-33.01,1082.208,85.483,991.04,91.483c-91.169,6-200.91-29.998-288.702-49.497
	c-87.792-19.499-248.182,56.997-275.195,58.497c-19.626,1.09-130.15-21.572-189.133-34.049
	c-19.84-7.063-41.471-10.948-64.114-10.948C77.855,55.486,0,125.326,0,211.477c0,0.334,0.011,0.666,0.014,1H0v157.492h201.315
	l0,0.355l2322.712,1.645c0,0,0-80.996,0-199.49S2419.353,26.986,2294.417,25.486z"/>
</svg>
