<?xml version="1.0" encoding="utf-8"?>
<!-- Generator: Adobe Illustrator 13.0.0, SVG Export Plug-In . SVG Version: 6.00 Build 14948)  -->
<!DOCTYPE svg PUBLIC "-//W3C//DTD SVG 1.1//EN" "http://www.w3.org/Graphics/SVG/1.1/DTD/svg11.dtd">
<svg version="1.1" id="Layer_1" xmlns="http://www.w3.org/2000/svg" xmlns:xlink="http://www.w3.org/1999/xlink" x="0px" y="0px"
	 width="2525.445px" height="439.422px" viewBox="0 0 2525.445 439.422" enable-background="new 0 0 2525.445 439.422"
	 xml:space="preserve">
<path fill="#E2EBE8" d="M2522.596,250.403c0.145-2.568,0.239-5.146,0.239-7.739c0-107.138-123.968-193.991-276.891-193.991
	c-8.409,0-16.726,0.278-24.944,0.792v-0.958c-3.318,0.533-6.646,1.104-9.975,1.697c-46.313,4.083-89.066,16.178-125.339,34.245
	c-13.104,4.866-26.155,9.579-39.687,13.058c-56.44,14.513-107.67-11.689-139-37c-24.131-19.495-44.193-55.576-80-60
	c-31.933-3.945-56.593,15.929-78,32c-35.74,26.831-63.582,60.62-118,64c-43.797,2.721-85.791-13.759-119-28
	c-35.406-15.184-66.493-32.419-98-48c-75.819-37.493-171.88-9.538-243,14c-76.425,25.293-144.902,64.49-234,55
	c-40.367-4.299-82.371-13.466-123-24c-39.345-10.201-79.359-25.232-118-28c-37.354-2.676-69.542,7.262-100,16
	c-29.352,8.42-58.252,18.15-88,27c-30.388,9.04-63.656,18-98,18c-29.812,0-60.039-5.178-91.468-6.021
	c-9.18-0.532-18.483-0.813-27.896-0.813c-150.921,0-274.582,69.958-285.675,158.729H0v189.019h2525.445V250.403H2522.596z"/>
</svg>
